<svg width="313" height="225" viewBox="0 0 313 225" fill="none" xmlns="http://www.w3.org/2000/svg">
<rect width="313" height="225" fill="#698AFF"/>
<rect width="313" height="225" fill="#698AFF"/>
<path d="M46.8445 83.8182V142H39.799V83.8182H46.8445ZM60.9709 83.8182H69.38L89.1527 132.114H89.8346L109.607 83.8182H118.016V142H111.425V97.7955H110.857L92.6755 142H86.3118L68.13 97.7955H67.5618V142H60.9709V83.8182ZM134.529 142H127.143L148.506 83.8182H155.779L177.143 142H169.756L152.37 93.0227H151.916L134.529 142ZM137.256 119.273H167.029V125.523H137.256V119.273ZM223.244 102C222.619 100.087 221.795 98.3731 220.772 96.858C219.768 95.3239 218.566 94.017 217.164 92.9375C215.782 91.858 214.21 91.0341 212.448 90.4659C210.687 89.8977 208.755 89.6136 206.653 89.6136C203.206 89.6136 200.071 90.5038 197.249 92.2841C194.427 94.0644 192.183 96.6875 190.516 100.153C188.85 103.619 188.016 107.871 188.016 112.909C188.016 117.947 188.859 122.199 190.545 125.665C192.23 129.131 194.513 131.754 197.391 133.534C200.27 135.314 203.509 136.205 207.107 136.205C210.441 136.205 213.376 135.494 215.914 134.074C218.471 132.634 220.46 130.608 221.88 127.994C223.319 125.362 224.039 122.265 224.039 118.705L226.198 119.159H208.698V112.909H230.857V119.159C230.857 123.951 229.835 128.117 227.789 131.659C225.763 135.201 222.96 137.947 219.38 139.898C215.819 141.83 211.728 142.795 207.107 142.795C201.956 142.795 197.429 141.583 193.528 139.159C189.645 136.735 186.615 133.288 184.437 128.818C182.278 124.348 181.198 119.045 181.198 112.909C181.198 108.307 181.814 104.169 183.045 100.494C184.295 96.8011 186.056 93.6572 188.329 91.0625C190.602 88.4678 193.291 86.4792 196.397 85.0966C199.503 83.714 202.922 83.0227 206.653 83.0227C209.721 83.0227 212.581 83.4867 215.232 84.4148C217.903 85.3239 220.28 86.6212 222.363 88.3068C224.465 89.9735 226.217 91.9716 227.619 94.3011C229.02 96.6117 229.986 99.178 230.516 102H223.244ZM242.924 142V83.8182H278.038V90.0682H249.969V109.727H276.219V115.977H249.969V135.75H278.492V142H242.924Z" fill="white"/>
</svg>
