<svg width="636" height="450" viewBox="0 0 636 450" fill="none" xmlns="http://www.w3.org/2000/svg">
<rect width="636" height="450" fill="#698AFF"/>
<path d="M42.2273 152.545V298H24.6136V152.545H42.2273ZM77.5433 152.545H98.5661L147.998 273.284H149.702L199.134 152.545H220.157V298H203.68V187.489H202.259L156.805 298H140.896L95.4411 187.489H94.0206V298H77.5433V152.545ZM261.439 298H242.973L296.382 152.545H314.564L367.973 298H349.507L306.041 175.557H304.905L261.439 298ZM268.257 241.182H342.689V256.807H268.257V241.182ZM483.225 198C481.663 193.218 479.603 188.933 477.046 185.145C474.537 181.31 471.53 178.043 468.026 175.344C464.57 172.645 460.64 170.585 456.237 169.165C451.833 167.744 447.004 167.034 441.748 167.034C433.13 167.034 425.294 169.259 418.239 173.71C411.184 178.161 405.574 184.719 401.407 193.384C397.24 202.048 395.157 212.678 395.157 225.273C395.157 237.867 397.264 248.497 401.478 257.162C405.692 265.827 411.397 272.384 418.594 276.835C425.791 281.286 433.888 283.511 442.884 283.511C451.218 283.511 458.557 281.736 464.901 278.185C471.293 274.586 476.265 269.52 479.816 262.986C483.415 256.404 485.214 248.663 485.214 239.761L490.612 240.898H446.862V225.273H502.259V240.898C502.259 252.877 499.702 263.294 494.589 272.148C489.522 281.002 482.515 287.867 473.566 292.744C464.665 297.574 454.437 299.989 442.884 299.989C430.005 299.989 418.689 296.958 408.935 290.898C399.229 284.837 391.653 276.22 386.208 265.045C380.81 253.871 378.112 240.614 378.112 225.273C378.112 213.767 379.65 203.421 382.728 194.236C385.853 185.003 390.256 177.143 395.938 170.656C401.62 164.17 408.344 159.198 416.109 155.741C423.874 152.285 432.42 150.557 441.748 150.557C449.418 150.557 456.568 151.717 463.197 154.037C469.873 156.31 475.815 159.553 481.023 163.767C486.279 167.934 490.659 172.929 494.163 178.753C497.666 184.529 500.081 190.945 501.407 198H483.225ZM532.426 298V152.545H620.21V168.17H550.04V217.318H615.665V232.943H550.04V282.375H621.347V298H532.426Z" fill="white"/>
</svg>
