<svg width="15" height="16" viewBox="0 0 15 16" fill="none" xmlns="http://www.w3.org/2000/svg">
<path d="M13.3333 0.375977H1.66667C0.741667 0.375977 0 1.11764 0 2.04264V5.37598H1.66667V2.04264H13.3333V13.7093H1.66667V10.376H0V13.7093C0 14.1513 0.175595 14.5753 0.488155 14.8878C0.800716 15.2004 1.22464 15.376 1.66667 15.376H13.3333C13.7754 15.376 14.1993 15.2004 14.5118 14.8878C14.8244 14.5753 15 14.1513 15 13.7093V2.04264C15 1.11764 14.25 0.375977 13.3333 0.375977ZM5.9 10.8593L7.08333 12.0426L11.25 7.87598L7.08333 3.70931L5.9 4.88431L8.05833 7.04264H0V8.70931H8.05833L5.9 10.8593Z" fill="white"/>
</svg>
