<svg width="35" height="37" viewBox="0 0 35 37" fill="none" xmlns="http://www.w3.org/2000/svg">
<g id="Social Icons" clip-path="url(#clip0_3117_34491)">
<path id="Vector" d="M34.9813 18.4386C34.9813 8.71042 27.1571 0.824219 17.5055 0.824219C7.85394 0.824219 0.0297852 8.71042 0.0297852 18.4386C0.0297852 27.2302 6.42038 34.5175 14.7749 35.8389V23.5302H10.3377V18.4386H14.7749V14.5579C14.7749 10.1433 17.384 7.70482 21.3758 7.70482C23.2872 7.70482 25.2877 8.04885 25.2877 8.04885V12.3836H23.0841C20.9133 12.3836 20.2361 13.7415 20.2361 15.1359V18.4386H25.0829L24.3081 23.5302H20.2361V35.8389C28.5907 34.5175 34.9813 27.2302 34.9813 18.4386Z" fill="white"/>
</g>
<defs>
<clipPath id="clip0_3117_34491">
<rect width="34.9515" height="35.2287" fill="white" transform="translate(0.0297852 0.824219)"/>
</clipPath>
</defs>
</svg>
