<svg width="36" height="37" viewBox="0 0 36 37" fill="none" xmlns="http://www.w3.org/2000/svg">
<g id="Social Icons" clip-path="url(#clip0_3117_34489)">
<path id="Vector" d="M32.5078 0.824219H2.72396C1.29723 0.824219 0.143555 1.95952 0.143555 3.36316V33.5071C0.143555 34.9107 1.29723 36.0529 2.72396 36.0529H32.5078C33.9345 36.0529 35.095 34.9107 35.095 33.514V3.36316C35.095 1.95952 33.9345 0.824219 32.5078 0.824219ZM10.513 30.8443H5.32484V14.0281H10.513V30.8443ZM7.9189 11.7369C6.25324 11.7369 4.90843 10.3814 4.90843 8.70939C4.90843 7.0374 6.25324 5.68192 7.9189 5.68192C9.57773 5.68192 10.9225 7.0374 10.9225 8.70939C10.9225 10.3745 9.57773 11.7369 7.9189 11.7369ZM29.9274 30.8443H24.7461V22.6701C24.7461 20.7229 24.712 18.2115 22.0497 18.2115C19.3532 18.2115 18.9436 20.3376 18.9436 22.5325V30.8443H13.7692V14.0281H18.7388V16.3262H18.8071C19.4966 15.0051 21.1895 13.6084 23.7085 13.6084C28.9581 13.6084 29.9274 17.09 29.9274 21.6174V30.8443Z" fill="white"/>
</g>
<defs>
<clipPath id="clip0_3117_34489">
<rect width="34.9515" height="35.2287" fill="white" transform="translate(0.143555 0.824219)"/>
</clipPath>
</defs>
</svg>
