<svg width="36" height="37" viewBox="0 0 36 37" fill="none" xmlns="http://www.w3.org/2000/svg">
<g id="Social Icons" clip-path="url(#clip0_3117_34497)">
<path id="Vector" d="M18.2782 3.99618C22.9475 3.99618 23.5005 4.01682 25.3368 4.09938C27.0434 4.17507 27.965 4.46406 28.5794 4.70488C29.3917 5.02139 29.9788 5.4067 30.5863 6.01907C31.2007 6.63833 31.5762 7.22318 31.8902 8.04197C32.1291 8.66122 32.4158 9.59698 32.4909 11.3103C32.5729 13.168 32.5933 13.7253 32.5933 18.4248C32.5933 23.1311 32.5729 23.6885 32.4909 25.5393C32.4158 27.2595 32.1291 28.1884 31.8902 28.8076C31.5762 29.6264 31.1939 30.2181 30.5863 30.8305C29.972 31.4498 29.3917 31.8282 28.5794 32.1447C27.965 32.3855 27.0366 32.6745 25.3368 32.7502C23.4937 32.8328 22.9407 32.8534 18.2782 32.8534C13.6089 32.8534 13.056 32.8328 11.2197 32.7502C9.51306 32.6745 8.59148 32.3855 7.9771 32.1447C7.16475 31.8282 6.57768 31.4429 5.97012 30.8305C5.35574 30.2113 4.98029 29.6264 4.66627 28.8076C4.42734 28.1884 4.14063 27.2526 4.06554 25.5393C3.98362 23.6816 3.96314 23.1242 3.96314 18.4248C3.96314 13.7185 3.98362 13.1611 4.06554 11.3103C4.14063 9.5901 4.42734 8.66122 4.66627 8.04197C4.98029 7.22318 5.36257 6.63145 5.97012 6.01907C6.5845 5.39982 7.16475 5.02139 7.9771 4.70488C8.59148 4.46406 9.51988 4.17507 11.2197 4.09938C13.056 4.01682 13.6089 3.99618 18.2782 3.99618ZM18.2782 0.824219C13.5338 0.824219 12.9399 0.844861 11.0763 0.927428C9.21952 1.00999 7.94297 1.31274 6.83708 1.74622C5.68341 2.20034 4.70723 2.79895 3.73787 3.78288C2.76169 4.75992 2.16778 5.74385 1.71724 6.89979C1.28717 8.02133 0.986805 9.30112 0.904887 11.1726C0.82297 13.0579 0.80249 13.6565 0.80249 18.4386C0.80249 23.2206 0.82297 23.8192 0.904887 25.6976C0.986805 27.5691 1.28717 28.8558 1.71724 29.9704C2.16778 31.1333 2.76169 32.1172 3.73787 33.0942C4.70723 34.0713 5.68341 34.6768 6.83026 35.124C7.94297 35.5575 9.21269 35.8602 11.0695 35.9428C12.9331 36.0254 13.527 36.046 18.2714 36.046C23.0158 36.046 23.6097 36.0254 25.4733 35.9428C27.3301 35.8602 28.6067 35.5575 29.7126 35.124C30.8594 34.6768 31.8356 34.0713 32.8049 33.0942C33.7743 32.1172 34.375 31.1333 34.8188 29.9773C35.2488 28.8558 35.5492 27.576 35.6311 25.7045C35.713 23.8261 35.7335 23.2275 35.7335 18.4454C35.7335 13.6634 35.713 13.0648 35.6311 11.1864C35.5492 9.31488 35.2488 8.02821 34.8188 6.91355C34.3887 5.74385 33.7948 4.75992 32.8186 3.78288C31.8492 2.80583 30.8731 2.20034 29.7262 1.7531C28.6135 1.31962 27.3438 1.01688 25.487 0.934308C23.6165 0.844861 23.0226 0.824219 18.2782 0.824219Z" fill="white"/>
<path id="Vector_2" d="M18.2783 9.39062C13.3223 9.39062 9.30151 13.4433 9.30151 18.4386C9.30151 23.4339 13.3223 27.4866 18.2783 27.4866C23.2343 27.4866 27.2551 23.4339 27.2551 18.4386C27.2551 13.4433 23.2343 9.39062 18.2783 9.39062ZM18.2783 24.3078C15.063 24.3078 12.4553 21.6794 12.4553 18.4386C12.4553 15.1979 15.063 12.5695 18.2783 12.5695C21.4936 12.5695 24.1013 15.1979 24.1013 18.4386C24.1013 21.6794 21.4936 24.3078 18.2783 24.3078Z" fill="white"/>
<path id="Vector_3" d="M29.7059 9.03227C29.7059 10.202 28.7638 11.1446 27.6101 11.1446C26.4496 11.1446 25.5144 10.1951 25.5144 9.03227C25.5144 7.86257 26.4565 6.91992 27.6101 6.91992C28.7638 6.91992 29.7059 7.86945 29.7059 9.03227Z" fill="white"/>
</g>
<defs>
<clipPath id="clip0_3117_34497">
<rect width="34.9515" height="35.2287" fill="white" transform="translate(0.80249 0.824219)"/>
</clipPath>
</defs>
</svg>
