<svg width="16" height="16" viewBox="0 0 16 16" fill="none" xmlns="http://www.w3.org/2000/svg">
<path d="M7.91929 0.00683594C3.78299 0.00683594 0.429688 3.38673 0.429688 7.55584C0.429688 11.7249 3.78299 15.1048 7.91929 15.1048C12.0556 15.1048 15.4089 11.7249 15.4089 7.55584C15.4089 3.38673 12.0556 0.00683594 7.91929 0.00683594ZM7.91929 1.37938C11.3036 1.37938 14.0472 4.14472 14.0472 7.55584C14.0472 10.967 11.3036 13.7323 7.91929 13.7323C4.53501 13.7323 1.79143 10.967 1.79143 7.55584C1.79143 4.14472 4.53501 1.37938 7.91929 1.37938ZM7.91929 4.12447C7.54311 4.12447 7.23842 4.43192 7.23842 4.81075V6.86956H5.1958C4.81996 6.86956 4.51493 7.17667 4.51493 7.55584C4.51493 7.935 4.81996 8.24211 5.1958 8.24211H7.23842V10.3009C7.23842 10.6798 7.54311 10.9872 7.91929 10.9872C8.29547 10.9872 8.60017 10.6798 8.60017 10.3009V8.24211H10.6428C11.0186 8.24211 11.3237 7.935 11.3237 7.55584C11.3237 7.17667 11.0186 6.86956 10.6428 6.86956H8.60017V4.81075C8.60017 4.43192 8.29547 4.12447 7.91929 4.12447Z" fill="#2A1A8F"/>
</svg>
