<svg width="15" height="16" viewBox="0 0 15 16" fill="none" xmlns="http://www.w3.org/2000/svg">
<path d="M7.4896 0C3.3533 0 0 3.37989 0 7.549C0 11.7181 3.3533 15.098 7.4896 15.098C11.6259 15.098 14.9792 11.7181 14.9792 7.549C14.9792 3.37989 11.6259 0 7.4896 0ZM7.4896 1.37255C10.8739 1.37255 13.6175 4.13788 13.6175 7.549C13.6175 10.9601 10.8739 13.7255 7.4896 13.7255C4.10532 13.7255 1.36175 10.9601 1.36175 7.549C1.36175 4.13788 4.10532 1.37255 7.4896 1.37255ZM7.4896 4.11764C7.11342 4.11764 6.80873 4.42509 6.80873 4.80391V6.86273H4.76611C4.39027 6.86273 4.08524 7.16984 4.08524 7.549C4.08524 7.92817 4.39027 8.23527 4.76611 8.23527H6.80873V10.2941C6.80873 10.6729 7.11342 10.9804 7.4896 10.9804C7.86579 10.9804 8.17048 10.6729 8.17048 10.2941V8.23527H10.2131C10.5889 8.23527 10.894 7.92817 10.894 7.549C10.894 7.16984 10.5889 6.86273 10.2131 6.86273H8.17048V4.80391C8.17048 4.42509 7.86579 4.11764 7.4896 4.11764Z" fill="white"/>
</svg>
