<svg width="45" height="44" viewBox="0 0 45 44" fill="none" xmlns="http://www.w3.org/2000/svg">
<g filter="url(#filter0_d_4746_38564)">
<rect x="3" y="3" width="35" height="33.8448" rx="16.9224" fill="#5B80FF" fill-opacity="0.8" shape-rendering="crispEdges"/>
</g>
<path d="M19.8867 20.5474H16.1367C15.971 20.5474 15.812 20.6132 15.6948 20.7304C15.5776 20.8476 15.5117 21.0066 15.5117 21.1724V24.9224C15.5117 25.0881 15.5776 25.2471 15.6948 25.3643C15.812 25.4815 15.971 25.5474 16.1367 25.5474H19.8867C20.0525 25.5474 20.2115 25.4815 20.3287 25.3643C20.4459 25.2471 20.5117 25.0881 20.5117 24.9224V21.1724C20.5117 21.0066 20.4459 20.8476 20.3287 20.7304C20.2115 20.6132 20.0525 20.5474 19.8867 20.5474ZM19.2617 24.2974H16.7617V21.7974H19.2617V24.2974ZM26.1367 14.2974H22.3867C22.221 14.2974 22.062 14.3632 21.9448 14.4804C21.8276 14.5976 21.7617 14.7566 21.7617 14.9224V18.6724C21.7617 18.8381 21.8276 18.9971 21.9448 19.1143C22.062 19.2315 22.221 19.2974 22.3867 19.2974H26.1367C26.3025 19.2974 26.4615 19.2315 26.5787 19.1143C26.6959 18.9971 26.7617 18.8381 26.7617 18.6724V14.9224C26.7617 14.7566 26.6959 14.5976 26.5787 14.4804C26.4615 14.3632 26.3025 14.2974 26.1367 14.2974ZM25.5117 18.0474H23.0117V15.5474H25.5117V18.0474ZM26.1367 22.4224H24.8867V21.1724C24.8867 21.0066 24.8209 20.8476 24.7037 20.7304C24.5865 20.6132 24.4275 20.5474 24.2617 20.5474C24.096 20.5474 23.937 20.6132 23.8198 20.7304C23.7026 20.8476 23.6367 21.0066 23.6367 21.1724V22.4224H22.3867C22.221 22.4224 22.062 22.4882 21.9448 22.6054C21.8276 22.7226 21.7617 22.8816 21.7617 23.0474C21.7617 23.2131 21.8276 23.3721 21.9448 23.4893C22.062 23.6065 22.221 23.6724 22.3867 23.6724H23.6367V24.9224C23.6367 25.0881 23.7026 25.2471 23.8198 25.3643C23.937 25.4815 24.096 25.5474 24.2617 25.5474C24.4275 25.5474 24.5865 25.4815 24.7037 25.3643C24.8209 25.2471 24.8867 25.0881 24.8867 24.9224V23.6724H26.1367C26.3025 23.6724 26.4615 23.6065 26.5787 23.4893C26.6959 23.3721 26.7617 23.2131 26.7617 23.0474C26.7617 22.8816 26.6959 22.7226 26.5787 22.6054C26.4615 22.4882 26.3025 22.4224 26.1367 22.4224ZM19.8867 14.2974H16.1367C15.971 14.2974 15.812 14.3632 15.6948 14.4804C15.5776 14.5976 15.5117 14.7566 15.5117 14.9224V18.6724C15.5117 18.8381 15.5776 18.9971 15.6948 19.1143C15.812 19.2315 15.971 19.2974 16.1367 19.2974H19.8867C20.0525 19.2974 20.2115 19.2315 20.3287 19.1143C20.4459 18.9971 20.5117 18.8381 20.5117 18.6724V14.9224C20.5117 14.7566 20.4459 14.5976 20.3287 14.4804C20.2115 14.3632 20.0525 14.2974 19.8867 14.2974ZM19.2617 18.0474H16.7617V15.5474H19.2617V18.0474Z" fill="black"/>
<defs>
<filter id="filter0_d_4746_38564" x="0" y="0" width="45" height="43.8447" filterUnits="userSpaceOnUse" color-interpolation-filters="sRGB">
<feFlood flood-opacity="0" result="BackgroundImageFix"/>
<feColorMatrix in="SourceAlpha" type="matrix" values="0 0 0 0 0 0 0 0 0 0 0 0 0 0 0 0 0 0 127 0" result="hardAlpha"/>
<feMorphology radius="1" operator="dilate" in="SourceAlpha" result="effect1_dropShadow_4746_38564"/>
<feOffset dx="2" dy="2"/>
<feGaussianBlur stdDeviation="2"/>
<feComposite in2="hardAlpha" operator="out"/>
<feColorMatrix type="matrix" values="0 0 0 0 0 0 0 0 0 0 0 0 0 0 0 0 0 0 0.1 0"/>
<feBlend mode="normal" in2="BackgroundImageFix" result="effect1_dropShadow_4746_38564"/>
<feBlend mode="normal" in="SourceGraphic" in2="effect1_dropShadow_4746_38564" result="shape"/>
</filter>
</defs>
</svg>
