<svg width="45" height="45" viewBox="0 0 45 45" fill="none" xmlns="http://www.w3.org/2000/svg">
<g filter="url(#filter0_d_4725_38523)">
<rect x="3" y="3" width="34.2044" height="35" rx="17.1022" fill="#5B80FF" fill-opacity="0.8" shape-rendering="crispEdges"/>
</g>
<path d="M20.7392 11.021C19.9515 11.021 19.314 11.6733 19.314 12.4793C19.314 12.542 19.3279 12.6018 19.3363 12.6616C16.8728 13.3053 15.0385 15.5954 15.0385 18.3127V24.8752C15.0385 25.2882 14.7295 25.6043 14.3259 25.6043H13.6133V27.0627H18.735C18.6543 27.2934 18.6014 27.5355 18.6014 27.7918C18.6014 28.991 19.5673 29.9793 20.7392 29.9793C21.9111 29.9793 22.877 28.991 22.877 27.7918C22.877 27.5355 22.8241 27.2934 22.7434 27.0627H27.8651V25.6043H27.1525C26.7489 25.6043 26.4399 25.2882 26.4399 24.8752V18.5177C26.4399 15.7777 24.6501 13.3338 22.1421 12.6616C22.1505 12.6018 22.1644 12.542 22.1644 12.4793C22.1644 11.6733 21.5269 11.021 20.7392 11.021ZM20.4274 13.9377C20.5304 13.9291 20.6334 13.9377 20.7392 13.9377C20.7837 13.9377 20.8283 13.9377 20.8728 13.9377C23.1999 14.0089 25.0148 16.0967 25.0148 18.5177V24.8752C25.0148 25.1315 25.0676 25.3736 25.1484 25.6043H16.33C16.4108 25.3736 16.4636 25.1315 16.4636 24.8752V18.3127C16.4636 15.997 18.2062 14.1029 20.4274 13.9377ZM20.7392 27.0627C21.14 27.0627 21.4518 27.3817 21.4518 27.7918C21.4518 28.202 21.14 28.521 20.7392 28.521C20.3384 28.521 20.0266 28.202 20.0266 27.7918C20.0266 27.3817 20.3384 27.0627 20.7392 27.0627Z" fill="black"/>
<defs>
<filter id="filter0_d_4725_38523" x="0" y="0" width="44.2031" height="45" filterUnits="userSpaceOnUse" color-interpolation-filters="sRGB">
<feFlood flood-opacity="0" result="BackgroundImageFix"/>
<feColorMatrix in="SourceAlpha" type="matrix" values="0 0 0 0 0 0 0 0 0 0 0 0 0 0 0 0 0 0 127 0" result="hardAlpha"/>
<feMorphology radius="1" operator="dilate" in="SourceAlpha" result="effect1_dropShadow_4725_38523"/>
<feOffset dx="2" dy="2"/>
<feGaussianBlur stdDeviation="2"/>
<feComposite in2="hardAlpha" operator="out"/>
<feColorMatrix type="matrix" values="0 0 0 0 0 0 0 0 0 0 0 0 0 0 0 0 0 0 0.1 0"/>
<feBlend mode="normal" in2="BackgroundImageFix" result="effect1_dropShadow_4725_38523"/>
<feBlend mode="normal" in="SourceGraphic" in2="effect1_dropShadow_4725_38523" result="shape"/>
</filter>
</defs>
</svg>
