<svg width="45" height="44" viewBox="0 0 45 44" fill="none" xmlns="http://www.w3.org/2000/svg">
<g filter="url(#filter0_d_4746_38562)">
<rect x="3" y="3" width="35" height="33.8448" rx="16.9224" fill="#5B80FF" fill-opacity="0.8" shape-rendering="crispEdges"/>
</g>
<path d="M24.013 22.3296C25.4464 22.3296 27.138 22.9963 27.3464 23.3963V23.9963H20.6797V23.3963C20.888 22.9963 22.5797 22.3296 24.013 22.3296ZM24.013 21.0796C22.488 21.0796 19.4297 21.8463 19.4297 23.3713V25.2463H28.5964V23.3713C28.5964 21.8463 25.538 21.0796 24.013 21.0796ZM17.763 20.2463C15.8214 20.2463 11.9297 21.2213 11.9297 23.1629V25.2463H17.763V23.9963H13.1797V23.1629C13.1797 22.6379 15.5047 21.3629 18.4464 21.4963C18.8046 21.0678 19.2434 20.7139 19.738 20.4546C19.088 20.3213 18.4266 20.2515 17.763 20.2463ZM17.763 14.8296C18.0102 14.8296 18.2519 14.9029 18.4575 15.0403C18.663 15.1776 18.8233 15.3728 18.9179 15.6012C19.0125 15.8296 19.0372 16.081 18.989 16.3235C18.9408 16.5659 18.8217 16.7887 18.6469 16.9635C18.4721 17.1383 18.2494 17.2573 18.0069 17.3056C17.7644 17.3538 17.5131 17.329 17.2847 17.2344C17.0563 17.1398 16.861 16.9796 16.7237 16.7741C16.5863 16.5685 16.513 16.3268 16.513 16.0796C16.513 15.7481 16.6447 15.4301 16.8791 15.1957C17.1136 14.9613 17.4315 14.8296 17.763 14.8296ZM17.763 13.5796C17.2686 13.5796 16.7852 13.7262 16.3741 14.0009C15.963 14.2756 15.6425 14.6661 15.4533 15.1229C15.2641 15.5797 15.2146 16.0824 15.3111 16.5673C15.4075 17.0523 15.6456 17.4977 15.9953 17.8474C16.3449 18.197 16.7903 18.4351 17.2753 18.5316C17.7602 18.628 18.2629 18.5785 18.7197 18.3893C19.1765 18.2001 19.567 17.8796 19.8417 17.4685C20.1164 17.0574 20.263 16.574 20.263 16.0796C20.263 15.4165 19.9996 14.7807 19.5308 14.3118C19.0619 13.843 18.4261 13.5796 17.763 13.5796ZM24.013 16.4963C24.1778 16.4963 24.339 16.5451 24.476 16.6367C24.613 16.7283 24.7198 16.8584 24.7829 17.0107C24.846 17.163 24.8625 17.3305 24.8303 17.4922C24.7982 17.6538 24.7188 17.8023 24.6023 17.9188C24.4857 18.0354 24.3372 18.1148 24.1756 18.1469C24.0139 18.1791 23.8464 18.1626 23.6941 18.0995C23.5418 18.0364 23.4117 17.9296 23.3201 17.7926C23.2286 17.6555 23.1797 17.4944 23.1797 17.3296C23.1797 17.1086 23.2675 16.8966 23.4238 16.7403C23.58 16.5841 23.792 16.4963 24.013 16.4963ZM24.013 15.2463C23.601 15.2463 23.1982 15.3684 22.8556 15.5974C22.513 15.8263 22.246 16.1517 22.0883 16.5323C21.9306 16.913 21.8893 17.3319 21.9697 17.736C22.0501 18.1402 22.2485 18.5114 22.5399 18.8027C22.8312 19.0941 23.2025 19.2925 23.6066 19.3729C24.0107 19.4533 24.4296 19.412 24.8103 19.2543C25.191 19.0967 25.5163 18.8296 25.7452 18.487C25.9742 18.1444 26.0964 17.7416 26.0964 17.3296C26.0964 16.7771 25.8769 16.2472 25.4862 15.8565C25.0955 15.4657 24.5656 15.2463 24.013 15.2463Z" fill="black"/>
<defs>
<filter id="filter0_d_4746_38562" x="0" y="0" width="45" height="43.8447" filterUnits="userSpaceOnUse" color-interpolation-filters="sRGB">
<feFlood flood-opacity="0" result="BackgroundImageFix"/>
<feColorMatrix in="SourceAlpha" type="matrix" values="0 0 0 0 0 0 0 0 0 0 0 0 0 0 0 0 0 0 127 0" result="hardAlpha"/>
<feMorphology radius="1" operator="dilate" in="SourceAlpha" result="effect1_dropShadow_4746_38562"/>
<feOffset dx="2" dy="2"/>
<feGaussianBlur stdDeviation="2"/>
<feComposite in2="hardAlpha" operator="out"/>
<feColorMatrix type="matrix" values="0 0 0 0 0 0 0 0 0 0 0 0 0 0 0 0 0 0 0.1 0"/>
<feBlend mode="normal" in2="BackgroundImageFix" result="effect1_dropShadow_4746_38562"/>
<feBlend mode="normal" in="SourceGraphic" in2="effect1_dropShadow_4746_38562" result="shape"/>
</filter>
</defs>
</svg>
