<svg width="45" height="44" viewBox="0 0 45 44" fill="none" xmlns="http://www.w3.org/2000/svg">
<g filter="url(#filter0_d_4745_38590)">
<rect x="3" y="3" width="35" height="33.8448" rx="16.9224" fill="#5B80FF" fill-opacity="0.8" shape-rendering="crispEdges"/>
</g>
<path d="M21.875 18.0474H25.3125L21.875 14.6099V18.0474ZM17.5 13.6724H22.5L26.25 17.4224V24.9224C26.25 25.2539 26.1183 25.5718 25.8839 25.8062C25.6495 26.0407 25.3315 26.1724 25 26.1724H17.5C16.8062 26.1724 16.25 25.6099 16.25 24.9224V14.9224C16.25 14.2286 16.8062 13.6724 17.5 13.6724ZM20.75 23.9599L23.7188 20.9911L22.9875 20.1099L20.75 22.3474L19.7562 21.3599L19.0312 22.0849L20.75 23.9599Z" fill="black"/>
<defs>
<filter id="filter0_d_4745_38590" x="0" y="0" width="45" height="43.8447" filterUnits="userSpaceOnUse" color-interpolation-filters="sRGB">
<feFlood flood-opacity="0" result="BackgroundImageFix"/>
<feColorMatrix in="SourceAlpha" type="matrix" values="0 0 0 0 0 0 0 0 0 0 0 0 0 0 0 0 0 0 127 0" result="hardAlpha"/>
<feMorphology radius="1" operator="dilate" in="SourceAlpha" result="effect1_dropShadow_4745_38590"/>
<feOffset dx="2" dy="2"/>
<feGaussianBlur stdDeviation="2"/>
<feComposite in2="hardAlpha" operator="out"/>
<feColorMatrix type="matrix" values="0 0 0 0 0 0 0 0 0 0 0 0 0 0 0 0 0 0 0.1 0"/>
<feBlend mode="normal" in2="BackgroundImageFix" result="effect1_dropShadow_4745_38590"/>
<feBlend mode="normal" in="SourceGraphic" in2="effect1_dropShadow_4745_38590" result="shape"/>
</filter>
</defs>
</svg>
