<svg width="18" height="19" viewBox="0 0 18 19" fill="none" xmlns="http://www.w3.org/2000/svg">
<g id="account-multiple-plus-outline" clip-path="url(#clip0_4626_38627)">
<path id="Vector" d="M9.75781 9.22022C10.2028 9.22022 10.6378 9.08825 11.0078 8.84102C11.3779 8.59379 11.6662 8.24239 11.8365 7.83125C12.0068 7.42012 12.0514 6.96772 11.9646 6.53126C11.8778 6.09481 11.6635 5.69389 11.3488 5.37923C11.0341 5.06456 10.6332 4.85027 10.1968 4.76345C9.76031 4.67663 9.30791 4.72119 8.89677 4.89149C8.48564 5.06178 8.13424 5.35017 7.88701 5.72018C7.63977 6.09019 7.50781 6.52521 7.50781 6.97022C7.50781 7.56695 7.74486 8.13925 8.16682 8.56121C8.58878 8.98316 9.16108 9.22022 9.75781 9.22022ZM9.75781 6.22022C9.90615 6.22022 10.0512 6.2642 10.1745 6.34661C10.2978 6.42902 10.394 6.54616 10.4507 6.6832C10.5075 6.82025 10.5223 6.97105 10.4934 7.11653C10.4645 7.26202 10.393 7.39566 10.2881 7.50055C10.1833 7.60543 10.0496 7.67687 9.90413 7.7058C9.75864 7.73474 9.60784 7.71989 9.4708 7.66313C9.33376 7.60636 9.21662 7.51023 9.13421 7.38689C9.0518 7.26356 9.00781 7.11855 9.00781 6.97022C9.00781 6.7713 9.08683 6.58054 9.22748 6.43989C9.36813 6.29923 9.5589 6.22022 9.75781 6.22022ZM12.8403 9.11521C13.2791 8.48599 13.5144 7.73733 13.5144 6.97022C13.5144 6.2031 13.2791 5.45444 12.8403 4.82522C13.056 4.75578 13.2812 4.72035 13.5078 4.72022C14.1045 4.72022 14.6768 4.95727 15.0988 5.37923C15.5208 5.80118 15.7578 6.37348 15.7578 6.97022C15.7578 7.56695 15.5208 8.13925 15.0988 8.56121C14.6768 8.98316 14.1045 9.22022 13.5078 9.22022C13.2812 9.22008 13.056 9.18465 12.8403 9.11521ZM9.75781 10.7202C5.25781 10.7202 5.25781 13.7202 5.25781 13.7202V15.2202H14.2578V13.7202C14.2578 13.7202 14.2578 10.7202 9.75781 10.7202ZM6.75781 13.7202C6.75781 13.5027 6.99781 12.2202 9.75781 12.2202C12.3828 12.2202 12.7128 13.3902 12.7578 13.7202H6.75781ZM18.0078 13.7202V15.2202H15.7578V13.7202C15.7403 13.1627 15.6119 12.6143 15.3801 12.1069C15.1483 11.5995 14.8178 11.1434 14.4078 10.7652C18.0078 11.1327 18.0078 13.7202 18.0078 13.7202ZM6.00781 9.97022H3.75781V12.2202H2.25781V9.97022H0.0078125V8.47022H2.25781V6.22022H3.75781V8.47022H6.00781V9.97022Z" fill="black"/>
</g>
<defs>
<clipPath id="clip0_4626_38627">
<rect width="18" height="18" fill="white" transform="translate(0.0078125 0.970215)"/>
</clipPath>
</defs>
</svg>
