<svg xmlns="http://www.w3.org/2000/svg" width="23" height="23" viewBox="0 0 23 23" fill="none">
  <g clip-path="url(#clip0_4643_38630)">
    <path d="M11.4023 5.06543C10.5514 5.06543 9.73539 5.40345 9.13371 6.00513C8.53203 6.60681 8.19401 7.42286 8.19401 8.27376C8.19401 9.12467 8.53203 9.94072 9.13371 10.5424C9.73539 11.1441 10.5514 11.4821 11.4023 11.4821C12.2532 11.4821 13.0693 11.1441 13.671 10.5424C14.2727 9.94072 14.6107 9.12467 14.6107 8.27376C14.6107 7.42286 14.2727 6.60681 13.671 6.00513C13.0693 5.40345 12.2532 5.06543 11.4023 5.06543ZM11.4023 6.89876C11.767 6.89876 12.1168 7.04363 12.3746 7.30149C12.6325 7.55935 12.7773 7.90909 12.7773 8.27376C12.7773 8.63844 12.6325 8.98817 12.3746 9.24603C12.1168 9.5039 11.767 9.64876 11.4023 9.64876C11.0377 9.64876 10.6879 9.5039 10.4301 9.24603C10.1722 8.98817 10.0273 8.63844 10.0273 8.27376C10.0273 7.90909 10.1722 7.55935 10.4301 7.30149C10.6879 7.04363 11.0377 6.89876 11.4023 6.89876ZM5.44401 7.81543C4.83622 7.81543 4.25333 8.05687 3.82356 8.48664C3.39379 8.91641 3.15234 9.49931 3.15234 10.1071C3.15234 10.9688 3.63818 11.7113 4.33484 12.1054C4.66484 12.2888 5.04068 12.3988 5.44401 12.3988C5.84734 12.3988 6.22318 12.2888 6.55318 12.1054C6.89234 11.9129 7.17651 11.6379 7.38734 11.3079C6.71818 10.4371 6.36068 9.37376 6.36068 8.27376C6.36068 8.19126 6.36068 8.0996 6.36068 8.0171C6.08568 7.88876 5.77401 7.81543 5.44401 7.81543ZM17.3607 7.81543C17.0307 7.81543 16.719 7.88876 16.444 8.0171C16.444 8.0996 16.444 8.19126 16.444 8.27376C16.444 9.37376 16.0865 10.4371 15.4173 11.3079C15.5273 11.4821 15.6465 11.6196 15.784 11.7571C15.9307 11.8946 16.0773 12.0138 16.2515 12.1054C16.5815 12.2888 16.9573 12.3988 17.3607 12.3988C17.764 12.3988 18.1398 12.2888 18.4698 12.1054C19.1665 11.7113 19.6523 10.9688 19.6523 10.1071C19.6523 9.49931 19.4109 8.91641 18.9811 8.48664C18.5514 8.05687 17.9685 7.81543 17.3607 7.81543ZM11.4023 13.3154C9.25734 13.3154 4.98568 14.3879 4.98568 16.5238V17.8988H17.819V16.5238C17.819 14.3879 13.5473 13.3154 11.4023 13.3154ZM4.71984 13.8196C2.95068 14.0304 0.402344 14.9288 0.402344 16.5238V17.8988H3.15234V16.1296C3.15234 15.2038 3.78484 14.4338 4.71984 13.8196ZM18.0848 13.8196C19.0198 14.4338 19.6523 15.2038 19.6523 16.1296V17.8988H22.4023V16.5238C22.4023 14.9288 19.854 14.0304 18.0848 13.8196ZM11.4023 15.1488C12.8048 15.1488 14.3723 15.6071 15.2798 16.0654H7.52484C8.43234 15.6071 9.99984 15.1488 11.4023 15.1488Z" fill="black"/>
  </g>
  <defs>
    <clipPath id="clip0_4643_38630">
      <rect width="22" height="22" fill="white" transform="translate(0.402344 0.482178)"/>
    </clipPath>
  </defs>
</svg>