<svg width="17" height="15" viewBox="0 0 17 15" fill="none" xmlns="http://www.w3.org/2000/svg">
<path d="M13.4376 2.5H3.67802C3.12336 2.5 2.59141 2.69754 2.19921 3.04917C1.80701 3.40081 1.58667 3.87772 1.58667 4.375V10.625C1.58667 11.1223 1.80701 11.5992 2.19921 11.9508C2.59141 12.3025 3.12336 12.5 3.67802 12.5H13.4376C13.9923 12.5 14.5242 12.3025 14.9164 11.9508C15.3086 11.5992 15.529 11.1223 15.529 10.625V4.375C15.529 3.87772 15.3086 3.40081 14.9164 3.04917C14.5242 2.69754 13.9923 2.5 13.4376 2.5ZM3.67802 3.75H13.4376C13.6225 3.75 13.7998 3.81585 13.9306 3.93306C14.0613 4.05027 14.1347 4.20924 14.1347 4.375V5H2.9809V4.375C2.9809 4.20924 3.05435 4.05027 3.18508 3.93306C3.31582 3.81585 3.49313 3.75 3.67802 3.75ZM14.1347 10.625C14.1347 10.7908 14.0613 10.9497 13.9306 11.0669C13.7998 11.1842 13.6225 11.25 13.4376 11.25H3.67802C3.49313 11.25 3.31582 11.1842 3.18508 11.0669C3.05435 10.9497 2.9809 10.7908 2.9809 10.625V6.25H14.1347V10.625ZM4.37513 9.375C4.37513 9.20924 4.44858 9.05027 4.57931 8.93306C4.71005 8.81585 4.88736 8.75 5.07225 8.75H9.25494C9.43983 8.75 9.61714 8.81585 9.74787 8.93306C9.87861 9.05027 9.95205 9.20924 9.95205 9.375C9.95205 9.54076 9.87861 9.69973 9.74787 9.81694C9.61714 9.93415 9.43983 10 9.25494 10H5.07225C4.88736 10 4.71005 9.93415 4.57931 9.81694C4.44858 9.69973 4.37513 9.54076 4.37513 9.375Z" fill="#2F353F"/>
</svg>
