<svg width="15" height="11" viewBox="0 0 15 11" fill="none" xmlns="http://www.w3.org/2000/svg">
<g id="Layer 88">
<path id="Vector" d="M12.4376 0.5H2.67802C2.12336 0.5 1.59141 0.697544 1.19921 1.04917C0.807008 1.40081 0.58667 1.87772 0.58667 2.375V8.625C0.58667 9.12228 0.807008 9.59919 1.19921 9.95083C1.59141 10.3025 2.12336 10.5 2.67802 10.5H12.4376C12.9923 10.5 13.5242 10.3025 13.9164 9.95083C14.3086 9.59919 14.529 9.12228 14.529 8.625V2.375C14.529 1.87772 14.3086 1.40081 13.9164 1.04917C13.5242 0.697544 12.9923 0.5 12.4376 0.5ZM2.67802 1.75H12.4376C12.6225 1.75 12.7998 1.81585 12.9306 1.93306C13.0613 2.05027 13.1347 2.20924 13.1347 2.375V3H1.9809V2.375C1.9809 2.20924 2.05435 2.05027 2.18508 1.93306C2.31582 1.81585 2.49313 1.75 2.67802 1.75ZM13.1347 8.625C13.1347 8.79076 13.0613 8.94973 12.9306 9.06694C12.7998 9.18415 12.6225 9.25 12.4376 9.25H2.67802C2.49313 9.25 2.31582 9.18415 2.18508 9.06694C2.05435 8.94973 1.9809 8.79076 1.9809 8.625V4.25H13.1347V8.625ZM3.37513 7.375C3.37513 7.20924 3.44858 7.05027 3.57931 6.93306C3.71005 6.81585 3.88736 6.75 4.07225 6.75H8.25494C8.43983 6.75 8.61714 6.81585 8.74787 6.93306C8.87861 7.05027 8.95205 7.20924 8.95205 7.375C8.95205 7.54076 8.87861 7.69973 8.74787 7.81694C8.61714 7.93415 8.43983 8 8.25494 8H4.07225C3.88736 8 3.71005 7.93415 3.57931 7.81694C3.44858 7.69973 3.37513 7.54076 3.37513 7.375Z" fill="white"/>
</g>
</svg>
