<svg width="30" height="20" viewBox="0 0 30 20" fill="none" xmlns="http://www.w3.org/2000/svg">
<path id="Vector" d="M16.25 8.57143C16.9917 8.57143 17.7167 8.32008 18.3334 7.84916C18.9501 7.37824 19.4307 6.7089 19.7145 5.92579C19.9984 5.14268 20.0726 4.28096 19.9279 3.44961C19.7833 2.61827 19.4261 1.85463 18.9017 1.25526C18.3772 0.65589 17.709 0.247716 16.9816 0.0823507C16.2542 -0.0830145 15.5002 0.00185695 14.8149 0.326232C14.1297 0.650608 13.544 1.19992 13.132 1.9047C12.7199 2.60948 12.5 3.43808 12.5 4.28572C12.5 5.42236 12.8951 6.51245 13.5983 7.31617C14.3016 8.1199 15.2554 8.57143 16.25 8.57143ZM16.25 2.85714C16.4972 2.85714 16.7389 2.94093 16.9445 3.0979C17.15 3.25488 17.3102 3.47799 17.4048 3.73903C17.4995 4.00006 17.5242 4.2873 17.476 4.56442C17.4277 4.84153 17.3087 5.09608 17.1339 5.29587C16.9591 5.49566 16.7363 5.63172 16.4939 5.68684C16.2514 5.74196 16.0001 5.71367 15.7716 5.60554C15.5432 5.49742 15.348 5.31432 15.2107 5.07939C15.0733 4.84446 15 4.56826 15 4.28572C15 3.90683 15.1317 3.54347 15.3661 3.27556C15.6005 3.00765 15.9185 2.85714 16.25 2.85714ZM21.3875 8.37143C22.1188 7.1729 22.5109 5.74688 22.5109 4.28572C22.5109 2.82455 22.1188 1.39853 21.3875 0.200001C21.747 0.0677349 22.1223 0.000259937 22.5 1.63202e-06C23.4946 1.63202e-06 24.4484 0.451531 25.1516 1.25526C25.8549 2.05899 26.25 3.14907 26.25 4.28572C26.25 5.42236 25.8549 6.51245 25.1516 7.31617C24.4484 8.1199 23.4946 8.57143 22.5 8.57143C22.1223 8.57117 21.747 8.5037 21.3875 8.37143ZM16.25 11.4286C8.75 11.4286 8.75 17.1429 8.75 17.1429V20H23.75V17.1429C23.75 17.1429 23.75 11.4286 16.25 11.4286ZM11.25 17.1429C11.25 16.7286 11.65 14.2857 16.25 14.2857C20.625 14.2857 21.175 16.5143 21.25 17.1429H11.25ZM30 17.1429V20H26.25V17.1429C26.2208 16.0809 26.0068 15.0363 25.6205 14.0699C25.2342 13.1035 24.6833 12.2347 24 11.5143C30 12.2143 30 17.1429 30 17.1429ZM10 10H6.25V14.2857H3.75V10H0V7.14286H3.75V2.85714H6.25V7.14286H10V10Z" fill="white"/>
</svg>
