<svg width="25" height="20" viewBox="0 0 25 20" fill="none" xmlns="http://www.w3.org/2000/svg">
<path id="Vector" d="M13.8375 8.54671C14.5968 7.41506 15.0051 6.05833 15.0051 4.66672C15.0051 3.27511 14.5968 1.91838 13.8375 0.786734C14.5481 0.269343 15.3896 -0.00504016 16.25 7.01051e-05C17.4103 7.01051e-05 18.5231 0.491734 19.3436 1.3669C20.1641 2.24207 20.625 3.42905 20.625 4.66672C20.625 5.90439 20.1641 7.09137 19.3436 7.96654C18.5231 8.84171 17.4103 9.33337 16.25 9.33337C15.3896 9.33848 14.5481 9.0641 13.8375 8.54671ZM4.375 4.66672C4.375 3.74374 4.63159 2.8415 5.11232 2.07407C5.59305 1.30664 6.27633 0.708506 7.07576 0.355298C7.87519 0.00209018 8.75485 -0.090325 9.60352 0.0897387C10.4522 0.269802 11.2317 0.714258 11.8436 1.3669C12.4554 2.01954 12.8721 2.85106 13.0409 3.7563C13.2097 4.66154 13.1231 5.59985 12.792 6.45257C12.4608 7.30529 11.9001 8.03412 11.1806 8.5469C10.4612 9.05968 9.61529 9.33337 8.75 9.33337C7.58968 9.33337 6.47688 8.84171 5.65641 7.96654C4.83594 7.09137 4.375 5.90439 4.375 4.66672ZM6.875 4.66672C6.875 5.06228 6.98497 5.44896 7.19099 5.77786C7.39702 6.10675 7.68986 6.3631 8.03247 6.51447C8.37508 6.66585 8.75208 6.70545 9.11579 6.62828C9.47951 6.55111 9.8136 6.36063 10.0758 6.08093C10.338 5.80123 10.5166 5.44486 10.589 5.0569C10.6613 4.66894 10.6242 4.26681 10.4823 3.90136C10.3404 3.53591 10.1 3.22355 9.79169 3.00379C9.48335 2.78403 9.12084 2.66673 8.75 2.66673C8.25272 2.66673 7.77581 2.87744 7.42417 3.25251C7.07254 3.62758 6.875 4.13629 6.875 4.66672ZM17.5 17.3333V20H0V17.3333C0 17.3333 0 12 8.75 12C17.5 12 17.5 17.3333 17.5 17.3333ZM15 17.3333C14.825 16.2933 13.3375 14.6667 8.75 14.6667C4.1625 14.6667 2.5875 16.4133 2.5 17.3333H15ZM17.4375 12C18.2036 12.6357 18.83 13.4425 19.2727 14.3638C19.7154 15.2852 19.9636 16.2988 20 17.3333V20H25V17.3333C25 17.3333 25 12.4934 17.425 12H17.4375Z" fill="white"/>
</svg>
