<?xml version="1.0" encoding="utf-8"?>
<!-- Generator: Adobe Illustrator 27.5.0, SVG Export Plug-In . SVG Version: 6.00 Build 0)  -->
<svg version="1.1" xmlns="http://www.w3.org/2000/svg" xmlns:xlink="http://www.w3.org/1999/xlink" x="0px" y="0px"
	 viewBox="0 0 500 500" style="enable-background:new 0 0 500 500;" xml:space="preserve">
<g id="BACKGROUND">
	<rect style="fill:none;" width="500" height="500"/>
</g>
<g id="OBJECTS">
	<g>
		<path style="fill:#C5E4F7;" d="M396.064,129.558c-27.618-23.556-241.246-37.365-265.616-30.867
			c-8.809,2.349-15.903,15.011-20.582,21.873c-22.22,32.589-39.341,69.488-53.831,106.06c-7.531,19.009-39.725,93.466-4.825,103.236
			c4.536,1.269,13.032-0.417,17.911-0.433c17.393-0.056,34.785-0.1,52.178-0.132c80.474-0.15,160.995-0.594,241.461,0.896
			c87.726,1.625,102.504-2.905,105.597-12.184C481.354,279.018,416.793,147.238,396.064,129.558z"/>
		<g>
			<g>
				<g>
					<path style="fill:#3DB885;" d="M66.772,294.044c-0.783,2.621-3.705,3.937-6.249,2.933c-1.438-0.567-2.826-1.825-3.272-4.493
						c-0.536-3.208,2.153-4.557-5.5-6.935c-6.149-1.911-6.058-5.674-5.341-10.457c0.717-4.783-0.239-5.74-5.022-8.849
						c-4.783-3.109-9.133-5.085-6.537-11.48c2.232-5.501,3.986-8.435,1.834-15.61c-2.152-7.174-2.631-11.718,1.674-12.436
						c4.305-0.717,7.414,2.631,8.849,6.696c1.435,4.066-0.478,6.935,4.066,10.283c4.544,3.348,8.849,3.348,10.762,8.609
						c1.913,5.261-5.022,13.392-2.152,16.501c2.87,3.109,8.37,4.544,8.37,9.088c0,4.544-5.508,7.283-2.55,11.227
						C67.615,291.674,67.115,292.895,66.772,294.044z"/>
					<path style="fill:#15A373;" d="M65.393,302.294c-1.573-6.901-3.518-13.761-5.638-20.554c0.732-0.878,1.233-2.163,1.724-3.119
						c0.686-1.334,1.32-2.691,1.982-4.036c0.178-0.362-0.39-0.724-0.618-0.376c-0.756,1.153-1.506,2.307-2.226,3.483
						c-0.418,0.682-0.979,1.457-1.426,2.255c-0.521-1.645-1.052-3.287-1.589-4.923c-1.949-5.937-4.037-11.837-6.284-17.68
						c0.664-0.949,1.271-1.944,1.91-2.906c0.721-1.086,1.534-2.16,2.122-3.324c0.202-0.399-0.373-0.65-0.638-0.366
						c-0.919,0.988-1.669,2.181-2.459,3.273c-0.479,0.662-0.976,1.312-1.458,1.972c-0.982-2.522-1.993-5.033-3.037-7.532
						c-1.178-2.818-2.437-5.598-3.741-8.36c0.636-2.301,1.143-4.628,1.714-6.945c0.086-0.348-0.429-0.487-0.535-0.146
						c-0.596,1.917-1.245,3.814-1.821,5.736c-0.878-1.837-1.773-3.666-2.675-5.494c-0.203-0.411-0.761-0.081-0.594,0.32
						c0.969,2.329,1.931,4.662,2.883,6.998c-1.338-1.084-2.712-2.116-4.055-3.199c-0.221-0.178-0.519,0.127-0.305,0.325
						c1.734,1.615,3.379,3.31,5.17,4.866c1.903,4.7,3.766,9.414,5.565,14.15c-1.022-0.37-2.106-0.63-3.112-0.938
						c-1.641-0.503-3.282-1.007-4.934-1.472c-0.456-0.128-0.692,0.628-0.249,0.799c1.595,0.617,3.208,1.189,4.82,1.761
						c1.304,0.462,2.67,1.082,4.048,1.362c2.717,7.215,5.281,14.479,7.617,21.813c-0.38-0.147-0.769-0.276-1.136-0.414
						c-0.716-0.268-1.442-0.504-2.167-0.749c-1.464-0.494-2.938-1.034-4.444-1.383c-0.401-0.093-0.744,0.494-0.325,0.706
						c1.547,0.784,3.218,1.356,4.834,1.978c1.138,0.438,2.437,1.053,3.681,1.265c0.594,1.892,1.174,3.789,1.736,5.691
						c1.515,5.131,2.854,10.298,4.288,15.448C64.266,303.469,65.597,303.19,65.393,302.294z"/>
				</g>
				<g>
					<path style="fill:#15A373;" d="M64.881,294.5c1.332,2.389,4.469,3.041,6.736,1.51c1.281-0.865,2.364-2.394,2.222-5.095
						c-0.171-3.248-3.089-3.982,3.868-7.962c5.59-3.197,4.686-6.851,2.949-11.365c-1.736-4.514-1.01-5.655,2.987-9.726
						c3.996-4.071,7.815-6.942,3.896-12.624c-3.37-4.887-5.718-7.372-5.171-14.842c0.547-7.47,0.03-12.01-4.328-11.778
						c-4.358,0.232-6.668,4.174-7.188,8.454c-0.52,4.28,1.969,6.667-1.742,10.92c-3.711,4.253-7.914,5.185-8.642,10.736
						c-0.728,5.551,7.804,11.987,5.675,15.644c-2.128,3.657-7.188,6.249-6.203,10.685c0.984,4.436,6.954,5.917,4.921,10.409
						C63.545,292.369,64.297,293.453,64.881,294.5z"/>
					<path style="fill:#0A8D5E;" d="M68.014,302.256c0.042-7.078,0.454-14.197,1.052-21.287c-0.905-0.698-1.672-1.845-2.358-2.671
						c-0.958-1.154-1.871-2.341-2.809-3.51c-0.253-0.315,0.224-0.791,0.522-0.501c0.987,0.962,1.97,1.926,2.928,2.918
						c0.556,0.575,1.272,1.21,1.881,1.893c0.153-1.719,0.315-3.436,0.485-5.151c0.617-6.219,1.377-12.43,2.306-18.621
						c-0.854-0.782-1.662-1.622-2.494-2.423c-0.939-0.904-1.965-1.776-2.792-2.786c-0.283-0.346,0.223-0.716,0.544-0.495
						c1.111,0.765,2.102,1.767,3.109,2.663c0.61,0.543,1.237,1.069,1.851,1.61c0.412-2.675,0.856-5.345,1.334-8.011
						c0.54-3.006,1.167-5.993,1.841-8.971c-1.119-2.108-2.118-4.271-3.178-6.409c-0.159-0.321,0.313-0.569,0.491-0.259
						c0.997,1.742,2.042,3.454,3.021,5.205c0.459-1.983,0.937-3.963,1.422-5.943c0.109-0.446,0.725-0.244,0.649,0.183
						c-0.441,2.484-0.875,4.969-1.299,7.456c1.071-1.348,2.19-2.653,3.266-4.001c0.177-0.221,0.534,0.011,0.369,0.251
						c-1.343,1.953-2.582,3.963-3.993,5.871c-0.84,5-1.638,10.006-2.368,15.019c0.917-0.582,1.92-1.071,2.835-1.59
						c1.493-0.846,2.986-1.694,4.499-2.505c0.417-0.224,0.812,0.463,0.417,0.726c-1.423,0.948-2.874,1.856-4.324,2.763
						c-1.173,0.734-2.373,1.635-3.657,2.206c-1.09,7.632-2.02,15.279-2.712,22.945c0.339-0.226,0.69-0.436,1.02-0.65
						c0.641-0.417,1.299-0.805,1.953-1.2c1.322-0.8,2.644-1.646,4.039-2.313c0.372-0.178,0.833,0.321,0.47,0.619
						c-1.34,1.1-2.847,2.021-4.291,2.978c-1.016,0.674-2.151,1.556-3.32,2.033c-0.17,1.976-0.326,3.954-0.462,5.932
						c-0.368,5.337-0.556,10.672-0.84,16.01C69.369,303.158,68.009,303.175,68.014,302.256z"/>
				</g>
				<g>
					<path style="fill:#FFFFFF;" d="M81.476,295.724c0,0-0.89,24.017-2.003,28.02c-1.111,4.002-2.667,4.892-6.226,4.892H55.013
						c-2.891,0-5.338-2.669-6.005-7.116c-0.667-4.447-0.445-25.796-0.445-25.796H81.476z"/>
					<path style="fill:#A6BDE2;" d="M60.723,328.636h-5.71c-2.891,0-5.338-2.669-6.005-7.116
						c-0.667-4.447-0.445-25.796-0.445-25.796h9.761v26.415C58.325,324.263,59.498,326.711,60.723,328.636z"/>
				</g>
			</g>
			<g>
				<g>
					<path style="fill:#3DB885;" d="M433.972,294.044c-0.783,2.621-3.704,3.937-6.249,2.933c-1.438-0.567-2.826-1.825-3.272-4.493
						c-0.536-3.208,2.153-4.557-5.5-6.935c-6.149-1.911-6.058-5.674-5.341-10.457c0.717-4.783-0.239-5.74-5.022-8.849
						c-4.783-3.109-9.133-5.085-6.537-11.48c2.232-5.501,3.986-8.435,1.834-15.61c-2.152-7.174-2.631-11.718,1.674-12.436
						c4.305-0.717,7.414,2.631,8.849,6.696s-0.478,6.935,4.066,10.283c4.544,3.348,8.849,3.348,10.762,8.609
						c1.913,5.261-5.022,13.392-2.152,16.501c2.87,3.109,8.37,4.544,8.37,9.088c0,4.544-5.508,7.283-2.55,11.227
						C434.815,291.674,434.316,292.895,433.972,294.044z"/>
					<path style="fill:#15A373;" d="M432.594,302.294c-1.573-6.901-3.518-13.761-5.638-20.554c0.732-0.878,1.233-2.163,1.724-3.119
						c0.686-1.334,1.32-2.691,1.982-4.036c0.178-0.362-0.39-0.724-0.618-0.376c-0.756,1.153-1.506,2.307-2.226,3.483
						c-0.418,0.682-0.98,1.457-1.426,2.255c-0.522-1.645-1.052-3.287-1.589-4.923c-1.949-5.937-4.037-11.837-6.284-17.68
						c0.664-0.949,1.271-1.944,1.91-2.906c0.721-1.086,1.534-2.16,2.122-3.324c0.202-0.399-0.373-0.65-0.638-0.366
						c-0.919,0.988-1.669,2.181-2.459,3.273c-0.479,0.662-0.976,1.312-1.458,1.972c-0.982-2.522-1.993-5.033-3.037-7.532
						c-1.178-2.818-2.437-5.598-3.741-8.36c0.636-2.301,1.143-4.628,1.714-6.945c0.086-0.348-0.429-0.487-0.535-0.146
						c-0.596,1.917-1.245,3.814-1.821,5.736c-0.878-1.837-1.773-3.666-2.675-5.494c-0.203-0.411-0.761-0.081-0.594,0.32
						c0.969,2.329,1.931,4.662,2.883,6.998c-1.338-1.084-2.713-2.116-4.055-3.199c-0.22-0.178-0.518,0.127-0.305,0.325
						c1.734,1.615,3.379,3.31,5.17,4.866c1.904,4.7,3.766,9.414,5.565,14.15c-1.022-0.37-2.106-0.63-3.112-0.938
						c-1.641-0.503-3.282-1.007-4.934-1.472c-0.456-0.128-0.692,0.628-0.249,0.799c1.595,0.617,3.208,1.189,4.82,1.761
						c1.304,0.462,2.67,1.082,4.048,1.362c2.717,7.215,5.281,14.479,7.617,21.813c-0.38-0.147-0.769-0.276-1.136-0.414
						c-0.716-0.268-1.442-0.504-2.167-0.749c-1.464-0.494-2.938-1.034-4.444-1.383c-0.401-0.093-0.744,0.494-0.324,0.706
						c1.547,0.784,3.217,1.356,4.834,1.978c1.138,0.438,2.436,1.053,3.681,1.265c0.594,1.892,1.174,3.789,1.736,5.691
						c1.515,5.131,2.854,10.298,4.288,15.448C431.466,303.469,432.798,303.19,432.594,302.294z"/>
				</g>
				<g>
					<path style="fill:#15A373;" d="M432.082,294.5c1.332,2.389,4.469,3.041,6.736,1.51c1.281-0.865,2.364-2.394,2.222-5.095
						c-0.171-3.248-3.089-3.982,3.868-7.962c5.59-3.197,4.686-6.851,2.949-11.365c-1.736-4.514-1.01-5.655,2.987-9.726
						c3.996-4.071,7.815-6.942,3.896-12.624c-3.371-4.887-5.718-7.372-5.171-14.842s0.03-12.01-4.328-11.778
						c-4.358,0.232-6.668,4.174-7.188,8.454c-0.52,4.28,1.969,6.667-1.742,10.92c-3.711,4.253-7.913,5.185-8.642,10.736
						c-0.728,5.551,7.803,11.987,5.675,15.644c-2.128,3.657-7.188,6.249-6.203,10.685c0.984,4.436,6.954,5.917,4.921,10.409
						C430.746,292.369,431.498,293.453,432.082,294.5z"/>
					<path style="fill:#0A8D5E;" d="M435.215,302.256c0.042-7.078,0.454-14.197,1.053-21.287c-0.905-0.698-1.672-1.845-2.358-2.671
						c-0.958-1.154-1.871-2.341-2.809-3.51c-0.253-0.315,0.224-0.791,0.522-0.501c0.987,0.962,1.97,1.926,2.928,2.918
						c0.556,0.575,1.272,1.21,1.88,1.893c0.153-1.719,0.315-3.436,0.485-5.151c0.617-6.219,1.377-12.43,2.306-18.621
						c-0.854-0.782-1.662-1.622-2.494-2.423c-0.939-0.904-1.965-1.776-2.792-2.786c-0.283-0.346,0.223-0.716,0.543-0.495
						c1.111,0.765,2.102,1.767,3.109,2.663c0.611,0.543,1.237,1.069,1.851,1.61c0.413-2.675,0.856-5.345,1.334-8.011
						c0.539-3.006,1.167-5.993,1.841-8.971c-1.119-2.108-2.118-4.271-3.178-6.409c-0.159-0.321,0.313-0.569,0.491-0.259
						c0.997,1.742,2.042,3.454,3.021,5.205c0.459-1.983,0.936-3.963,1.422-5.943c0.109-0.446,0.725-0.244,0.649,0.183
						c-0.441,2.484-0.875,4.969-1.299,7.456c1.071-1.348,2.19-2.653,3.266-4.001c0.177-0.221,0.534,0.011,0.369,0.251
						c-1.343,1.953-2.582,3.963-3.993,5.871c-0.841,5-1.638,10.006-2.368,15.019c0.917-0.582,1.92-1.071,2.835-1.59
						c1.493-0.846,2.986-1.694,4.499-2.505c0.417-0.224,0.811,0.463,0.416,0.726c-1.423,0.948-2.874,1.856-4.324,2.763
						c-1.173,0.734-2.373,1.635-3.657,2.206c-1.09,7.632-2.02,15.279-2.712,22.945c0.339-0.226,0.69-0.436,1.02-0.65
						c0.641-0.417,1.299-0.805,1.953-1.2c1.322-0.8,2.645-1.646,4.039-2.313c0.372-0.178,0.833,0.321,0.47,0.619
						c-1.34,1.1-2.847,2.021-4.291,2.978c-1.016,0.674-2.151,1.556-3.32,2.033c-0.17,1.976-0.325,3.954-0.462,5.932
						c-0.368,5.337-0.556,10.672-0.84,16.01C436.57,303.158,435.209,303.175,435.215,302.256z"/>
				</g>
				<g>
					<path style="fill:#FFFFFF;" d="M448.676,295.724c0,0-0.89,24.017-2.003,28.02c-1.111,4.002-2.667,4.892-6.226,4.892h-18.234
						c-2.891,0-5.338-2.669-6.005-7.116c-0.667-4.447-0.445-25.796-0.445-25.796H448.676z"/>
					<path style="fill:#A6BDE2;" d="M427.924,328.636h-5.71c-2.891,0-5.338-2.669-6.005-7.116
						c-0.667-4.447-0.445-25.796-0.445-25.796h9.761v26.415C425.525,324.263,426.699,326.711,427.924,328.636z"/>
				</g>
			</g>
			<path style="fill:#E25263;" d="M363.677,254.843l-21.327-0.171l-18.693-0.148c0,0,6.218-3.348,8.291-3.986
				c0.861-0.265,4.88-1.326,9.289-2.476c6.21-1.623,13.192-3.423,13.192-3.423s10.523-22.163,14.214-24.714
				c3.691-2.551,7.31-3.029,10.818,0.797C382.97,224.549,363.677,254.843,363.677,254.843z"/>
			<path style="fill:#FFC767;" d="M342.35,254.672l-18.693-0.148c0,0,6.218-3.348,8.291-3.986c0.861-0.265,4.88-1.326,9.289-2.476
				L342.35,254.672z"/>
			<path style="fill:#FFFFFF;" d="M170.349,228.535l-2.781,23.81H140.15v1.04c0,0.541,0.439,0.98,0.98,0.98h26.591
				c0.48,0,0.879-0.346,0.963-0.802h0.017l2.775-23.76C171.555,229.127,171.028,228.535,170.349,228.535z"/>
			<g>
				<g>
					<g>
						<rect x="179.072" y="236.284" style="fill:#2B2950;" width="18.176" height="38.503"/>
						<path style="fill:#2B2950;" d="M207.713,264.808h-33.945c-2.551,0-4.62-2.068-4.62-4.619v-30.569
							c0-2.551,2.068-4.62,4.62-4.62h33.945c2.551,0,4.619,2.068,4.619,4.62v30.569
							C212.332,262.739,210.264,264.808,207.713,264.808z"/>
					</g>
					<g>
						<rect x="202.289" y="276.7" style="fill:#A6BDE2;" width="3.587" height="46.961"/>
						<polygon style="fill:#E7F5FD;" points="206.788,300.709 201.686,300.709 201.686,324.341 206.894,324.341 						"/>
						<polygon style="fill:#2B2950;" points="232.708,325.965 229.929,321.166 180.258,321.166 177.132,326.157 						"/>
					</g>
					<g>
						<path style="fill:#1F1F39;" d="M235.034,278.613h-60.505l0,0c0-2.902,2.352-5.254,5.254-5.254h49.998
							C232.682,273.359,235.034,275.712,235.034,278.613L235.034,278.613z"/>
						<path style="fill:#2B2950;" d="M174.529,278.613L174.529,278.613c0,1.93,1.564,3.494,3.494,3.494h15.979
							c1.93,0,3.494-1.564,3.494-3.494l0,0H174.529z"/>
					</g>
				</g>
				<g>
					<g>
						<path style="fill:#2B2950;" d="M189.205,188.595c-1.068,0.107-1.475,0.757-2.192,2.551s-1.714,2.033-2.83,2.232
							c-1.116,0.199-1.796,0.221-2.206,1.143c-0.797,1.794,0.85,2.803,0.531,3.76c-0.319,0.957-0.399,1.475-1.634,2.671
							c-1.236,1.196-0.16,2.591,0.717,3.109c0.877,0.518,1.156,1.395,1.076,2.392c-0.08,0.997-0.16,1.953,0.837,2.192
							c0.997,0.239,2.073-0.399,2.87,0.438c0.797,0.837,0.957,1.515,2.671,1.993c1.714,0.478,3.585-1.312,5.421-1.395
							c2.631-0.119,3.468,1.834,5.7,1.355c1.183-0.254,0.877-1.913,2.671-2.272c1.794-0.359,2.312-0.478,2.551-1.355
							c0.239-0.877-0.837-2.392,0.04-3.867c0.877-1.475,2.711-1.953,2.95-3.269c0.239-1.315-1.754-2.312-2.591-3.587
							c-0.837-1.275-0.877-4.225-1.515-5.222c-0.638-0.997-2.631-0.239-3.747-0.718c-1.116-0.478-1.807-1.86-3.428-1.953
							c-1.179-0.068-2.631,1.103-4.544,0.678C191.283,189.189,190.401,188.475,189.205,188.595z"/>
						<g>
							<g>
								<path style="fill:#FFC767;" d="M201.083,213.866c-3.694,4.544-10.231,4.092-13.739-0.106
									c2.418-0.664,3.07-2.013,3.713-3.797c0.199-0.552,0.322-1.081,0.394-1.567c0.226-1.529-0.054-2.621-0.054-2.621
									s2.87-2.232,6.059,0.08c-0.124,1.266-0.147,2.291-0.072,3.14C197.624,211.701,198.869,212.623,201.083,213.866z"/>
								<path style="fill:#F6B54C;" d="M197.384,208.994c-0.938,0.483-1.961,0.808-2.918,0.687c-1.36-0.174-2.352-0.741-3.015-1.285
									c0.226-1.529-0.054-2.621-0.054-2.621s2.87-2.232,6.059,0.08C197.332,207.12,197.309,208.145,197.384,208.994z"/>
							</g>
							<g>
								<g>
									<path style="fill:#FFC767;" d="M189.09,200.53c-0.075-0.15-0.833-1.662-2.038-0.914c-1.315,0.817,0.046,3.657,1.324,3.769
										s1.54-0.601,1.54-0.601L189.09,200.53z"/>
									<path style="fill:#F1A029;" d="M187.172,201.071c0,0-0.259-0.877,0.399-1.056c0.568-0.155,1.016,0.458,1.555,1.096
										c0.06,0.518,0.06,0.518,0.06,0.518s-0.925-0.378-0.937,0.06c-0.02,0.757,0.996,0.777,0.996,0.777l0.08,0.359
										c0,0-1.822-0.046-1.555-1.295c0.12-0.558,1.076-0.339,1.076-0.339s-0.478-0.698-0.977-0.678
										C187.39,200.532,187.172,201.071,187.172,201.071z"/>
								</g>
								<g>
									<path style="fill:#FFC767;" d="M199.87,200.53c0.075-0.15,0.833-1.662,2.038-0.914c1.315,0.817-0.046,3.657-1.324,3.769
										c-1.278,0.113-1.541-0.601-1.541-0.601L199.87,200.53z"/>
									<path style="fill:#F1A029;" d="M201.788,201.071c0,0,0.259-0.877-0.399-1.056c-0.568-0.155-1.016,0.458-1.555,1.096
										c-0.06,0.518-0.06,0.518-0.06,0.518s0.925-0.378,0.937,0.06c0.02,0.757-0.996,0.777-0.996,0.777l-0.08,0.359
										c0,0,1.822-0.046,1.555-1.295c-0.12-0.558-1.076-0.339-1.076-0.339s0.478-0.698,0.977-0.678
										C201.57,200.532,201.788,201.071,201.788,201.071z"/>
								</g>
								<g>
									<path style="fill:#FFC767;" d="M200.226,200.269c-0.274,1.786-0.743,3.849-1.553,5.346c-1.65,3.048-5.698,2.878-7.32,0.993
										c-1.376-1.602-2.248-4.461-2.516-6.996c0.319-0.043,0.622-0.218,0.804-0.486c0.195-0.289,0.244-0.649,0.365-0.974
										c0.121-0.327,0.367-0.657,0.714-0.684c0.343-0.025,0.58,0.003,0.923,0.037c0.556,0.053,1.189-0.108,1.625-0.472
										c0.193-0.159,0.258-0.384,0.448-0.555c0.523-0.47,1.134-0.313,1.764-0.454c0.62-0.139,1.202-0.446,1.658-0.888
										c-0.226,0.313-0.116,0.77,0.131,1.068c0.245,0.297,0.598,0.482,0.92,0.694c0.324,0.212,0.639,0.485,0.741,0.856
										c0.089,0.328-0.003,0.678,0.032,1.014c0.046,0.462,0.333,0.877,0.698,1.164
										C199.833,200.067,200.025,200.177,200.226,200.269z"/>
									<path style="fill:#FFFFFF;" d="M196.751,202.992c0,0-0.926,2.019-2.359,1.676c-1.432-0.343-1.989-1.593-1.989-1.593
										L196.751,202.992z"/>
									<path style="fill:#F1A029;" d="M195.049,202.148h-0.742c-0.088,0-0.159-0.072-0.159-0.16c0-0.088,0.071-0.16,0.159-0.16
										h0.742c0.118,0,0.215-0.096,0.215-0.215v-2.868c0-0.088,0.071-0.16,0.159-0.16c0.088,0,0.159,0.072,0.159,0.16v2.868
										C195.582,201.908,195.343,202.148,195.049,202.148z"/>
									<g>
										<path style="fill:#282952;" d="M192.483,199.53c-0.769,0-0.84,1.196-0.067,1.196
											C193.184,200.726,193.256,199.53,192.483,199.53z"/>
										<path style="fill:#282952;" d="M191.566,199.078c0,0,0.278-0.315,0.714-0.382c0.556-0.085,0.837,0.03,0.837,0.03
											s-0.173-0.449-0.698-0.488C192.061,198.212,191.619,198.415,191.566,199.078z"/>
									</g>
									<g>
										<path style="fill:#282952;" d="M197.47,199.45c-0.769,0-0.84,1.196-0.067,1.196
											C198.171,200.646,198.243,199.45,197.47,199.45z"/>
										<path style="fill:#282952;" d="M198.403,199.111c0,0-0.278-0.315-0.714-0.382c-0.556-0.085-0.837,0.03-0.837,0.03
											s0.173-0.449,0.698-0.488C197.908,198.245,198.35,198.449,198.403,199.111z"/>
									</g>
									<g>
										<path style="fill:#F6B54C;" d="M195.37,205.496c-0.241-0.414-1.993-0.213-1.382,0.186
											C194.599,206.08,195.556,205.814,195.37,205.496z"/>
									</g>
								</g>
							</g>
						</g>
					</g>
					<g>
						<g>
							<path style="fill:#FFC767;" d="M258.124,325.583h-22.362c0,0-0.019-0.631,0.158-1.808c0.043-0.284,0.081-0.566,0.118-0.85
								c0.556-4.391,0.332-8.849-0.698-13.159c-0.77-3.224-1.543-6.615-1.918-10.294c-0.188-1.85-0.274-3.771-0.21-5.778
								c9.779,0,12.967,0.319,12.967,0.319l-0.509,6.912l-1.18,16.038c-0.069,0.925,0.512,1.771,1.397,2.046
								c1.158,0.357,2.782,0.902,4.146,1.524c2.54,1.158,6.258,2.594,8.396,4.066C258.865,324.899,258.653,325.583,258.124,325.583z
								"/>
							<path style="fill:#F6B54C;" d="M246.178,294.013l-0.509,6.912l-12.248-1.452c-0.188-1.85-0.274-3.771-0.21-5.778
								C242.99,293.694,246.178,294.013,246.178,294.013z"/>
							<path style="fill:#B14D53;" d="M258.124,325.583h-22.361c0,0-0.019-0.631,0.158-1.808c0.043-0.284,0.081-0.566,0.118-0.85
								h10.387c0,0,1.44-1.55,3.607-2.392c2.541,1.159,6.263,2.596,8.4,4.068C258.867,324.901,258.651,325.583,258.124,325.583z"/>
						</g>
						<g>
							<path style="fill:#E25263;" d="M188.898,263.614c0.491-2.927,3.1-5.025,6.067-5c4.782,0.041,13.65,0.134,18.842,0.299
								c16.788,2.395,27.004,5.723,30.751,9.709c3.747,3.986,2.445,25.284,2.445,25.284h-14.908c0,0-0.904-5.74-0.266-14.988
								c-14.908-0.239-27.273-3.143-32.34-5.102C194.818,272.01,188.006,268.939,188.898,263.614z"/>
							<polygon style="fill:#C14053;" points="230.766,292.312 247.773,292.418 247.814,296.608 230.27,296.505 							"/>
						</g>
					</g>
					<g>
						<g>
							<g>
								<path style="fill:#FFC767;" d="M237.285,220.026c-0.748,3.12-1.881,6.266-2.75,8.458c-0.706,1.786-1.236,2.942-1.236,2.942
									l-5.979-3.348l2.09-3.211l5.643-8.667C235.053,216.199,236.727,217.794,237.285,220.026z"/>
								<path style="fill:#F6B54C;" d="M234.535,228.484c-0.706,1.786-1.236,2.942-1.236,2.942l-5.979-3.348l2.09-3.211
									L234.535,228.484z"/>
							</g>
							<g>
								<path style="fill:#FFC767;" d="M244.407,217.954c0,0.006-0.002,0.011-0.002,0.017c-0.008,0.08-0.038,0.188-0.089,0.319
									c-0.021,0.054-0.045,0.113-0.073,0.175c-0.129,0.293-0.33,0.665-0.577,1.067c-0.097,0.163-0.204,0.33-0.317,0.499
									c-0.002,0-0.002,0-0.002,0c-0.219,0.325-0.458,0.657-0.706,0.973c-0.142,0.179-0.285,0.351-0.432,0.515
									c-0.631,0.714-1.287,1.252-1.787,1.271c-0.869,0.033-3.187,0.025-4.79,0.014c-0.566-0.005-1.086-0.223-1.477-0.583
									c-0.379-0.351-0.638-0.834-0.697-1.384c-0.059-0.552-0.038-1.154,0.159-1.714c0.585-1.647,3.562-2.364,3.562-2.364
									s0.337-0.019,0.869-0.045c1.937-0.096,6.566-0.094,6.784,0.045C245.324,217.07,244.833,217.794,244.407,217.954z"/>
								<path style="fill:#F6B54C;" d="M238.049,216.713c-0.019,1.048-0.878,2.697-1.082,3.233c-0.242,0.639-3.449,1.44-3.508,0.89
									c-0.059-0.552-0.038-1.154,0.159-1.714c0.585-1.647,3.562-2.364,3.562-2.364S237.516,216.738,238.049,216.713z"/>
								<path style="fill:#FFC767;" d="M235.368,215.594c0.513-0.361,5.505-0.591,5.638-0.405c0.133,0.186,0.02,0.777-0.644,1.043
									c-0.664,0.266-3.182,0.525-3.182,0.525s-0.85,1.727-1.196,2.285c-0.345,0.558-2.469,1.643-2.657,1.295
									C232.569,218.943,234.564,216.159,235.368,215.594z"/>
								<path style="fill:#F6B54C;" d="M244.406,217.971c-0.008,0.08-0.038,0.188-0.089,0.319c-0.021,0.054-0.045,0.113-0.073,0.175
									c-1.427-0.019-3.943-0.056-4.378-0.056c-0.612,0-0.585-0.218-0.585-0.403C239.28,217.85,243.219,217.941,244.406,217.971z"
									/>
								<path style="fill:#F6B54C;" d="M243.666,219.532c-0.097,0.163-0.204,0.33-0.317,0.499c-0.002,0-0.002,0-0.002,0
									c-1.402-0.019-3.128-0.043-3.482-0.043c-0.612,0-0.725-0.282-0.585-0.403C239.445,219.441,242.076,219.497,243.666,219.532z
									"/>
								<path style="fill:#F6B54C;" d="M242.641,221.004c-0.142,0.179-0.285,0.351-0.432,0.515
									c-1.075-0.014-2.082-0.027-2.344-0.027c-0.612,0-0.725-0.284-0.585-0.403C239.516,220.886,241.174,220.951,242.641,221.004z
									"/>
								<path style="fill:#F6B54C;" d="M239.504,217.368c0,0.1,0,4.664,0,4.664s-0.502-0.656-0.538-1.913
									C238.906,218.066,239.504,217.368,239.504,217.368z"/>
							</g>
						</g>
						<path style="fill:#65498E;" d="M234.398,229.903c-2.39,6.623-5.884,11.828-6.815,13.409c-1.704,2.894-3.472,3.538-9.181-0.271
							c-13.32-8.889-13.84-22.411-12.287-24.841c1.553-2.432,3.511-0.405,3.511-0.405l13.5,14.378l4.696-6.102L234.398,229.903z"/>
					</g>
					<g>
						<path style="fill:#7A57A3;" d="M213.807,258.914c0,0-7.988-0.257-13.482-0.171c-0.399,0.006-0.784,0.014-1.153,0.024
							c-1.076,0.03-2.006,0.076-2.69,0.147c-4.146,0.426-10.204,2.87-13.393,9.779c-2.444-3.932-2.125-14.879-2.125-14.879
							l-7.653-0.107c0,0-0.743-26.891,2.02-31.992c1.835-3.39,6.534-5.786,9.48-7.014c0.585-0.244,1.102-0.442,1.513-0.591
							l0.006-0.002c0.633-0.23,1.014-0.348,1.014-0.348s0.769,0.006,1.972,0.027c1.124,0.812,3.096,2.057,5.349,2.671
							c0.214-0.037,0.424-0.081,0.631-0.132c1.783-0.442,3.32-1.406,4.273-2.119c1.784,0.143,3.235,0.332,3.865,0.577
							c0.319,0.124,0.714,0.263,1.162,0.421c2.86,1.005,4.96,1.529,5.973,4.562C211.739,223.273,213.807,258.914,213.807,258.914z"
							/>
						<path style="fill:#65498E;" d="M200.324,258.743c-0.399,0.006-0.784,0.014-1.153,0.024l-4.506-42.31
							c0.214-0.037,0.424-0.081,0.631-0.132L200.324,258.743z"/>
						<path style="fill:#65498E;" d="M204.598,215.204c-0.713,2.18-3.272,7.143-5.667,7.379c-2.711,0.265-4.305-3.508-4.305-3.508
							s-1.063,3.348-3.667,3.772c-3.669,0.6-5.657-6.196-6.148-8.148c0.585-0.244,1.102-0.442,1.513-0.591l0.006-0.002
							c0.633-0.23,1.014-0.348,1.014-0.348s0.769,0.006,1.972,0.027c1.124,0.812,3.096,2.057,5.349,2.671
							c2.049-0.346,3.839-1.456,4.904-2.251c1.784,0.143,3.235,0.332,3.865,0.577C203.754,214.908,204.149,215.046,204.598,215.204z
							"/>
						<path style="fill:#FFFFFF;" d="M194.666,216.457c-0.85,1.941-2.012,4.46-3.973,3.973c-3.799-0.944-4.704-6.138-4.704-6.138
							l0.335-0.183l0.006-0.002l1.998-1.091c0,0,0.362,0.317,0.988,0.77C190.441,214.598,192.413,215.843,194.666,216.457z"/>
						<path style="fill:#FFFFFF;" d="M203.435,214.783c0,0-2.352,5.102-4.903,5.501c-2.551,0.399-3.867-3.827-3.867-3.827
							c2.049-0.346,3.839-1.456,4.904-2.251c0.654-0.488,1.035-0.858,1.035-0.858L203.435,214.783z"/>
					</g>
					<g>
						<g>
							<path style="fill:#FFC767;" d="M207.125,322.043c1.47-1.204,3.264-2.604,5.359-4.114c-2.902-7.478-4.632-13.345-5.651-17.539
								c-0.923-3.795-1.264-6.218-1.365-7.229c9.46,0,13.5,0.533,13.5,0.533l0.035,5.48l0.159,24.321l0.017,2.725h-16.794
								C202.386,326.22,204.043,324.564,207.125,322.043z"/>
							<path style="fill:#F6B54C;" d="M218.968,293.694l0.035,5.48l-12.17,1.217c-0.923-3.795-1.264-6.218-1.365-7.229
								C214.928,293.162,218.968,293.694,218.968,293.694z"/>
							<path style="fill:#B14D53;" d="M219.18,326.22h-16.794c0,0,1.657-1.657,4.739-4.177c1.11-0.43,2.519-0.84,3.817-0.819
								c3.184,0.051,5.807,1.17,8.221,2.272L219.18,326.22z"/>
						</g>
						<g>
							<path style="fill:#F0646F;" d="M219.709,295.343h-14.916c0,0-2.132-6.885,0.655-16.721
								c-10.549-2.522-18.247-4.633-21.536-8.706c-1.274-1.577-1.754-3.436-1.706-5.748c0.005-0.252,0.016-0.51,0.033-0.772
								c0.019-0.287,0.065-0.558,0.139-0.813c1.561-5.533,15.091-4.066,19.792-2.811c0,0,13.112,3.114,16.064,8.195
								C221.184,273.05,219.709,295.343,219.709,295.343z"/>
							<path style="fill:#E25263;" d="M208.321,295.343h-1.477c-0.164-5.323-0.191-14,0.985-20.267
								c0.097-0.518-0.24-1.015-0.757-1.113c-7.889-1.492-19.111-4.915-24.865-9.794c0.005-0.252,0.016-0.51,0.033-0.772
								c0.019-0.287,0.065-0.558,0.139-0.813c2.999,2.524,11.104,7.416,25.162,9.798c1.086,0.184,1.832,0.607,1.701,1.701
								C208.551,279.822,207.746,288.815,208.321,295.343z"/>
							<polygon style="fill:#E25263;" points="203.316,291.754 220.057,292.631 220.456,296.298 202.439,296.298 							"/>
						</g>
					</g>
					<g>
						<path style="fill:#65498E;" d="M175.33,221.714c1.195-2.368,7.51-2.48,7.923,4.951s0.619,25.387-1.342,27.554
							c-1.961,2.167-8.153,2.683-9.391-1.238C171.282,249.058,172.567,227.186,175.33,221.714z"/>
						<g>
							<g>
								<path style="fill:#FFC767;" d="M191.756,237.225c0,0-0.686,2.1-1.881,4.884c-2.216,5.164-6.188,12.685-10.794,13.532
									c-6.936,1.276-8.736-3.841-6.139-6.537c2.621-2.722,7.998-7.581,11.598-10.789c2.097-1.867,3.591-3.173,3.591-3.173
									L191.756,237.225z"/>
								<path style="fill:#65498E;" d="M189.875,242.108c-2.216,5.164-6.188,12.685-10.794,13.532
									c-6.936,1.276-8.736-3.841-6.139-6.537c2.621-2.722,7.998-7.581,11.598-10.789c0.198,0.595,0.708,1.682,1.955,2.658
									C187.599,241.836,188.964,242.064,189.875,242.108z"/>
							</g>
							<g>
								<path style="fill:#FFC767;" d="M187.644,230.729c0.603-0.534,1.634,0.085,1.634,0.085s0.776-1.905,2.018-0.617
									c0.367-1.671,1.448-1.321,1.89-0.553c0.357-1.251,1.714-1.554,2.008-0.548c0.416,1.426-1.62,7.65-2.429,8.413
									c-0.808,0.763-3.63,0.971-4.95,0.346C186.494,237.231,187.041,231.263,187.644,230.729z"/>
								<path style="fill:#F6B54C;" d="M195.143,236.182c0.306-0.648,0.296-2.059,0.296-2.059s2.323-2.055,1.837-2.584
									c-0.486-0.529-2.206,0.316-2.726,0.966c-0.52,0.65-1.012,2.425-1.012,2.425s-1.614-0.223-2.572,0.794
									c-0.958,1.016-1.806,2.503-1.148,2.525C190.681,238.277,194.498,237.546,195.143,236.182z"/>
								<path style="fill:#F6B54C;" d="M189.277,230.814c0.119,0.589-0.358,3.856-1.31,3.847c-0.891-0.009-1.083-1.126-0.539-3.893
									C187.752,229.927,189.087,229.876,189.277,230.814z"/>
								<path style="fill:#F6B54C;" d="M193.721,229.877c0.138,1.134,0.237,2.892,1.071,3.059c0.818,0.164,1.066-2.937,0.575-3.783
									C194.67,227.949,193.542,228.413,193.721,229.877z"/>
								<path style="fill:#F6B54C;" d="M191.295,230.197c-0.071,0.983-0.048,3.626,1,3.656c1.048,0.03,1.045-3.571,0.845-4.227
									C192.941,228.969,191.438,228.226,191.295,230.197z"/>
								<path style="fill:#F6B54C;" d="M189.336,230.541c-0.325,1.529-0.344,3.729,0.64,3.798c1.032,0.072,1.392-3.663,1.319-4.142
									C191.18,229.452,189.661,229.012,189.336,230.541z"/>
							</g>
						</g>
					</g>
				</g>
			</g>
			<g>
				<g>
					<g>
						<rect x="254.796" y="235.114" style="fill:#2B2950;" width="18.175" height="38.503"/>
						<path style="fill:#2B2950;" d="M283.437,263.638h-33.945c-2.551,0-4.62-2.068-4.62-4.62V228.45
							c0-2.551,2.068-4.619,4.62-4.619h33.945c2.551,0,4.619,2.068,4.619,4.619v30.569
							C288.056,261.57,285.988,263.638,283.437,263.638z"/>
					</g>
					<g>
						<rect x="278.013" y="275.531" style="fill:#A6BDE2;" width="3.587" height="46.962"/>
						<polygon style="fill:#E7F5FD;" points="282.512,299.54 277.409,299.54 277.409,323.172 282.618,323.172 						"/>
						<polygon style="fill:#2B2950;" points="308.432,324.796 305.653,319.997 255.982,319.997 252.855,324.988 						"/>
					</g>
					<g>
						<path style="fill:#1F1F39;" d="M310.758,277.444h-60.505l0,0c0-2.902,2.352-5.254,5.254-5.254h49.998
							C308.405,272.19,310.758,274.543,310.758,277.444L310.758,277.444z"/>
						<path style="fill:#2B2950;" d="M250.252,277.444L250.252,277.444c0,1.93,1.564,3.494,3.494,3.494h15.979
							c1.93,0,3.494-1.564,3.494-3.494l0,0H250.252z"/>
					</g>
				</g>
				<g>
					<g>
						<path style="fill:#1F1F39;" d="M296.866,259.706c0,0,21.684,5.287,23.916,7.998c2.232,2.711-9.407,55.167-9.407,55.167
							l-16.369-1.647l5.592-44.365c0,0-25.257-4.531-25.895-5.169c-0.638-0.638-5.899-9.885-2.551-12.915
							c1.567-1.418,2.627-2.701,4.708-3.065c2.082-0.364,4.219-0.08,6.299,0.294C287.812,256.84,292.46,257.994,296.866,259.706z"/>
						<path style="fill:#B14D53;" d="M294.497,325.583l0.425-4.943c0,0,12.33-0.85,17.007-0.372
							c8.929,4.039,11.055,5.315,11.055,5.315H294.497z"/>
					</g>
					<g>
						<path style="fill:#1F1F39;" d="M257.241,275.411c0,0-2.551-17.06,0.478-20.09c3.029-3.029,12.855-4.319,16.741,1.754
							c2.551,3.986,3.189,17.858,3.189,17.858L257.241,275.411z"/>
						<path style="fill:#2B2950;" d="M264.604,263.303c4.278-0.329,9.228,0.65,12.087,6.888c2.859,6.238,1.04,52.376,1.04,52.376
							l-15.206-1.43c0,0-6.238-45.878-5.199-50.427C258.365,266.163,261.225,263.563,264.604,263.303z"/>
						<path style="fill:#B14D53;" d="M251.421,325.583c2.585,0,26.308,0,26.308,0l0.001-3.015c0,0-14.518-3.948-15.308-3.868
							C261.633,318.779,251.708,323.961,251.421,325.583z"/>
					</g>
					<g>
						<g>
							<path style="fill:#FFC767;" d="M316.774,217.646c0,0-0.921,2.879-2.768,7.393c-5.645-4.325-5.865-4.912-5.865-4.912
								l5.483-6.567L316.774,217.646z"/>
							<g>
								<path style="fill:#FFC767;" d="M324.417,208.452c0.003,0.007,0.004,0.013,0.007,0.02c0.031,0.089,0.054,0.219,0.065,0.383
									c0.005,0.068,0.009,0.143,0.01,0.223c0.01,0.376-0.017,0.872-0.078,1.422c-0.022,0.221-0.051,0.453-0.087,0.689
									c-0.002,0.001-0.002,0.001-0.002,0.001c-0.069,0.455-0.157,0.927-0.262,1.387c-0.061,0.261-0.127,0.516-0.201,0.764
									c-0.312,1.075-0.739,1.975-1.261,2.246c-0.906,0.471-3.372,1.626-5.08,2.417c-0.603,0.279-1.265,0.307-1.861,0.121
									c-0.579-0.182-1.095-0.566-1.434-1.12c-0.339-0.556-0.62-1.207-0.69-1.9c-0.205-2.043,2.597-4.298,2.597-4.298
									s0.348-0.189,0.9-0.483c2.009-1.073,6.926-3.393,7.227-3.355C324.948,207.054,324.789,208.069,324.417,208.452z"/>
								<path style="fill:#F6B54C;" d="M317.042,210.323c0.505,1.122,0.42,3.305,0.472,3.976c0.063,0.801-2.941,3.26-3.279,2.705
									c-0.339-0.556-0.62-1.207-0.69-1.9c-0.205-2.043,2.597-4.298,2.597-4.298S316.489,210.617,317.042,210.323z"/>
								<path style="fill:#FFC767;" d="M313.634,210.48c0.364-0.64,5.55-3.388,5.785-3.257c0.234,0.131,0.411,0.815-0.161,1.431
									c-0.572,0.615-3.116,2.153-3.116,2.153s-0.037,2.261-0.124,3.027c-0.087,0.766-1.798,2.983-2.172,2.709
									C312.34,215.44,313.063,211.482,313.634,210.48z"/>
								<path style="fill:#F6B54C;" d="M324.424,208.471c0.031,0.089,0.054,0.219,0.065,0.383c0.005,0.068,0.009,0.143,0.01,0.223
									c-1.525,0.695-4.216,1.918-4.678,2.136c-0.65,0.307-0.731,0.061-0.824-0.135
									C318.919,210.913,323.149,209.034,324.424,208.471z"/>
								<path style="fill:#F6B54C;" d="M324.421,210.5c-0.022,0.221-0.051,0.453-0.087,0.689c-0.002,0.001-0.002,0.001-0.002,0.001
									c-1.498,0.683-3.344,1.523-3.72,1.701c-0.65,0.307-0.911,0.064-0.824-0.135C319.893,212.52,322.715,211.26,324.421,210.5z"
									/>
								<path style="fill:#F6B54C;" d="M324.07,212.577c-0.061,0.261-0.127,0.516-0.201,0.764c-1.148,0.524-2.225,1.015-2.503,1.147
									c-0.65,0.307-0.913,0.062-0.824-0.135C320.692,214.019,322.486,213.257,324.07,212.577z"/>
								<path style="fill:#F6B54C;" d="M318.917,210.289c0.05,0.106,2.339,4.953,2.339,4.953s-0.861-0.445-1.531-1.762
									C318.632,211.33,318.917,210.289,318.917,210.289z"/>
							</g>
						</g>
						<path style="fill:#3DB885;" d="M309.136,217.919l7.122,5.634c0,0-11.59,20.741-17.326,20.515
							c-8.078-0.319-25.192-20.09-23.81-26.255c0.819-3.654,5.745-6.164,8.825-5.102c3.08,1.062,15.835,15.306,15.835,15.306
							L309.136,217.919z"/>
					</g>
					<g>
						<g>
							<path style="fill:#FFC767;" d="M272.971,208.869c0,0-3.16,3.375-4.968,3.163c-1.807-0.214-7.414-3.548-7.414-3.548
								s1.276-0.571,1.542-1.368c0.104-0.313,0.298-1.449,0.494-2.715c0.306-1.966,0.622-4.247,0.622-4.247l7.813,0.69
								c0,0-0.163,2.54-0.12,4.469c0.021,0.998,0.097,1.834,0.279,2.068C271.75,208.074,272.971,208.869,272.971,208.869z"/>
							<path style="fill:#F6B54C;" d="M270.94,205.314c-0.966,0.856-2.181,1.537-3.602,1.537c-2.073,0-3.677-1.277-4.713-2.449
								c0.306-1.966,0.622-4.247,0.622-4.247l7.813,0.69C271.06,200.845,270.897,203.385,270.94,205.314z"/>
							<g>
								<path style="fill:#FFC767;" d="M260.695,193.564c-0.083,0.146-0.072,11.998,7.441,10.842
									c6.218-0.957,3.827-12.915,3.827-12.915s-4.411-2.179-5.421-1.807C265.532,190.056,261.599,191.97,260.695,193.564z"/>
								<path style="fill:#2B2950;" d="M261.067,199.102c0.2,0.083,0.399-2.986,0.399-2.986s3.866-1.435,4.584-2.073
									c0.717-0.638,2.551-2.432,2.551-2.432s2.471,1.515,2.87,2.073c0.399,0.558,0.889,3.285,0.889,3.285s2.379-3.923,2.459-4.72
									c0.08-0.797-4.345-3.149-4.345-3.149s0.08-2.152-0.478-2.511c-0.558-0.359-10.523,2.631-11.52,4.624
									c-0.996,1.993,1.02,7.587,1.654,7.829C260.764,199.284,261.067,199.102,261.067,199.102z"/>
								<g>
									<path style="fill:#F1A029;" d="M267.417,198.831c-0.119,0-0.26-0.005-0.389-0.011c-0.107-0.004-0.204-0.008-0.273-0.008
										c-0.088,0-0.159-0.072-0.159-0.16c0-0.088,0.071-0.16,0.159-0.16c0.072,0,0.175,0.004,0.286,0.009
										c0.182,0.007,0.407,0.016,0.522,0.005l0.043-0.004c0.151-0.013,0.197-0.021,0.25-0.09c0.036-0.047,0.052-0.125,0.046-0.238
										c-0.026-0.535-0.058-1.013-0.087-1.48c-0.036-0.561-0.071-1.107-0.097-1.715c-0.004-0.088,0.064-0.162,0.152-0.166
										c0.003,0,0.005,0,0.007,0c0.085,0,0.156,0.067,0.159,0.153c0.025,0.605,0.061,1.149,0.096,1.708
										c0.03,0.469,0.062,0.949,0.088,1.485c0.01,0.191-0.026,0.337-0.11,0.447c-0.142,0.185-0.311,0.2-0.476,0.214l-0.042,0.004
										C267.544,198.829,267.484,198.831,267.417,198.831z"/>
									<path style="fill:#FFFFFF;" d="M269.521,199.945c0,0-0.865,2.133-2.364,1.845c-1.499-0.288-2.133-1.557-2.133-1.557
										L269.521,199.945z"/>
									<g>
										<path style="fill:#282952;" d="M270.063,195.717c-0.769,0-0.84,1.196-0.067,1.196
											C270.764,196.912,270.835,195.717,270.063,195.717z"/>
										<path style="fill:#282952;" d="M270.996,195.378c0,0-0.278-0.315-0.714-0.382c-0.556-0.085-0.837,0.03-0.837,0.03
											s0.173-0.449,0.698-0.488C270.501,194.512,270.943,194.715,270.996,195.378z"/>
									</g>
									<g>
										<path style="fill:#282952;" d="M265.243,195.948c0.769,0,0.84,1.196,0.067,1.196
											C264.542,197.144,264.47,195.948,265.243,195.948z"/>
										<path style="fill:#282952;" d="M264.31,195.609c0,0,0.278-0.315,0.714-0.382c0.556-0.085,0.837,0.03,0.837,0.03
											s-0.173-0.449-0.698-0.488C264.805,194.743,264.363,194.946,264.31,195.609z"/>
									</g>
								</g>
								<g>
									<path style="fill:#FFC767;" d="M272.36,195.906c0.04-0.163,0.45-1.804,1.789-1.337c1.462,0.51,0.754,3.578-0.469,3.967
										c-1.222,0.389-1.635-0.25-1.635-0.25L272.36,195.906z"/>
									<path style="fill:#F1A029;" d="M274.35,196.014c0,0,0.061-0.912-0.62-0.944c-0.588-0.027-0.892,0.669-1.278,1.409
										c0.055,0.519,0.055,0.519,0.055,0.519s0.82-0.571,0.927-0.146c0.185,0.735-0.803,0.976-0.803,0.976l0.001,0.368
										c0,0,1.768-0.443,1.234-1.604c-0.239-0.518-1.124-0.096-1.124-0.096s0.314-0.785,0.805-0.875
										C274.02,195.536,274.35,196.014,274.35,196.014z"/>
								</g>
								<g>
									<path style="fill:#FFC767;" d="M261.113,196.936c-0.055-0.159-0.615-1.755-1.905-1.166
										c-1.409,0.643-0.421,3.633,0.832,3.908c1.253,0.275,1.605-0.4,1.605-0.4L261.113,196.936z"/>
									<path style="fill:#F1A029;" d="M259.142,197.228c0,0-0.145-0.903,0.53-0.997c0.583-0.081,0.95,0.584,1.402,1.285
										c-0.007,0.522-0.007,0.522-0.007,0.522s-0.87-0.493-0.937-0.06c-0.116,0.749,0.889,0.898,0.889,0.898l0.033,0.366
										c0,0-1.802-0.278-1.377-1.483c0.19-0.538,1.111-0.199,1.111-0.199s-0.385-0.753-0.882-0.797
										C259.427,196.722,259.142,197.228,259.142,197.228z"/>
								</g>
							</g>
						</g>
						<g>
							<path style="fill:#E1E1E3;" d="M273.238,208.817c0,0-0.016,0.11-0.048,0.317c-0.002,0.011-0.005,0.022-0.006,0.033
								c-0.19,1.189-0.891,5.289-2.328,10.321c-0.391,1.365-0.835,2.8-1.338,4.263c-1.188-1.075-2.263-2.345-3.221-3.689
								c-3.739-5.239-5.708-11.577-5.708-11.577l3.278,0.086l4.136,3.462l2.277-3.294L273.238,208.817z"/>
							<path style="fill:#3C4174;" d="M270.856,219.488c-0.391,1.365-0.835,2.8-1.338,4.263c-1.188-1.075-2.263-2.345-3.221-3.689
								l0.926-5.438l1.365-0.4L270.856,219.488z"/>
							<path style="fill:#3C4174;" d="M265.372,214.066c0.005,0.126,1.116,1.674,2.87,1.515c0.724-0.066,2.232-2.272,2.113-2.551
								c-0.12-0.279-2.352-0.997-2.352-0.997S265.333,212.989,265.372,214.066z"/>
							<polygon style="fill:#FFFFFF;" points="268.003,212.033 264.921,216.285 260.589,208.485 262.131,207.117 263.867,208.571 
															"/>
							<path style="fill:#FFFFFF;" d="M273.238,208.817c0,0.065-0.018,0.174-0.048,0.317c-0.002,0.011-0.005,0.022-0.006,0.033
								c-0.34,1.553-2.151,6.878-2.151,6.878l-3.029-4.013l2.277-3.294l0.939-1.357C271.219,207.382,272.308,208.02,273.238,208.817
								z"/>
						</g>
					</g>
					<g>
						<path style="fill:#15A373;" d="M296.783,259.122h-41.221c0,0-8.471-40.321-8.089-42.995c0.238-1.671,8.433-5.536,11.746-7.033
							c0.843-0.381,1.37-0.609,1.37-0.609s5.58,10.643,7.76,12.13c2.816-5.207,4.888-11.799,4.888-11.799s0.499,0.118,1.315,0.317
							c3.284,0.808,8.739,2.959,10.487,4.201C287.495,215.08,296.783,259.122,296.783,259.122z"/>
						<path style="fill:#3DB885;" d="M274.553,209.134c-0.971,3.101-3.597,9.994-5.912,13.98c-3.972-2.819-7.995-10.938-9.421-14.02
							c0.843-0.381,1.37-0.609,1.37-0.609s5.58,10.643,7.76,12.13c2.816-5.207,4.888-11.799,4.888-11.799
							S273.737,208.935,274.553,209.134z"/>
					</g>
					<g>
						<path style="fill:#3DB885;" d="M247.473,216.127c-2.453,1.56-3.254,7.306-3.891,12.408
							c-0.638,5.102-3.508,26.148,4.252,26.148c5.634-0.957,7.441-5.208,7.653-9.141C255.7,241.609,250.94,213.924,247.473,216.127z
							"/>
						<g>
							<path style="fill:#F6B54C;" d="M264.395,226.239c0,0,2.121-1.857,3.188-2.002c1.066-0.145,4.15,0.643,3.888,1.081
								c-0.262,0.438-6.186,1.846-6.663,1.589C264.33,226.65,264.395,226.239,264.395,226.239z"/>
							<path style="fill:#FFC767;" d="M259.631,231.745c0,0,3.606-4.979,5.426-5.958c0.9-0.484,10.053-1.277,10.307-0.972
								c0.254,0.305-0.353,0.992-0.681,1.079c-0.328,0.087-5.464,0.774-5.407,0.957c0.057,0.183,4.84-0.212,5.076-0.117
								c0.314,0.127-0.201,0.632-0.684,0.825c-0.483,0.193-4.922,0.541-4.964,0.706c-0.041,0.165,3.897,0.033,4.408,0.048
								c0.511,0.016,0.233,0.775-0.553,0.924c-0.786,0.149-4.091,0.333-4.031,0.547c0.061,0.214,3.668-0.169,3.536,0.103
								c-0.133,0.272-0.765,0.613-1.171,0.753c-0.405,0.14-5.27,1.104-5.27,1.104l-1.923,3.734L259.631,231.745z"/>
						</g>
						<path style="fill:#3DB885;" d="M260.077,230.635l6.75,5.58c0,0-8.789,18.042-13.944,19.371
							c-5.155,1.329-10.389-2.33-8.397-7.706C245.548,245.011,260.077,230.635,260.077,230.635z"/>
					</g>
				</g>
			</g>
			<g>
				<g>
					<g>
						<path style="fill:#2B2950;" d="M357.653,201.57c-0.088-0.031-3.836-1.251-3.982-2.794c-0.146-1.543,2.064-2.981,2.064-2.981
							s-1.527-1.258-0.016-2.492c2.244-1.831,11.386-4.514,17.079-1.145c4.487,2.656,5.132,5.162,8.379,6.09
							c2.244,0.641,13.279,0.229,17.537,3.297c4.258,3.068,6.09,7.372,6.502,10.257c-0.458-0.595-1.648-1.923-1.648-1.923
							s1.328,1.648,1.465,4.762c0.137,3.114-4.625,13.828-10.714,16.896c-6.09,3.068-17.445,1.282-20.147-5.998
							c-2.702-7.28-1.419-12.18-2.656-14.24C370.28,209.237,363.869,203.743,357.653,201.57z"/>
						<g>
							<path style="fill:#FFC767;" d="M375.208,208.724l-4.903,5.022c0,0-0.945-1.048-2.086-2.162
								c-0.206-0.202-0.419-0.405-0.633-0.606c-0.375-0.349-0.797-0.631-1.25-0.839c-1.024-0.472-2.2-0.568-3.315-0.242
								c-0.003,0.002-0.005,0.003-0.008,0.003c-1.277,0.375-2.395,0.571-2.953,0.166c-0.682-0.496-1.468-3.026-1.775-4.375
								c-0.07-0.314-0.345-0.544-0.665-0.555c-0.52-0.019-1.218-0.1-1.268-0.399c-0.08-0.478,1.156-0.757,1.275-1.515
								c0.12-0.757-0.399-2.033-0.598-3.069c-0.119-0.62-0.225-1.084-0.169-1.484c0.035-0.268,0.143-0.509,0.368-0.748
								c0,0,2.312,2.83,3.587,3.229c1.276,0.399,4.783-1.515,4.783-1.515l0.496,0.63l1.258,1.602c0,0-0.08-2.95,1.315-3.428
								c1.395-0.478,2.352,1.554,2.272,3.029c-0.08,1.475-1.874,2.312-1.874,2.312s0,0,1.236,1.196
								c0.459,0.445,1.256,1.079,2.076,1.697C373.763,207.72,375.208,208.724,375.208,208.724z"/>
							<path style="fill:#F6B54C;" d="M375.208,208.724l-4.903,5.022c0,0-0.945-1.048-2.086-2.162
								c1.17-1.406,2.962-3.509,4.161-4.911C373.763,207.72,375.208,208.724,375.208,208.724z"/>
							<path style="fill:#F6B54C;" d="M366.097,200.266c-1.138,0.764-3.356,2.087-4.82,1.881c-1.542-0.217-3.535-2.415-4.415-3.477
								c0.035-0.268,0.143-0.509,0.368-0.748c0,0,2.312,2.83,3.587,3.229c1.276,0.399,4.783-1.515,4.783-1.515L366.097,200.266z"/>
							<path style="fill:#FFFFFF;" d="M359.096,206.041c0,0,1.569-0.233,2.857-1.069
								C362.125,206.786,360.271,208.05,359.096,206.041z"/>
							<g>
								<path style="fill:#282952;" d="M359.409,201.916c-0.208-0.218-0.553-0.221-0.782-0.035
									c-0.226,0.184-0.245,0.549-0.054,0.764C359.074,203.207,359.925,202.456,359.409,201.916z"/>
								<path style="fill:#282952;" d="M357.608,201.128c0.276-0.163,0.757-0.37,1.466-0.359c0.71,0.011,1.395,0.302,1.395,0.302
									s-0.517-0.9-1.412-0.96C358.428,200.068,357.811,200.682,357.608,201.128z"/>
							</g>
							<path style="fill:#F6B54C;" d="M367.846,207.436c-0.088,0.823-0.843,1.899-1.51,2.704c-1.024-0.472-2.2-0.568-3.315-0.242
								c0.155-0.053,2.648-0.931,3.549-2.887c0.931-2.02,1.063-3.321,1.063-3.321S368.006,205.947,367.846,207.436z"/>
							<path style="fill:#F6B54C;" d="M369.906,200.114c0,0-0.578-1.375-0.996-1.036c-0.419,0.339-0.678,3.089-0.678,3.089
								s0.618-0.877,1.156-0.717c0.538,0.16-0.558,1.614-0.558,1.614s1.634-1.056,1.236-1.794c-0.399-0.737-1.355-0.04-1.355-0.04
								s0.179-1.495,0.458-1.535C369.448,199.656,369.906,200.114,369.906,200.114z"/>
						</g>
					</g>
					<g>
						<g>
							<g>
								<path style="fill:#F6B54C;" d="M334.258,291.143c0,0-0.107,2.019-2.87,8.291c-0.864,1.96-2.014,4.138-3.275,6.357
									c-3.635,6.394-8.202,13.141-9.544,16.059c0.179,0.505,0.341,1.046,0.488,1.585c0.59,2.186,0.904,4.38,0.904,4.38
									s-24.288,0.531-24.501,0c-0.115-0.289,4.067-2.685,7.932-4.823c3.278-1.816,7.641-4.133,7.641-4.133l7.891-21.289l2.58-6.96
									L334.258,291.143z"/>
								<path style="fill:#E19F42;" d="M334.258,291.143c0,0-0.107,2.019-2.87,8.291c-0.864,1.96-2.014,4.138-3.275,6.357v-8.221
									h-9.19l2.58-6.96L334.258,291.143z"/>
								<path style="fill:#2D3E80;" d="M319.961,327.815c0,0-24.288,0.531-24.501,0c-0.115-0.289,4.067-2.685,7.932-4.823
									c0.732,0.305,2.21,1.087,3.921,2.91c2.975-0.046,9.951-2.027,11.745-2.467C319.647,325.621,319.961,327.815,319.961,327.815
									z"/>
							</g>
							<path style="fill:#449ECC;" d="M329.156,293.481h-10.311c0,0,9.46-23.385,12.543-25.83c3.083-2.445,5.527-1.594,6.059,0
								c0.531,1.594,0,25.83,0,25.83H329.156z"/>
						</g>
						<g>
							<g>
								<path style="fill:#FFC767;" d="M344.037,290.159c0,0-0.102,3.114-0.756,7.095c-0.163,0.993-0.36,2.042-0.6,3.109
									c-1.196,5.341-4.305,16.981-4.385,19.93c1.674,4.703,1.515,7.573,1.515,7.573h-21.206c0,0,10.204-5.341,11.001-6.936
									c0.542-1.084,0.643-14.932,0.649-23.677c0.005-4.11-0.011-7.095-0.011-7.095H344.037z"/>
								<path style="fill:#F6B54C;" d="M344.037,290.159c0,0-0.102,3.114-0.756,7.095h-13.025c0.005-4.11-0.011-7.095-0.011-7.095
									H344.037z"/>
								<path style="fill:#2D3E80;" d="M315.922,328.877c0,0,24.66,0.425,24.66,0s-1.01-5.368-1.594-6.271
									c-4.411,3.561-11.586,4.039-11.639,3.88c-0.053-0.159-2.339-2.232-2.923-2.445
									C322.034,325.21,316.56,328.08,315.922,328.877z"/>
							</g>
							<g>
								<path style="fill:#86BFE8;" d="M396.766,265.884c-0.285,5.612-1.915,17.18-10.53,17.18c-11.375,0-41.136,0-41.136,0
									s1.381,4.039,0.105,10.416h-8.663c-4.554,0-7.387,0-7.387,0s0-19.452,0-21.365s0.743-7.015,9.034-8.184
									c8.291-1.169,26.579-1.094,26.579-1.094l1.378-1.245l16.416,0.7l0.652,0.027l13.594,0.58
									C396.809,262.9,396.857,264.086,396.766,265.884z"/>
								<path style="fill:#449ECC;" d="M396.766,265.884l-31.997-3.047l1.378-1.245l30.662,1.307
									C396.809,262.9,396.857,264.086,396.766,265.884z"/>
								<path style="fill:#C5E4F7;" d="M384.588,262.319l-2.285,6.319c-1.169,3.424-2.906,3.637-4.265,3.637l-38.884-0.372
									c-1.036,0-1.017-0.08-1.017,1.116c0,0.992,0.101,15.531,0.213,20.461h-1.807v-20.94c0-1.256,0.953-2.392,2.172-2.392
									c1.375,0,31.384-0.053,39.319-0.01c1.075,0.006,2.034-0.673,2.387-1.688l2.141-6.159L384.588,262.319z"/>
							</g>
						</g>
					</g>
					<g>
						<path style="fill:#F0646F;" d="M398.429,258.536c-0.249,1.185-1.62,1.995-1.62,1.995v2.369l-32.04-0.062l0.499-3.179
							c0,0-1.932,0.623-2.119-1.06c-0.061-0.537,0.253-4.619,0.709-9.927c0.498-5.794,1.162-13.047,1.693-18.742
							c0.212-2.285,0.403-4.318,0.553-5.906c0.206-2.175,0.333-3.512,0.333-3.512l0.263-3.926l9.409-7.395
							c0,0,0.713,0.263,1.853,0.826c2.806,1.384,8.202,4.581,11.926,10.123c5.236,7.792,6.794,15.582,7.916,24.808
							C398.928,254.172,398.678,257.351,398.429,258.536z"/>
						<path style="fill:#E25263;" d="M377.963,210.016l-8.522,13.205l-2.178-3.136c0,0-0.797,2.647-1.158,3.938
							c0.206-2.175,0.333-3.512,0.333-3.512l0.263-3.926l9.409-7.395C376.11,209.19,376.823,209.453,377.963,210.016z"/>
						<path style="fill:#E25263;" d="M383.791,227.366c-0.55,7.337-14.001,17.602-19.932,21.305
							c0.498-5.794,1.162-13.047,1.693-18.742l16.22-12.342C381.772,217.586,384.428,218.862,383.791,227.366z"/>
						<polygon style="fill:#E25263;" points="396.809,260.53 396.809,262.9 364.769,262.837 365.268,259.658 						"/>
					</g>
					<g>
						<path style="fill:#F6B54C;" d="M343.718,218.543c-0.053-0.133-1.208-4.454-1.953-4.693c-0.744-0.239-4,0.414-4,0.414
							s-2.179-0.239-2.312,0.08c-0.133,0.319,0.027,0.983,1.143,1.249C337.712,215.859,343.718,218.543,343.718,218.543z"/>
						<path style="fill:#FFC767;" d="M347.006,222.017c0,0.061-5.25,3.321-5.25,3.321c-0.088-0.088-0.625-1.189-1.072-2.125
							c-0.341-0.714-0.631-1.331-0.631-1.331s-4.067,0-4.447,0c-0.274,0-0.547-0.252-0.663-0.702
							c-0.043-0.172-0.065-0.372-0.054-0.598c-0.695,0-1.054-0.263-1.18-0.977c-0.037-0.206-0.054-0.45-0.054-0.735
							c-0.938,0-1.137-0.419-1.137-0.818c0-0.059,0-0.116,0.002-0.172c0.005-0.324,0.019-0.585,0.019-0.585s-3.688-0.22-3.847-0.399
							c-0.159-0.179-0.359-1.097,0.239-1.196c0.598-0.099,11.698-0.459,12.537-0.04c0.51,0.257,2.462,2.546,3.905,4.305
							C346.291,221.087,347.006,221.995,347.006,222.017z"/>
						<path style="fill:#F6B54C;" d="M347.006,222.017c0,0.061-5.25,3.321-5.25,3.321c-0.088-0.088-0.625-1.189-1.072-2.125
							c1.164-0.804,3.307-2.285,4.688-3.248C346.291,221.087,347.006,221.995,347.006,222.017z"/>
						<path style="fill:#F6B54C;" d="M335.853,217.561l-3.334,0.319c0.005-0.324,0.019-0.585,0.019-0.585L335.853,217.561z"/>
						<path style="fill:#F6B54C;" d="M336.436,218.87l-2.728,0.735c-0.037-0.206-0.054-0.45-0.054-0.735H336.436z"/>
						<path style="fill:#F6B54C;" d="M336.942,220.582l-1.999,0.598c-0.043-0.172-0.065-0.372-0.054-0.598H336.942z"/>
					</g>
					<g>
						<path style="fill:#F0646F;" d="M373.693,235.311c-7.733,6.617-14.908,11.878-18.097,11.241
							c-3.189-0.638-13.401-16.214-14.031-17.858c-0.473-1.236,0.08-2.073,0.08-2.073l-0.797-2.073l5.74-4.066l1.674,2.312
							c0,0,0.478-0.638,1.276,0c0.797,0.638,7.334,8.132,7.334,8.132s17.06-15.227,20.488-15.386
							c3.428-0.159,5.501,1.435,6.059,5.182C383.977,224.469,381.426,228.694,373.693,235.311z"/>
						<polygon style="fill:#E25263;" points="348.262,222.795 341.645,226.622 340.848,224.549 346.588,220.483 						"/>
						<path style="fill:#E25263;" d="M357.392,231.794c0,0,2.589,5.75,4.092,4.365C362.265,235.441,357.392,231.794,357.392,231.794
							z"/>
						<path style="fill:#E25263;" d="M356.937,232.794c0,0-0.13,6.729,1.182,6.275C360.459,238.261,356.937,232.794,356.937,232.794
							z"/>
					</g>
					<g>
						<path style="fill:#E1E1E3;" d="M365.88,215.354c0,0,0.957,5.368,1.01,5.155c0.053-0.213,1.966-5.315,1.754-5.315
							C368.432,215.195,365.88,215.354,365.88,215.354z"/>
						<path style="fill:#FFFFFF;" d="M376.563,209.189c-0.106-0.159-1.86-1.807-1.86-1.807s-8.876,7.813-8.822,7.972
							c0.053,0.16,2.764,4.571,2.764,4.571L376.563,209.189z"/>
					</g>
				</g>
				<g>
					<rect x="372.986" y="286.505" style="fill:#A6BDE2;" width="3.587" height="40.282"/>
					<path style="fill:#2B2950;" d="M406.089,232.043L406.089,232.043c-2.63,0-4.819,2.019-5.031,4.64l-3.036,37.482
						c-0.288,3.56,0.842,7.089,3.145,9.818l0,0L406.089,232.043z"/>
					<path style="fill:#1F1F39;" d="M346.936,287.688L346.936,287.688c0.754-2.732,3.238-4.624,6.072-4.624h32.754
						c5.371,0,10.639,1.468,15.236,4.245l0.626,0.378H346.936z"/>
					<polygon style="fill:#2B2950;" points="398.754,287.688 401.624,287.688 408.321,232.043 406.089,232.043 					"/>
					<path style="fill:#2B2950;" d="M401.624,287.688L401.624,287.688c0,1.321-1.071,2.392-2.392,2.392h-13.606
						c-1.321,0-2.392-1.071-2.392-2.392l0,0H401.624z"/>
					<polygon style="fill:#FFFFFF;" points="372.074,300.709 377.177,300.709 377.177,327.467 371.968,327.467 					"/>
					<polygon style="fill:#2B2950;" points="346.154,329.091 348.933,324.291 398.604,324.291 401.731,329.283 					"/>
				</g>
			</g>
			<g>
				<g>
					<g>
						<g>
							<g>
								<path style="fill:#FFC767;" d="M153.924,221.081c-0.775,3.232-1.949,6.491-2.849,8.762c-0.732,1.85-1.28,3.047-1.28,3.047
									l-6.194-3.468l2.165-3.327l5.845-8.979C151.612,217.117,153.346,218.769,153.924,221.081z"/>
								<path style="fill:#F6B54C;" d="M151.075,229.843c-0.732,1.85-1.28,3.047-1.28,3.047l-6.194-3.468l2.165-3.327
									L151.075,229.843z"/>
							</g>
							<g>
								<path style="fill:#FFC767;" d="M161.302,218.934c0,0.007-0.002,0.012-0.002,0.018c-0.008,0.083-0.04,0.195-0.092,0.33
									c-0.021,0.056-0.046,0.117-0.076,0.182c-0.134,0.304-0.342,0.689-0.598,1.105c-0.101,0.168-0.212,0.342-0.329,0.517
									c-0.002,0-0.002,0-0.002,0c-0.226,0.337-0.474,0.681-0.732,1.008c-0.147,0.185-0.296,0.363-0.448,0.534
									c-0.654,0.74-1.333,1.296-1.852,1.316c-0.9,0.035-3.302,0.027-4.962,0.015c-0.586-0.005-1.125-0.231-1.53-0.604
									c-0.393-0.363-0.661-0.864-0.722-1.434c-0.061-0.572-0.04-1.196,0.165-1.775c0.606-1.706,3.69-2.45,3.69-2.45
									s0.348-0.02,0.9-0.046c2.007-0.099,6.802-0.097,7.028,0.046C162.251,218.02,161.743,218.769,161.302,218.934z"/>
								<path style="fill:#F6B54C;" d="M154.715,217.65c-0.02,1.085-0.91,2.794-1.121,3.349c-0.251,0.662-3.573,1.492-3.634,0.922
									c-0.061-0.572-0.04-1.196,0.165-1.775c0.606-1.706,3.69-2.45,3.69-2.45S154.163,217.676,154.715,217.65z"/>
								<path style="fill:#FFC767;" d="M151.938,216.49c0.532-0.373,5.703-0.612,5.841-0.419c0.138,0.193,0.021,0.805-0.668,1.08
									s-3.296,0.544-3.296,0.544s-0.881,1.789-1.239,2.367c-0.358,0.578-2.557,1.702-2.753,1.342
									C149.038,219.959,151.105,217.075,151.938,216.49z"/>
								<path style="fill:#F6B54C;" d="M161.3,218.953c-0.008,0.083-0.04,0.195-0.092,0.33c-0.021,0.056-0.046,0.117-0.076,0.182
									c-1.478-0.02-4.085-0.058-4.535-0.058c-0.634,0-0.606-0.226-0.606-0.418C155.99,218.827,160.071,218.921,161.3,218.953z"/>
								<path style="fill:#F6B54C;" d="M160.534,220.57c-0.101,0.168-0.212,0.342-0.329,0.517c-0.002,0-0.002,0-0.002,0
									c-1.452-0.02-3.241-0.045-3.607-0.045c-0.634,0-0.751-0.292-0.606-0.418C156.161,220.475,158.887,220.533,160.534,220.57z"
									/>
								<path style="fill:#F6B54C;" d="M159.472,222.094c-0.147,0.185-0.296,0.363-0.448,0.534
									c-1.113-0.015-2.157-0.028-2.428-0.028c-0.634,0-0.752-0.294-0.606-0.418C156.234,221.972,157.952,222.04,159.472,222.094z"
									/>
								<path style="fill:#F6B54C;" d="M156.223,218.328c0,0.103,0,4.831,0,4.831s-0.519-0.679-0.557-1.982
									C155.603,219.051,156.223,218.328,156.223,218.328z"/>
							</g>
						</g>
						<path style="fill:#C5E4F7;" d="M150.933,231.313c-2.476,6.861-5.815,12.454-7.059,13.891c-1.818,2.098-4.056,3.426-9.51-0.281
							c-14.629-7.821-14.337-23.216-12.728-25.733c1.609-2.519,3.637-0.42,3.637-0.42l13.985,14.895l4.864-6.321L150.933,231.313z"
							/>
					</g>
					<g>
						<path style="fill:#9C4754;" d="M170.972,322.556c0.277,0.514,3.173,4.547,3.173,4.547s5.895-3.206,23.168-13.756
							c-4.034,0-16.135-0.827-17.479-0.31C178.489,313.554,170.972,322.556,170.972,322.556z"/>
						<path style="fill:#1F1F39;" d="M154.25,268.189c0,0,4.116,0.359,8.19,6.017s23.471,37.259,23.471,37.259l-14.938,11.091
							c0,0-14.87-26.848-19.849-39.523C146.144,270.358,154.25,268.189,154.25,268.189z"/>
					</g>
					<g>
						<path style="fill:#B14D53;" d="M144.51,319.987c0,0-0.11,6.827,0.11,7.267c17.288,0,30.06,0,30.06,0
							s-11.672-6.937-15.856-8.479C149.685,318.996,144.51,319.987,144.51,319.987z"/>
						<g>
							<path style="fill:#2B2950;" d="M164.88,319.987h-20.37l-0.003-35.397c0,0-22.044-0.888-39.742-1.525
								c-10.475-0.378-11.004-11.298-11.772-16.701c-0.385-2.714-0.235-4.706-0.235-4.706c7.928-1.762,33.364,0.109,33.364,0.109
								s1.501,0.281,3.878,0.75c6.006,1.184,17.602,3.571,24.699,5.672c3.472,1.029,5.992,4.03,6.397,7.629
								C162.706,290.156,164.88,319.987,164.88,319.987z"/>
							<path style="fill:#1F1F39;" d="M130,262.517c-5.969,0.586-28.599,2.821-37.007,3.847c-0.385-2.714-0.235-4.706-0.235-4.706
								c7.928-1.762,33.364,0.109,33.364,0.109S127.623,262.048,130,262.517z"/>
						</g>
					</g>
					<g>
						<path style="fill:#E7F5FD;" d="M127.347,215.317c0,0-0.025,0.637-0.068,1.761c-0.188,4.952-0.613,20.283-0.895,31.613
							c-0.102,4.132-0.185,7.731-0.229,10.103c-0.036,1.805-0.05,2.899-0.033,2.973c0,0-11.892-0.109-33.364-0.109
							c-1.432-16.738,11.451-43.769,15.25-47.679c2.53-2.605,5.421-3.513,7.067-3.83c0.827-0.16,1.341-0.17,1.341-0.17
							L127.347,215.317z"/>
						<path style="fill:#C5E4F7;" d="M126.384,248.691c-0.102,4.132-0.185,7.731-0.229,10.103c-2.228,0.467-5.3,0.517-8.402-1.321
							c-5.946-3.523-9.36-21.031-8.919-30.5c0.441-9.471,6.101-10.619,6.101-10.619L126.384,248.691z"/>
						<path style="fill:#C5E4F7;" d="M127.347,215.317c0,0-0.025,0.637-0.068,1.761l-3.031,6.481l-9.173-13.41
							c0.827-0.16,1.341-0.17,1.341-0.17L127.347,215.317z"/>
					</g>
					<path style="fill:#9C4754;" d="M126.851,215.813l-1.996,1.524c0,0-0.066,0.668,0.944,2.159
						c-0.594,5.189-3.57,31.273-3.421,31.645c0.165,0.413,4.349,3.523,4.349,3.523s0.496-27.18,0.407-33.926
						C129.342,217.885,126.852,215.812,126.851,215.813z"/>
					<g>
						<path style="fill:#2B2950;" d="M134.93,201.385c0.165-0.041,4.583-3.345,4.005-4.625c-0.578-1.28-2.643-1.652-2.643-1.652
							s0.702-1.652-0.413-2.147s-10.86-1.775-14.287,1.817c-3.427,3.592-1.569,11.025-1.569,11.025s5.698,0.991,5.863,0.908
							C126.052,206.629,134.93,201.385,134.93,201.385z"/>
						<path style="fill:#FFC767;" d="M135.095,205.308c-0.496,0.248-0.702,4.542-2.147,5.203c-1.445,0.661-2.836,0.165-3.758,0
							c-1.156-0.206-1.813,0.507-2.436,1.655c-0.515,0.95-3.267,6.11-3.267,6.11c0-0.002-4.951-6.842-5.965-8.639
							c2.179-1.739,2.502-3.833,2.502-3.833l3.592-1.239c0,0-1.074-0.413-1.61-1.858c-0.537-1.445,0.908-3.138,2.106-2.932
							c1.112,0.191,1.12,2.662,1.05,3.113c0.116-0.311,0.446-1.421,0.646-2.104c0.096-0.325,0.162-0.555,0.162-0.555
							s0.352,0.041,3.53,0c3.181-0.041,5.844-3.221,5.844-3.221s0.332,0.071,0.527,0.464c0.064,0.125,0.114,0.286,0.134,0.486
							c0.083,0.826-0.908,4.005-0.867,5.161c0.041,1.156,1.198,1.074,1.363,1.61C136.664,205.266,135.591,205.06,135.095,205.308z"
							/>
						<path style="fill:#FFFFFF;" d="M130.422,204.921c0.181,0,3.465,1.047,3.465,1.047s-0.505,1.516-1.985,1.047
							C130.422,206.546,130.422,204.921,130.422,204.921z"/>
						<path style="fill:#F6B54C;" d="M129.19,210.51c-1.156-0.206-1.813,0.507-2.436,1.655c-1.642-0.907-2.532-3.616-2.532-6.225
							C124.718,208.776,129.19,210.51,129.19,210.51z"/>
						<path style="fill:#F6B54C;" d="M135.87,197.472c-0.619,0.836-2.268,2.88-3.995,3.5c-1.805,0.648-5.003,0.043-6.067-0.188
							c0.096-0.325,0.162-0.555,0.162-0.555s0.352,0.041,3.53,0c3.181-0.041,5.844-3.221,5.844-3.221
							S135.675,197.079,135.87,197.472z"/>
						<path style="fill:#282952;" d="M133.765,201.98c-0.218-0.229-0.58-0.232-0.82-0.037c-0.237,0.193-0.257,0.575-0.057,0.801
							C133.414,203.334,134.306,202.547,133.765,201.98z"/>
						<path style="fill:#282952;" d="M134.876,201.093c0,0-0.718-0.305-1.463-0.316c-0.744-0.012-1.249,0.206-1.538,0.377
							c0,0,0.358-0.936,1.398-0.991C134.314,200.107,134.876,201.093,134.876,201.093z"/>
						<path style="fill:#F6B54C;" d="M122.544,201.364c0,0,0.876-1.178,1.571-0.544c0.695,0.634,0.604,2.508,0.604,2.508
							s-0.544-0.906-0.907-0.483c-0.363,0.423,0.272,1.239,0.272,1.239s-1.027-0.816-0.846-1.45
							c0.181-0.635,0.846-0.544,0.846-0.544s-0.121-0.816-0.483-0.876C123.239,201.153,122.544,201.364,122.544,201.364z"/>
					</g>
					<path style="fill:#E7F5FD;" d="M116.417,209.979l8.044,10.064c0,0,2.922-4.617,2.886-4.725
						c-0.036-0.108-8.838-7.178-8.838-7.178L116.417,209.979z"/>
					<g>
						<g>
							<path style="fill:#F6B54C;" d="M165.463,242.564c0,0,0.049-6.096-0.885-7.03c-0.934-0.934-8.011-2.312-9.332-1.899
								C160.421,236.689,165.463,242.564,165.463,242.564z"/>
							<path style="fill:#FFC767;" d="M166.312,243.929c-0.895,0.723-2.478-1.349-3.54-3.006c-0.661-1.032-1.835-1.614-3.056-1.505
								c-0.91,0.081-2.129,0.112-3.637-0.018c-1.439-0.124-2.852,0.408-3.855,1.445c-0.373,0.387-0.768,0.762-1.156,1.112
								c-1.417,1.285-2.76,2.248-2.76,2.248l-3.881-6.276c0,0,1.754-0.72,3.857-1.571c2.833-1.148,6.298-2.534,6.962-2.724
								c1.156-0.33,6.276,1.569,7.102,2.56C163.174,237.185,167.062,243.324,166.312,243.929z"/>
							<path style="fill:#F6B54C;" d="M151.069,241.957c-1.417,1.285-2.76,2.248-2.76,2.248l-3.881-6.276
								c0,0,1.754-0.72,3.857-1.571C148.989,237.695,150.14,240.042,151.069,241.957z"/>
						</g>
						<g>
							<path style="fill:#E7F5FD;" d="M149.607,243.972c-0.908,0.733-1.847,1.45-2.808,2.146c-0.187,0.135-0.375,0.271-0.563,0.403
								c-0.352,0.249-0.705,0.495-1.06,0.738c-0.18,0.124-0.36,0.244-0.542,0.365c-8.374,5.611-17.833,9.414-22.927,8.123
								c-6.194-1.569-9.993-16.682-10.736-27.253c-0.712-10.133,2.739-11.621,3.964-12.14c2.416-1.022,5.55,0.368,7.35,6.029
								c3.427,10.772,6.187,19.374,6.187,19.374l10.979-3.166l0.91-0.263l1.501-0.433l0.793-0.23l3.672-1.059
								C147.332,238.718,148.968,242.642,149.607,243.972z"/>
							<path style="fill:#C5E4F7;" d="M146.799,246.117c-0.187,0.135-0.375,0.271-0.563,0.403l-4.374-8.625l0.793-0.23
								C143.724,239.864,145.742,243.97,146.799,246.117z"/>
							<path style="fill:#C5E4F7;" d="M145.175,247.258c-0.18,0.124-0.36,0.244-0.542,0.365l-5.183-9.033l0.91-0.263
								L145.175,247.258z"/>
							<path style="fill:#C5E4F7;" d="M147.114,242.595c-1.005,0-1.102,1.567-0.088,1.567
								C148.031,244.162,148.128,242.595,147.114,242.595z"/>
						</g>
					</g>
				</g>
				<g>
					<rect x="112.541" y="286.505" style="fill:#A6BDE2;" width="3.587" height="40.35"/>
					<path style="fill:#2B2950;" d="M83.025,232.043L83.025,232.043c2.63,0,4.819,2.019,5.031,4.64l3.036,37.482
						c0.288,3.56-0.842,7.089-3.145,9.818l0,0L83.025,232.043z"/>
					<path style="fill:#1F1F39;" d="M142.178,287.688L142.178,287.688c-0.754-2.732-3.238-4.624-6.072-4.624h-32.754
						c-5.371,0-10.64,1.468-15.237,4.245l-0.626,0.378H142.178z"/>
					<polygon style="fill:#2B2950;" points="90.359,287.688 87.489,287.688 80.793,232.043 83.025,232.043 					"/>
					<path style="fill:#2B2950;" d="M87.489,287.688L87.489,287.688c0,1.321,1.071,2.392,2.392,2.392h13.606
						c1.321,0,2.392-1.071,2.392-2.392l0,0H87.489z"/>
					<polygon style="fill:#FFFFFF;" points="117.039,300.709 111.937,300.709 111.937,327.535 117.145,327.535 					"/>
					<polygon style="fill:#2B2950;" points="142.96,329.159 140.181,324.36 90.509,324.36 87.383,329.351 					"/>
				</g>
			</g>
			<g>
				<polygon style="fill:#B14D53;" points="374.181,329.314 368.202,329.314 352.004,264.091 350.267,257.09 356.246,257.09 
					357.983,264.091 				"/>
				<polygon style="fill:#98434B;" points="357.983,264.091 352.004,264.091 350.267,257.09 356.246,257.09 				"/>
				<polygon style="fill:#B14D53;" points="145.791,257.09 143.973,264.409 127.854,329.314 121.875,329.314 137.994,264.409 
					139.812,257.09 				"/>
				<polygon style="fill:#98434B;" points="145.791,257.09 143.973,264.409 137.994,264.409 139.812,257.09 				"/>
				<rect x="119.35" y="254.266" style="fill:#B14D53;" width="250.049" height="5.283"/>
			</g>
			<g>
				<polygon style="fill:#86BFE8;" points="241.605,229.192 239.266,252.47 208.972,252.47 211.311,229.192 				"/>
				<polygon style="fill:#FFFFFF;" points="241.605,229.192 239.266,252.47 210.036,252.47 212.373,229.192 				"/>
				<rect x="194.623" y="252.27" style="fill:#FFFFFF;" width="44.644" height="1.993"/>
				<path style="fill:#C5E4F7;" d="M228.827,243.041c0,1.217-0.987,2.204-2.204,2.204c-1.217,0-2.204-0.987-2.204-2.204
					c0-1.217,0.987-2.204,2.204-2.204C227.84,240.837,228.827,241.824,228.827,243.041z"/>
			</g>
			<g>
				<polygon style="fill:#86BFE8;" points="303.309,229.192 300.97,252.47 270.676,252.47 273.015,229.192 				"/>
				<polygon style="fill:#FFFFFF;" points="303.309,229.192 300.97,252.47 271.739,252.47 274.077,229.192 				"/>
				<rect x="256.326" y="252.27" style="fill:#FFFFFF;" width="44.644" height="1.993"/>
				<circle style="fill:#C5E4F7;" cx="288.326" cy="243.041" r="2.204"/>
			</g>
			<g>
				<g>
					<polygon style="fill:#86BFE8;" points="181.403,252.132 179.543,252.132 178.215,252.132 176.354,252.132 175.823,254.311 
						178.215,254.311 179.543,254.311 181.935,254.311 					"/>
					<path style="fill:#E7F5FD;" d="M174.534,243.575v1.502h-1.185c-0.717,0-1.196,0.279-1.275,0.757
						c-0.08,0.478-0.199,4.823,0.399,5.262c0.145,0.108,0.43,0.193,0.775,0.261c0.387,0.078,0.853,0.134,1.287,0.172v0.557
						c0,0.716,0.58,1.295,1.296,1.295h6.099c0.716,0,1.295-0.579,1.295-1.295v-8.511H174.534z M174.534,250.615
						c-0.496,0.019-0.992,0.006-1.244-0.089c-0.022-0.008-0.043-0.018-0.061-0.027c-0.518-0.279-0.598-4.385-0.199-4.544
						c0.081-0.032,0.255-0.054,0.48-0.067c0.287-0.014,0.655-0.018,1.024-0.014V250.615z"/>
					<path style="fill:#C5E4F7;" d="M174.534,245.077v0.796c-0.368-0.003-0.737,0-1.024,0.014c0.014-0.298,0.027-0.572,0.038-0.81
						H174.534z"/>
					<path style="fill:#C5E4F7;" d="M174.534,250.615v0.915c-0.434-0.038-0.899-0.094-1.287-0.172
						c0.014-0.252,0.029-0.533,0.043-0.832C173.542,250.621,174.038,250.634,174.534,250.615z"/>
				</g>
				<path style="fill:#E7F5FD;" d="M185.598,232.286c-0.089-0.12-0.193-0.227-0.309-0.318c-1.218-0.95-3.293-0.453-3.825,1.036
					c-0.399,1.117,0.226,2.53-0.513,3.457c-0.398,0.499-1.143,0.77-1.25,1.399c-0.111,0.658,0.579,1.211,0.596,1.879
					c0.015,0.598-0.497,1.055-0.916,1.482c-0.419,0.427-0.799,1.077-0.49,1.59c-0.185-0.309,1.161-0.909,1.328-0.971
					c0.572-0.214,1.111-0.28,1.458-0.856c0.271-0.451,0.354-0.986,0.459-1.501c0.106-0.515,0.252-1.049,0.614-1.431
					c0.618-0.652,1.765-0.758,2.129-1.579c0.224-0.506,0.054-1.111,0.233-1.634c0.163-0.476,0.596-0.826,0.745-1.307
					C185.986,233.109,185.863,232.645,185.598,232.286z"/>
				<path style="fill:#E7F5FD;" d="M177.391,231.74c-0.247,0.174-0.58,0.56-0.28,1.031c0.127,0.199,0.308,0.254,0.479,0.299
					c0.225,0.06,0.451,0.117,0.679,0.128c0.158,0.008,0.326-0.012,0.457-0.162c0.298-0.342,0.465-0.859,0.184-1.158
					C178.583,231.531,177.717,231.511,177.391,231.74z"/>
				<path style="fill:#E7F5FD;" d="M183.869,228.276c-0.133,0.082-0.312,0.265-0.15,0.488c0.068,0.094,0.165,0.12,0.257,0.142
					c0.121,0.028,0.242,0.056,0.365,0.061c0.085,0.004,0.175-0.006,0.245-0.077c0.16-0.162,0.111-0.529-0.039-0.67
					C184.371,228.055,184.044,228.167,183.869,228.276z"/>
			</g>
			<g>
				<g>
					<polygon style="fill:#86BFE8;" points="248.06,252.132 249.921,252.132 251.249,252.132 253.109,252.132 253.641,254.311 
						251.249,254.311 249.921,254.311 247.529,254.311 					"/>
					<path style="fill:#E7F5FD;" d="M246.241,243.575v8.511c0,0.716,0.579,1.295,1.295,1.295h6.099c0.716,0,1.296-0.579,1.296-1.295
						v-0.557c0.434-0.038,0.899-0.094,1.287-0.172c0.344-0.068,0.63-0.153,0.775-0.261c0.598-0.439,0.478-4.783,0.399-5.262
						c-0.08-0.478-0.558-0.757-1.276-0.757h-1.185v-1.502H246.241z M254.93,245.873c0.368-0.003,0.737,0,1.024,0.014
						c0.225,0.013,0.399,0.035,0.48,0.067c0.399,0.16,0.319,4.265-0.199,4.544c-0.017,0.01-0.038,0.019-0.061,0.027
						c-0.252,0.096-0.748,0.108-1.244,0.089V245.873z"/>
					<path style="fill:#C5E4F7;" d="M254.93,245.077v0.796c0.368-0.003,0.737,0,1.024,0.014c-0.014-0.298-0.027-0.572-0.038-0.81
						H254.93z"/>
					<path style="fill:#C5E4F7;" d="M254.93,250.615v0.915c0.434-0.038,0.899-0.094,1.287-0.172
						c-0.014-0.252-0.029-0.533-0.043-0.832C255.922,250.621,255.426,250.634,254.93,250.615z"/>
				</g>
				<path style="fill:#E7F5FD;" d="M247.802,236.719c-0.397,0.279-0.93,0.899-0.449,1.653c0.203,0.319,0.494,0.407,0.768,0.48
					c0.361,0.096,0.724,0.188,1.09,0.206c0.254,0.012,0.523-0.019,0.733-0.26c0.478-0.549,0.745-1.378,0.294-1.857
					C249.713,236.384,248.325,236.351,247.802,236.719z"/>
				<path style="fill:#E7F5FD;" d="M254.752,230.776c-0.764-0.092-1.569,0.023-2.221,0.577c-1.203,1.022-1.249,2.899-0.741,4.263
					c0.289,0.776,0.637,1.587,0.49,2.402c-0.106,0.588-0.46,1.099-0.83,1.568c-0.37,0.469-0.772,0.927-1.003,1.478
					c-0.232,0.551-0.263,1.229,0.089,1.711c0.213-1.077,1.271-1.741,2.234-2.269c0.81-0.444,1.852-1.012,2.175-1.946
					c0.318-0.924-0.328-2.036,0.187-2.912c0.264-0.448,0.741-0.496,1.107-0.775c0.703-0.537,0.873-1.954,0.461-2.904
					C256.288,231.018,255.553,230.873,254.752,230.776z"/>
			</g>
			<g>
				<g>
					<polygon style="fill:#86BFE8;" points="325.852,252.132 327.712,252.132 329.041,252.132 330.901,252.132 331.433,254.311 
						329.041,254.311 327.712,254.311 325.321,254.311 					"/>
					<path style="fill:#FFFFFF;" d="M324.033,243.575v8.511c0,0.716,0.579,1.295,1.295,1.295h6.099c0.716,0,1.296-0.579,1.296-1.295
						v-0.557c0.434-0.038,0.899-0.094,1.287-0.172c0.344-0.068,0.63-0.153,0.775-0.261c0.598-0.439,0.478-4.783,0.399-5.262
						c-0.08-0.478-0.558-0.757-1.276-0.757h-1.185v-1.502H324.033z M332.722,245.873c0.368-0.003,0.737,0,1.024,0.014
						c0.225,0.013,0.399,0.035,0.48,0.067c0.399,0.16,0.319,4.265-0.199,4.544c-0.017,0.01-0.038,0.019-0.061,0.027
						c-0.252,0.096-0.748,0.108-1.244,0.089V245.873z"/>
					<path style="fill:#C5E4F7;" d="M332.722,245.077v0.796c0.368-0.003,0.737,0,1.024,0.014c-0.014-0.298-0.027-0.572-0.038-0.81
						H332.722z"/>
					<path style="fill:#C5E4F7;" d="M332.722,250.615v0.915c0.434-0.038,0.899-0.094,1.287-0.172
						c-0.014-0.252-0.029-0.533-0.043-0.832C333.714,250.621,333.218,250.634,332.722,250.615z"/>
				</g>
				<g>
					<path style="fill:#FFFFFF;" d="M329.552,242.044c-0.005-0.013-0.01-0.025-0.016-0.038c-0.232-0.524-0.714-0.831-1.057-1.261
						c-0.424-0.532-0.429-1.169-0.375-1.841c0.05-0.617,0.157-1.236,0.087-1.851c-0.096-0.839-0.764-2.153-1.687-2.3
						c-1.036-0.165-1.889,0.79-1.462,1.78c0.154,0.356,0.423,0.646,0.674,0.942c0.251,0.295,0.495,0.617,0.579,0.995
						c0.103,0.463-0.048,0.941-0.058,1.416c-0.024,1.165,1.219,1.447,2.028,1.932c0.54,0.324,0.947,0.763,1.142,1.352
						C329.517,242.752,329.729,242.485,329.552,242.044z"/>
					<path style="fill:#FFFFFF;" d="M328.948,239.178c0.037,0.379,0.421,0.63,0.792,0.716c0.321,0.075,0.671,0.066,0.962-0.088
						c0.673-0.355,0.572-1.34-0.121-1.616C329.994,237.956,328.879,238.472,328.948,239.178z"/>
					<path style="fill:#FFFFFF;" d="M323.137,237.775c0.021,0.216,0.24,0.36,0.452,0.409c0.183,0.042,0.383,0.038,0.549-0.05
						c0.384-0.203,0.327-0.765-0.069-0.922C323.734,237.078,323.098,237.372,323.137,237.775z"/>
				</g>
			</g>
			<g>
				<g>
					<polygon style="fill:#86BFE8;" points="305.024,252.132 306.884,252.132 308.213,252.132 310.073,252.132 310.605,254.311 
						308.213,254.311 306.884,254.311 304.493,254.311 					"/>
					<path style="fill:#FFFFFF;" d="M303.204,243.575v8.511c0,0.716,0.579,1.295,1.295,1.295h6.099c0.716,0,1.296-0.579,1.296-1.295
						v-0.557c0.434-0.038,0.899-0.094,1.287-0.172c0.344-0.068,0.63-0.153,0.775-0.261c0.598-0.439,0.478-4.783,0.399-5.262
						c-0.08-0.478-0.558-0.757-1.276-0.757h-1.185v-1.502H303.204z M311.894,245.873c0.368-0.003,0.737,0,1.024,0.014
						c0.225,0.013,0.399,0.035,0.48,0.067c0.399,0.16,0.319,4.265-0.199,4.544c-0.017,0.01-0.038,0.019-0.061,0.027
						c-0.252,0.096-0.748,0.108-1.244,0.089V245.873z"/>
					<path style="fill:#C5E4F7;" d="M311.894,245.077v0.796c0.368-0.003,0.737,0,1.024,0.014c-0.014-0.298-0.027-0.572-0.038-0.81
						H311.894z"/>
					<path style="fill:#C5E4F7;" d="M311.894,250.615v0.915c0.434-0.038,0.899-0.094,1.287-0.172
						c-0.014-0.252-0.029-0.533-0.043-0.832C312.886,250.621,312.39,250.634,311.894,250.615z"/>
				</g>
				<path style="fill:#FFFFFF;" d="M309.08,239.352c0.002-0.334-0.016-0.673-0.001-1.006c0.045-0.956,0.568-1.741,1.501-2.026
					c1.165-0.355,1.552,0.816,0.832,1.639c-0.233,0.266-0.498,0.518-0.624,0.848c-0.198,0.515-0.015,1.11-0.176,1.638
					c-0.342,1.125-1.951,1.337-2.528,2.361c-0.108-0.425,0.045-0.874,0.252-1.261c0.206-0.387,0.47-0.749,0.607-1.166
					C309.053,240.049,309.077,239.703,309.08,239.352z"/>
			</g>
			<g>
				<path style="fill:#FFFFFF;" d="M329.897,174.302c0-7.768,6.39-14.044,14.201-13.858c7.322,0.175,13.303,6.123,13.517,13.443
					c0.166,5.698-3.108,10.65-7.899,12.933c-2.323,1.107-2.519,4.36-0.343,5.734c0.019,0.012,0.037,0.023,0.056,0.035
					c-3.801,0.018-5.68-1.679-6.606-3.259c-0.454-0.775-1.227-1.308-2.104-1.504C334.526,186.441,329.897,180.913,329.897,174.302z"
					/>
				<g>
					<path style="fill:#86BFE8;" d="M347.663,177.744c0,0.826-0.307,1.555-1.133,2.227c-0.134,0.134-1.113,0.73-1.21,0.73
						c0,0.173-0.019,1.19-0.019,1.363v0.077c0,0.307-0.192,0.518-0.73,0.518c-0.25,0-0.518,0.019-0.806,0.019h-0.538
						c-1.402,0,0.038-1.689-1.248-2.073c-1.862-0.614-2.035-1.747-2.035-3.456c0-0.768,0-0.979,0.883-0.979
						c0.288,0,0.518,0.038,0.749,0.058c0.614,0.058,1.325-0.154,1.325,0.633c0,0.211,0.019,0.384,0.019,0.595
						c0,0.403,0.134,0.845,0.806,0.845c0.403,0,0.883-0.288,0.883-0.691c0-1.632-2.361-2.726-3.475-3.955
						c-0.595-0.672-1.037-1.651-1.037-2.572c0-0.634,0.211-1.248,0.691-1.728c0.441-0.441,1.133-0.826,1.728-0.998
						c0.134-0.058,0.057-0.135,0.057-0.269c0-0.096-0.096-1.325-0.096-1.421c0-0.384,0.653-0.307,1.113-0.307
						c-0.096,0,1.497-0.058,1.651,0.249v1.574c0,0.173,0.077,0.249,0.25,0.269c0.96,0.096,1.689,0.998,1.977,1.593
						c0.288,0.595,0.269,1.094,0.269,1.785c0,0.384-0.25,0.499-0.653,0.499h-0.307c-0.384,0-0.691,0.038-1.075,0.038
						c-1.651,0-0.422-1.555-1.651-1.555c-0.403,0-0.902,0.403-0.902,0.864c0,1.113,1.862,2.131,2.937,2.899
						C347.087,175.286,347.663,176.688,347.663,177.744z"/>
				</g>
			</g>
			<g>
				<path style="fill:#FFFFFF;" d="M136.334,138.354h47.896c4.896,0,8.866,3.969,8.866,8.866v24.298
					c0,4.896-3.969,8.866-8.866,8.866h-30.912c-0.935,0-1.766,0.623-2.003,1.527c-0.808,3.081-3.095,7.043-9.457,7.997
					c1.402-1.98,2.008-4.794,2.253-7.257c0.121-1.216-0.842-2.268-2.064-2.268h-5.713c-4.896,0-8.866-3.969-8.866-8.866v-24.298
					C127.469,142.323,131.438,138.354,136.334,138.354z"/>
				<polygon style="fill:#FFC767;" points="131.711,171.455 146.858,158.221 151.481,164.12 166.628,153.597 170.614,157.743 
					179.862,151.206 177.63,147.698 187.994,148.495 185.443,157.583 182.732,154.235 170.296,162.526 166.628,158.38 
					151.003,168.904 145.901,162.048 				"/>
			</g>
			<g>
				<path style="fill:#FFFFFF;" d="M280.905,167.962c0-6.279,5.165-11.352,11.479-11.202c5.918,0.141,10.754,4.949,10.926,10.867
					c0.134,4.606-2.513,8.609-6.385,10.454c-1.878,0.895-2.036,3.524-0.277,4.635c0.015,0.01,0.03,0.019,0.045,0.028
					c-3.073,0.014-4.591-1.357-5.34-2.635c-0.367-0.627-0.992-1.057-1.701-1.215C284.647,177.775,280.905,173.306,280.905,167.962z"
					/>
				<g>
					<line id="XMLID_2113_" style="fill:#F27121;" x1="291.305" y1="163.206" x2="291.305" y2="163.206"/>
					<line id="XMLID_2112_" style="fill:#F27121;" x1="291.305" y1="170.816" x2="291.305" y2="163.206"/>
					<path id="XMLID_2111_" style="fill:#FFC767;" d="M290.414,164.637c1.791-0.001,3.332-1.295,3.611-3.064v-0.002
						c0-0.563,0.456-1.019,1.019-1.019c0.156,0,0.304,0.035,0.437,0.098c0.416,0.198,0.634,0.663,0.543,1.115l-0.578,2.872h3.164
						c0.572,0,1.05,0.468,1.039,1.039c-0.011,0.554-0.463,0.999-1.019,0.999h-0.86c0.572,0,1.05,0.468,1.039,1.039
						c-0.011,0.554-0.463,0.999-1.019,0.999h-0.02c0.572,0,1.05,0.468,1.039,1.039c-0.011,0.554-0.463,0.999-1.019,0.999h0
						c0.572,0,1.05,0.468,1.039,1.039c-0.011,0.554-0.463,0.999-1.019,0.999h-7.056c-0.95,0-1.72-0.77-1.72-1.72v-5.053
						C289.034,165.255,289.652,164.637,290.414,164.637L290.414,164.637"/>
					<rect id="XMLID_2108_" x="288.302" y="164.626" style="fill:#86BFE8;" width="2.329" height="8.165"/>
					<rect id="XMLID_2107_" x="285.973" y="164.626" style="fill:#C5E4F7;" width="2.329" height="8.165"/>
					<path id="XMLID_2106_" style="fill:#FFFFFF;" d="M290.028,170.816c0,0.31-0.252,0.562-0.562,0.562
						c-0.31,0-0.562-0.252-0.562-0.562c0-0.31,0.252-0.562,0.562-0.562C289.777,170.255,290.028,170.506,290.028,170.816z"/>
					<path id="XMLID_2103_" style="fill:#FFFFFF;" d="M287.7,170.816c0,0.31-0.252,0.562-0.562,0.562
						c-0.31,0-0.562-0.252-0.562-0.562c0-0.31,0.252-0.562,0.562-0.562C287.448,170.255,287.7,170.506,287.7,170.816z"/>
				</g>
			</g>
			<g>
				<path style="fill:#FFFFFF;" d="M244.442,177.932c0-6.279-5.165-11.352-11.479-11.202c-5.918,0.141-10.754,4.949-10.926,10.867
					c-0.134,4.606,2.512,8.609,6.385,10.454c1.878,0.895,2.036,3.524,0.277,4.635c-0.015,0.01-0.03,0.019-0.045,0.028
					c3.072,0.014,4.591-1.357,5.34-2.635c0.367-0.627,0.992-1.057,1.701-1.215C240.701,187.744,244.442,183.276,244.442,177.932z"/>
				<g>
					<g id="XMLID_2296_">
						<path id="XMLID_2301_" style="fill:#F3A61D;" d="M237.162,176.704c0-2.324-1.9-4.204-4.232-4.172
							c-2.271,0.032-4.115,1.904-4.113,4.176c0.001,1.144,0.463,2.18,1.209,2.933c0.695,0.701,1.102,1.637,1.102,2.625v0.664h3.723
							v-0.66c0-0.989,0.407-1.928,1.103-2.631C236.701,178.886,237.162,177.849,237.162,176.704z"/>
						<path id="XMLID_2298_" style="fill:#F5D609;" d="M232.99,174.457c1.239,0,2.247,1.008,2.247,2.247
							c0,0.596-0.231,1.157-0.65,1.58c-0.742,0.749-1.253,1.659-1.497,2.642c-0.011,0.046-0.052,0.078-0.099,0.078l0,0
							c-0.047,0-0.088-0.033-0.099-0.078c-0.243-0.983-0.755-1.893-1.497-2.641c-0.419-0.423-0.651-0.984-0.651-1.579
							c-0.001-0.589,0.23-1.149,0.65-1.575c0.42-0.426,0.975-0.665,1.564-0.674C232.968,174.458,232.979,174.457,232.99,174.457
							 M232.99,172.532c-0.02,0-0.04,0-0.06,0c-2.271,0.032-4.115,1.904-4.113,4.176c0.001,1.144,0.463,2.18,1.209,2.933
							c0.695,0.701,1.102,1.637,1.102,2.625v0.664h3.723v-0.66c0-0.989,0.407-1.928,1.103-2.631
							c0.747-0.754,1.208-1.791,1.208-2.935C237.162,174.4,235.294,172.532,232.99,172.532L232.99,172.532z"/>
					</g>
					<path style="fill:#F07F21;" d="M232.987,175.632c-0.685,0-1.242,0.557-1.242,1.242c0,0.147,0.026,0.29,0.075,0.424
						c0.321,0.881,0.369,1.839,0.369,2.777v3.676h1.595v-3.676c0-0.937,0.046-1.895,0.368-2.775
						c0.049-0.135,0.076-0.279,0.076-0.426C234.228,176.189,233.671,175.632,232.987,175.632z M232.575,183.366v-5.527
						c0.126,0.054,0.266,0.084,0.412,0.084s0.286-0.03,0.412-0.084v5.527H232.575z"/>
					<path id="XMLID_2292_" style="fill:#C5E4F7;" d="M233.476,185.56h-0.978c-0.756,0-1.369-0.613-1.369-1.369v-2.255h3.717v2.255
						C234.845,184.947,234.232,185.56,233.476,185.56z"/>
					<path id="XMLID_2291_" style="fill:#86BFE8;" d="M235.166,184.51h-4.353c-0.263,0-0.476-0.213-0.476-0.476l0,0
						c0-0.263,0.213-0.476,0.476-0.476h4.353c0.263,0,0.476,0.213,0.476,0.476l0,0C235.642,184.297,235.429,184.51,235.166,184.51z"
						/>
					<path id="XMLID_1_" style="fill:#86BFE8;" d="M235.166,182.882h-4.353c-0.263,0-0.476-0.213-0.476-0.476l0,0
						c0-0.263,0.213-0.476,0.476-0.476h4.353c0.263,0,0.476,0.213,0.476,0.476l0,0C235.642,182.669,235.429,182.882,235.166,182.882
						z"/>
				</g>
			</g>
			<g>
				<path style="fill:#A29FCE;" d="M464.036,331.387H42.876c-1.045,0-1.892-0.847-1.892-1.891c0-1.044,0.847-1.891,1.892-1.891
					h421.159c1.044,0,1.892,0.847,1.892,1.891C465.927,330.54,465.08,331.387,464.036,331.387z"/>
				<path style="fill:#A29FCE;" d="M316.667,341.292H291.67c-1.045,0-1.892-0.847-1.892-1.891c0-1.044,0.847-1.891,1.892-1.891
					h24.997c1.045,0,1.892,0.847,1.892,1.891C318.559,340.446,317.712,341.292,316.667,341.292z"/>
				<path style="fill:#A29FCE;" d="M270.727,341.292H256.54c-1.045,0-1.892-0.847-1.892-1.891c0-1.044,0.847-1.891,1.892-1.891
					h14.188c1.045,0,1.892,0.847,1.892,1.891C272.619,340.446,271.772,341.292,270.727,341.292z"/>
				<path style="fill:#A29FCE;" d="M378.867,341.292h-40.379c-1.045,0-1.892-0.847-1.892-1.891c0-1.044,0.847-1.891,1.892-1.891
					h40.379c1.045,0,1.892,0.847,1.892,1.891C380.758,340.446,379.912,341.292,378.867,341.292z"/>
				<path style="fill:#A29FCE;" d="M154.595,356.605h-24.997c-1.045,0-1.892-0.847-1.892-1.892c0-1.045,0.847-1.892,1.892-1.892
					h24.997c1.045,0,1.892,0.847,1.892,1.892C156.487,355.759,155.64,356.605,154.595,356.605z"/>
				<path style="fill:#A29FCE;" d="M179.592,357.281h-14.188c-1.045,0-1.892-0.847-1.892-1.892s0.847-1.892,1.892-1.892h14.188
					c1.045,0,1.892,0.847,1.892,1.892S180.637,357.281,179.592,357.281z"/>
				<path style="fill:#A29FCE;" d="M184.998,340.391h-6.756c-1.045,0-1.892-0.847-1.892-1.891c0-1.044,0.847-1.891,1.892-1.891
					h6.756c1.045,0,1.892,0.847,1.892,1.891C186.889,339.544,186.042,340.391,184.998,340.391z"/>
				<path style="fill:#A29FCE;" d="M169.404,340.391h-57.816c-1.045,0-1.892-0.847-1.892-1.891c0-1.044,0.847-1.891,1.892-1.891
					h57.816c1.045,0,1.892,0.847,1.892,1.891C171.295,339.544,170.449,340.391,169.404,340.391z"/>
				<path style="fill:#A29FCE;" d="M253.244,348.586h-57.816c-1.045,0-1.892-0.847-1.892-1.892c0-1.045,0.847-1.891,1.892-1.891
					h57.816c1.045,0,1.892,0.846,1.892,1.891C255.135,347.739,254.289,348.586,253.244,348.586z"/>
				<path style="fill:#A29FCE;" d="M249.009,361.646h-6.756c-1.045,0-1.892-0.847-1.892-1.892c0-1.045,0.847-1.892,1.892-1.892
					h6.756c1.045,0,1.892,0.847,1.892,1.892C250.901,360.8,250.054,361.646,249.009,361.646z"/>
				<path style="fill:#A29FCE;" d="M330.958,358.494h-6.756c-1.045,0-1.892-0.847-1.892-1.892s0.847-1.892,1.892-1.892h6.756
					c1.045,0,1.892,0.847,1.892,1.892S332.003,358.494,330.958,358.494z"/>
			</g>
		</g>
	</g>
</g>
</svg>
