<?xml version="1.0" encoding="utf-8"?>
<!-- Generator: Adobe Illustrator 27.5.0, SVG Export Plug-In . SVG Version: 6.00 Build 0)  -->
<svg version="1.1" xmlns="http://www.w3.org/2000/svg" xmlns:xlink="http://www.w3.org/1999/xlink" x="0px" y="0px"
	 viewBox="0 0 500 500" style="enable-background:new 0 0 500 500;" xml:space="preserve">
<g id="BACKGROUND">
	<rect style="fill-rule:evenodd;clip-rule:evenodd;fill:#F7F7F7;" width="500" height="500"/>
	<rect style="fill-rule:evenodd;clip-rule:evenodd;fill:#FFFFFF;" width="500" height="500"/>
</g>
<g id="OBJECTS">
	<g>
		<path style="fill-rule:evenodd;clip-rule:evenodd;fill:#CCEDFF;" d="M81.621,76.952h286.811c9.345,0,16.994,7.644,16.994,16.989
			l0,0c0,9.349-7.65,16.994-16.994,16.994h-19.411c0.635,0.009,1.257,0.048,1.873,0.12c-8.409,0.997-14.984,8.203-14.984,16.873l0,0
			c0,8.671,6.575,15.876,14.984,16.873c-0.616,0.072-1.238,0.111-1.873,0.121h34.011c12.166,0,22.118,9.951,22.118,22.118l0,0
			c0,12.167-9.952,22.119-22.118,22.119H244.2c0.323,0.01,0.645,0.029,0.958,0.067c-4.451,0.53-7.933,4.34-7.933,8.93l0,0
			c0,4.586,3.482,8.4,7.933,8.931c-0.313,0.038-0.636,0.058-0.958,0.058H436.44c5.342,0,9.71,4.374,9.71,9.71l0,0
			c0,5.342-4.368,9.71-9.71,9.71h-2.438c0.824,0.01,1.633,0.058,2.438,0.154c-10.92,1.301-19.46,10.65-19.465,21.907l0,0v0.004
			c0,9.312-7.615,16.932-16.931,16.932h-34.604c0.583,0.004,1.151,0.042,1.72,0.105c-7.837,0.935-13.964,7.648-13.964,15.722l0,0
			c0,8.073,6.127,14.787,13.964,15.723c-0.539,0.063-1.079,0.096-1.633,0.105h54.525c10.621,0,19.315,8.694,19.315,19.315l0,0
			c0,10.626-8.693,19.315-19.315,19.315h-53.114c-7.119,0-12.937,5.824-12.937,12.943l0,0c0,7.119,5.818,12.942,12.937,12.942
			h28.828c7.114,0,12.938,5.818,12.938,12.938l0,0c0,7.12-5.823,12.938-12.938,12.938H208.96c5.328,1.605,9.234,6.566,9.234,12.399
			l0,0c0,7.114-5.824,12.938-12.938,12.938H95.512c-7.119,0-12.938-5.823-12.938-12.938l0,0c0-7.12,5.819-12.943,12.938-12.943
			h25.283c5.327-1.604,9.233-6.566,9.233-12.394l0,0c0-7.119-5.824-12.938-12.942-12.938h-56.24
			c-7.119,0-12.938-5.823-12.938-12.942l0,0c0-7.119,5.818-12.943,12.938-12.943h50.932c10.625,0,19.315-8.689,19.315-19.315l0,0
			c0-10.587-8.637-19.257-19.214-19.315H59.377c-13.361,0-24.295-10.93-24.295-24.291v-0.005c0-13.361,10.934-24.295,24.295-24.295
			h13.16c6.064,0,11.03-4.962,11.03-11.031l0,0c0-6.069-4.966-11.031-11.03-11.031H52.19c-5.342,0-9.71-4.369-9.71-9.71l0,0
			c0-5.336,4.369-9.71,9.71-9.71h79.986c4.947,0,8.993-4.046,8.993-8.988l0,0c0-4.951-4.046-8.998-8.993-8.998h-1.657
			c-12.162,0-22.118-9.951-22.118-22.119l0,0c0-12.167,9.956-22.118,22.118-22.118h6.898c9.349,0,16.993-7.645,16.993-16.994l0,0
			c0-9.345-7.644-16.993-16.993-16.993H81.621c-9.345,0-16.989-7.645-16.989-16.994l0,0C64.632,84.596,72.276,76.952,81.621,76.952z
			"/>
		<path style="fill-rule:evenodd;clip-rule:evenodd;fill:#F6C3B8;" d="M337.635,137.984l-38.467,37.918
			c-5.598,5.52-5.524,14.672,0.049,20.216l0,0c5.572,5.544,14.618,5.472,20.216-0.048l38.466-37.917
			c5.602-5.515,5.525-14.667-0.048-20.216l0,0C352.277,132.393,343.231,132.47,337.635,137.984z"/>
		<path style="fill-rule:evenodd;clip-rule:evenodd;fill:#EC836C;" d="M336.252,139.352l-22.176,21.858
			c-0.059,12.61-0.179,28.91-0.179,28.91s3.521,1.291,8.661,2.866l35.34-34.835c5.602-5.515,5.525-14.667-0.048-20.216l0,0
			c-2.183-2.172-4.898-3.478-7.732-3.94c0,0,7.09,3.868,4.783,13.737c-2.313,9.865-18.65,21.27-18.65,21.27V139.352z"/>
		<path style="fill-rule:evenodd;clip-rule:evenodd;fill:#EC836C;" d="M156.005,339.089c-0.611,1.85-10.197,15.048-10.197,15.048
			v19.016l69.385,7.866l33.139-12.639l4.167-6.705c0,0,27.518-7.173,30.909-21.97c3.386-14.796-92.794-22.813-92.794-22.813
			L156.005,339.089z"/>
		<path style="fill-rule:evenodd;clip-rule:evenodd;fill:#FDF3F2;" d="M201.504,87.794h114.749c7.683,0,13.969,6.281,13.969,13.969
			v231.324c0,7.684-6.286,13.969-13.969,13.969H201.504c-7.683,0-13.969-6.285-13.969-13.969V101.763
			C187.536,94.075,193.822,87.794,201.504,87.794z"/>
		<path style="fill-rule:evenodd;clip-rule:evenodd;fill:#F9DDD8;" d="M311.59,87.794h4.663c7.683,0,13.969,6.281,13.969,13.969
			v231.324c0,7.684-6.286,13.969-13.969,13.969H201.504c-7.683,0-13.969-6.285-13.969-13.969V311.34
			C332.962,255.605,311.59,87.794,311.59,87.794z"/>
		<path style="fill-rule:evenodd;clip-rule:evenodd;fill:#7B4733;" d="M323.57,89.875l0.188,0.12l0.01,0.005l0.178,0.116
			l0.107,0.067l0.081,0.058l0.072,0.053l0.289,0.208l0.102,0.077l0.077,0.058l0.173,0.135L325,90.887l0.024,0.019l0.101,0.087
			l0.068,0.058l0.168,0.145l0.02,0.009l0.149,0.135l0.101,0.091l0.063,0.058l0.164,0.149l0.019,0.02l0.141,0.135l0.102,0.101
			l0.058,0.058l0.153,0.159l0.024,0.024l0.125,0.139l0.15,0.164l0.148,0.164l0.029,0.028l0.115,0.14l0.145,0.169l0.141,0.173
			l0.135,0.178l0.096,0.125l0.039,0.053l0.13,0.178l0.028,0.043l0.102,0.14l0.091,0.135l0.034,0.048l0.121,0.188l0.028,0.043
			l0.092,0.145l0.092,0.139l0.023,0.048l0.115,0.193l0.029,0.048l0.082,0.145l0.087,0.154l0.023,0.043l0.102,0.198l0.028,0.058
			l0.073,0.144l0.082,0.154l0.019,0.043l0.097,0.208l0.028,0.058l0.063,0.144l0.072,0.169l0.015,0.038l0.088,0.207l0.027,0.067
			l0.054,0.144l0.067,0.178l0.015,0.034l0.072,0.212l0.028,0.077l0.044,0.135l0.063,0.192l0.01,0.029l0.063,0.211l0.024,0.087
			l0.091,0.328l0.01,0.028l0.053,0.222l0.02,0.087l0.033,0.135l0.044,0.207l0.004,0.019c0.044,0.217,0.082,0.438,0.117,0.669
			l0.004,0.01c0.034,0.227,0.063,0.453,0.086,0.684v0.01l0.021,0.231l0.01,0.111l0.009,0.125l0.016,0.226v0.009l0.008,0.232
			l0.006,0.116v0.125l0.005,0.241v231.324c0,7.684-6.286,13.969-13.969,13.969H201.504l-0.227-0.005h-0.135l-0.092-0.005
			l-0.222-0.005l-0.043-0.005l-0.058-0.004l-0.251-0.015l-0.048-0.005h-0.048l-0.216-0.02l-0.087-0.01h-0.01l-0.337-0.044h-0.009
			c-0.217-0.025-0.434-0.063-0.65-0.101l-0.034-0.005l-0.178-0.033l-0.164-0.029l-0.053-0.015l-0.212-0.043l-0.072-0.02l-0.029-0.01
			l-0.308-0.071l-0.01-0.006c-0.211-0.053-0.419-0.111-0.621-0.174l-0.029-0.009l-0.029-0.01c-0.212-0.067-0.415-0.135-0.621-0.213
			l-0.135-0.048l-0.183-0.071l-0.015-0.006l-0.197-0.086l-0.101-0.039l-0.096-0.038l-0.193-0.087l-0.024-0.009l-0.173-0.083
			l-0.135-0.063l-0.246-0.125l-0.058-0.028l-0.13-0.068l-0.169-0.087l-0.02-0.014l-0.183-0.101l-0.092-0.054l-0.092-0.053
			l-0.183-0.106l-0.015-0.009l-0.164-0.106l-0.125-0.077l-0.053-0.038l-0.178-0.116l-0.048-0.028l-0.125-0.087l-0.15-0.106
			l-0.024-0.019l-0.168-0.12l-0.082-0.059l-0.087-0.072l-0.169-0.125l-0.009-0.01l-0.154-0.125l-0.106-0.087l-0.058-0.044
			l-0.159-0.14l-0.043-0.028l-0.01-0.015l-0.236-0.212l-0.029-0.025l-0.154-0.14l-0.067-0.063l-0.082-0.082l-0.15-0.149
			l-0.009-0.004l-0.14-0.145l-0.092-0.097l-0.053-0.053l-0.145-0.154l-0.034-0.038l-0.106-0.121l-0.116-0.129l-0.024-0.03
			l-0.135-0.163l-0.058-0.067l-0.077-0.096l-0.135-0.165l0,0l-0.126-0.164l-0.077-0.096l-0.053-0.072l-0.12-0.169l-0.024-0.039
			l-0.102-0.134l-0.091-0.136l-0.024-0.038c2.091,1.248,4.528,1.965,7.129,1.965h114.749c7.682,0,13.968-6.28,13.968-13.963V97.519
			c0-2.866-0.876-5.535-2.369-7.76L323.57,89.875z"/>
		<rect x="200.286" y="113.901" style="fill-rule:evenodd;clip-rule:evenodd;fill:#7B4733;" width="117.186" height="199.154"/>
		<rect x="202.93" y="116.545" style="fill-rule:evenodd;clip-rule:evenodd;fill:#57BEC2;" width="111.902" height="193.87"/>
		<polygon style="fill-rule:evenodd;clip-rule:evenodd;fill:#2EA3A4;" points="202.93,308.43 202.93,310.415 314.832,310.415 
			314.832,116.545 312.627,116.545 		"/>
		<path style="fill-rule:evenodd;clip-rule:evenodd;fill:#7B4733;" d="M249.503,333.231h18.756c3.112,0,5.66-2.548,5.66-5.659
			v-0.005c0-3.117-2.548-5.66-5.66-5.66h-18.756c-3.117,0-5.665,2.543-5.665,5.66v0.005
			C243.838,330.684,246.386,333.231,249.503,333.231z"/>
		<path style="fill-rule:evenodd;clip-rule:evenodd;fill:#7B4733;" d="M243.246,104.075c-1.523,0-2.755-1.233-2.755-2.755
			c0-1.517,1.233-2.75,2.755-2.75h31.265c1.523,0,2.756,1.233,2.756,2.75c0,1.522-1.233,2.755-2.756,2.755H243.246z"/>
		<g>
			<path style="fill-rule:evenodd;clip-rule:evenodd;fill:#7B4733;" d="M295.232,104.132c1.546,0,2.809-1.262,2.809-2.813
				c0-1.541-1.263-2.803-2.809-2.803c-1.541,0-2.803,1.261-2.803,2.803C292.43,102.871,293.691,104.132,295.232,104.132z"/>
			<path style="fill-rule:evenodd;clip-rule:evenodd;fill:#7B4733;" d="M303.151,104.672c1.845,0,3.353-1.502,3.353-3.353
				c0-1.839-1.508-3.348-3.353-3.348c-1.845,0-3.353,1.508-3.353,3.348C299.799,103.169,301.307,104.672,303.151,104.672z"/>
			<path style="fill-rule:evenodd;clip-rule:evenodd;fill:#7B4733;" d="M313.021,105.77c2.451,0,4.45-1.994,4.45-4.451
				c0-2.447-1.999-4.446-4.45-4.446c-2.452,0-4.451,1.999-4.451,4.446C308.57,103.776,310.569,105.77,313.021,105.77z"/>
		</g>
		<path style="fill-rule:evenodd;clip-rule:evenodd;fill:#FFFFFF;" d="M145.679,368.38h102.654c1.695,0,3.083,1.382,3.083,3.077
			v18.502c0,1.695-1.387,3.083-3.083,3.083H145.679c-1.701,0-3.083-1.388-3.083-3.083v-18.502
			C142.596,369.762,143.978,368.38,145.679,368.38z"/>
		<path style="fill-rule:evenodd;clip-rule:evenodd;fill:#7B4733;" d="M142.499,386.105h109.012c3.338,0,6.068,2.727,6.068,6.068
			v36.415c0,3.333-2.731,6.069-6.068,6.069H142.499c-3.338,0-6.069-2.736-6.069-6.069v-36.415
			C136.43,388.832,139.161,386.105,142.499,386.105z"/>
		<path style="fill-rule:evenodd;clip-rule:evenodd;fill:#F6C3B8;" d="M176.684,161.847c8.222,3.439,22.71,15.886,11.974,60.658
			c0,0,6.165,21.271-0.924,43.774c0,0,27.128,37.917,12.947,87.858h-54.872c0,0,1.387-51.79-2.313-85.7
			c0,0-1.85-10.789,3.854-24.508c5.703-13.718,20.659-36.226,20.659-77.227C167.788,160.252,172.142,159.949,176.684,161.847z"/>
		<path style="fill-rule:evenodd;clip-rule:evenodd;fill:#EC836C;" d="M176.684,161.847c8.222,3.439,22.71,15.886,11.974,60.658
			c0,0,6.165,21.271-0.924,43.774c0,0,27.128,37.917,12.947,87.858l-54.872,5.703c0,0,0.029-6.759,0.063-8.646
			c59.048,6.492,52.738-35.422,48.254-55.619c-4.913-22.114-23.891-25.736-16.805-30.822c7.09-5.086,8.169-17.572,6.17-28.823
			c-2.004-11.252-8.805-13.492-6.479-16.03c7.818-8.54,20.601-43.712-4.615-56.356l-4.388,3.16
			C167.788,160.252,172.142,159.949,176.684,161.847z"/>
		<path style="fill-rule:evenodd;clip-rule:evenodd;fill:#FFFFFF;" d="M164.979,193.628c1.436-7.967,2.336-16.888,2.336-26.926
			c-0.111-3.155,0.876-4.836,2.442-5.515c0.067,0.024,6.994,2.817,10.216,12.48c3.232,9.71-1.344,22.431-3.55,22.966
			c-1.984,0.487-6.122,1.749-10.538,0.434C163.736,196.431,164.565,195.925,164.979,193.628z"/>
		<path style="fill-rule:evenodd;clip-rule:evenodd;fill:#F6C3B8;" d="M329.013,266.832l-12.86,12.929
			c-5.169,5.193-5.154,13.665,0.043,18.834l0,0c5.192,5.168,13.67,5.148,18.838-0.043l12.86-12.924
			c5.169-5.192,5.149-13.67-0.043-18.838l0,0C342.653,261.621,334.181,261.641,329.013,266.832z"/>
		<path style="fill-rule:evenodd;clip-rule:evenodd;fill:#EC836C;" d="M329.013,266.832l-10.015,10.067
			c4.1,2.64,10.881,0.337,12.62-1.137c1.484-1.252,9.176-8.949,12.017-11.8C338.78,261.93,332.943,262.883,329.013,266.832
			L329.013,266.832z M313.884,282.81c0.38,4.272,2.013,9.816,7.682,11.787c8.107,2.823,22.798-9.286,30.191-18.102
			c-0.067,3.314-1.354,6.608-3.863,9.133l-12.86,12.924c-5.168,5.191-13.646,5.216-18.838,0.043l0,0
			C311.928,294.346,311.152,287.863,313.884,282.81z"/>
		<path style="fill-rule:evenodd;clip-rule:evenodd;fill:#FFFFFF;" d="M322.539,279.115l-3.098,3.107
			c-3.486,3.508-3.478,9.229,0.029,12.722l0,0c3.512,3.487,9.233,3.473,12.721-0.034l3.006-3.02
			C331.898,282.039,322.539,279.115,322.539,279.115L322.539,279.115z"/>
		<path style="fill-rule:evenodd;clip-rule:evenodd;fill:#F6C3B8;" d="M326.932,237.031l-14.108,14.176
			c-5.664,5.694-5.645,14.99,0.049,20.654h0.005c5.693,5.669,14.984,5.645,20.654-0.048l14.104-14.172
			c5.668-5.692,5.643-14.989-0.049-20.654v-0.004C341.888,231.314,332.596,231.338,326.932,237.031z"/>
		<path style="fill-rule:evenodd;clip-rule:evenodd;fill:#EC836C;" d="M326.932,237.031l-10.986,11.04
			c4.498,2.895,11.931,0.371,13.843-1.242c1.623-1.373,10.061-9.817,13.174-12.943C337.64,231.651,331.238,232.701,326.932,237.031
			L326.932,237.031z M310.338,254.55c0.419,4.686,2.211,10.771,8.425,12.929c8.892,3.092,24.999-10.183,33.104-19.846
			c-0.071,3.633-1.482,7.244-4.232,10.009l-14.104,14.172c-5.67,5.692-14.961,5.717-20.654,0.048h-0.005
			C308.189,267.204,307.348,260.099,310.338,254.55z"/>
		<path style="fill-rule:evenodd;clip-rule:evenodd;fill:#F6C3B8;" d="M326.537,208.27l-13.805,13.873
			c-5.545,5.573-5.525,14.672,0.048,20.216l0,0c5.573,5.543,14.672,5.525,20.216-0.048l13.805-13.867
			c5.549-5.578,5.525-14.672-0.048-20.221l0,0C341.18,202.679,332.086,202.698,326.537,208.27z"/>
		<path style="fill-rule:evenodd;clip-rule:evenodd;fill:#EC836C;" d="M309.697,226.676c-2.177,5.206-1.151,11.468,3.083,15.683l0,0
			c5.573,5.543,14.672,5.525,20.216-0.048l13.805-13.867c4.711-4.735,5.404-12.004,2.096-17.49
			C353.578,226.651,319.548,245.889,309.697,226.676z"/>
		<path style="fill-rule:evenodd;clip-rule:evenodd;fill:#FFFFFF;" d="M319.057,221.671l-3.391,3.41
			c-3.83,3.849-3.815,10.125,0.033,13.949l0,0c3.844,3.83,10.12,3.815,13.944-0.034l3.3-3.313
			C329.321,224.884,319.057,221.671,319.057,221.671L319.057,221.671z"/>
		<path style="fill-rule:evenodd;clip-rule:evenodd;fill:#FFFFFF;" d="M319.827,250.499l-3.396,3.41
			c-3.823,3.844-3.81,10.12,0.034,13.945l0,0c3.849,3.828,10.125,3.814,13.95-0.034l3.298-3.314
			C330.092,253.707,319.827,250.499,319.827,250.499L319.827,250.499z"/>
		<g>
			<path style="fill-rule:evenodd;clip-rule:evenodd;fill:#FFFFFF;" d="M278.648,292.761c16.416,0,29.807-13.391,29.807-29.811
				c0-16.415-13.391-29.806-29.807-29.806c-16.415,0-29.806,13.391-29.806,29.806C248.843,279.37,262.233,292.761,278.648,292.761z"
				/>
			<g>
				<path style="fill-rule:evenodd;clip-rule:evenodd;fill:#7B4733;" d="M275.586,283.075h6.993c4.47,0,8.414,2.346,10.67,5.866
					c-4.311,2.432-9.292,3.819-14.601,3.819c-5.043,0-9.787-1.257-13.953-3.463C266.911,285.58,270.971,283.075,275.586,283.075z"/>
				<path style="fill-rule:evenodd;clip-rule:evenodd;fill:#895949;" d="M264.695,289.298c0.828-1.388,1.912-2.61,3.189-3.593
					c1.007-0.261,2.066-0.395,3.149-0.395h6.994c4.417,0,8.323,2.287,10.593,5.741c-3.117,1.107-6.474,1.709-9.972,1.709
					C273.605,292.761,268.861,291.504,264.695,289.298z"/>
				<path style="fill-rule:evenodd;clip-rule:evenodd;fill:#FFFFFF;" d="M274.873,283.075h6.988c0.217,0,0.43,0.01,0.642,0.019
					c-0.087,2.197-1.913,3.975-4.134,3.975l0,0c-2.225,0-4.051-1.777-4.137-3.979C274.448,283.079,274.661,283.075,274.873,283.075z
					"/>
				<path style="fill-rule:evenodd;clip-rule:evenodd;fill:#EC836C;" d="M278.369,274.554L278.369,274.554
					c1.518,0,2.756,1.238,2.756,2.761v5.636c0,1.522-1.238,2.76-2.756,2.76l0,0c-1.517,0-2.759-1.238-2.759-2.76v-5.636
					C275.61,275.792,276.852,274.554,278.369,274.554z"/>
				<path style="fill-rule:evenodd;clip-rule:evenodd;fill:#F6C3B8;" d="M268.153,260.967c-9.205-6.972-6.748,7.933-0.799,6.626
					C272.04,266.563,268.153,260.967,268.153,260.967z"/>
				<path style="fill-rule:evenodd;clip-rule:evenodd;fill:#EC836C;" d="M267.821,261.905c-5.974-4.522-4.379,5.154-0.516,4.306
					C270.345,265.541,267.821,261.905,267.821,261.905z"/>
				<path style="fill-rule:evenodd;clip-rule:evenodd;fill:#F6C3B8;" d="M288.581,260.967c9.21-6.972,6.748,7.933,0.799,6.626
					C284.693,266.563,288.581,260.967,288.581,260.967z"/>
				<path style="fill-rule:evenodd;clip-rule:evenodd;fill:#EC836C;" d="M288.913,261.905c5.978-4.522,4.378,5.154,0.521,4.306
					C286.389,265.541,288.913,261.905,288.913,261.905z"/>
				<path style="fill-rule:evenodd;clip-rule:evenodd;fill:#F6C3B8;" d="M278.369,239.541L278.369,239.541
					c6.248,0,11.358,5.115,11.358,11.357v19.898c0,6.247-5.11,11.357-11.358,11.357l0,0c-6.247,0-11.357-5.11-11.357-11.357v-19.898
					C267.012,244.656,272.122,239.541,278.369,239.541z"/>
				<path style="fill-rule:evenodd;clip-rule:evenodd;fill:#EC836C;" d="M288.162,245.172c0.992,1.686,1.565,3.646,1.565,5.727
					v19.898c0,6.247-5.11,11.357-11.358,11.357l0,0c-3.333,0-6.348-1.459-8.43-3.761c9.461,6.155,16.527-1.84,17.288-5.27
					c0.762-3.431,0.413-20.992-0.318-22.928c-0.732-1.941-3.395-1.407-3.395-1.407l-1.845-2.823
					C284.169,245.432,286.317,245.181,288.162,245.172z"/>
				<path style="fill-rule:evenodd;clip-rule:evenodd;fill:#7B4733;" d="M281.9,257.662c0,0-0.478-0.386-0.54-0.954
					c-0.063-0.573,1.938-1.079,2.952-0.606c1.018,0.477,2.227,1.367,2.64,2.384C287.363,259.502,284.79,256.833,281.9,257.662z"/>
				<path style="fill-rule:evenodd;clip-rule:evenodd;fill:#7B4733;" d="M283.298,260.167c0.809,0,1.459,0.654,1.459,1.464
					c0,0.804-0.65,1.454-1.459,1.454c-0.806,0-1.46-0.65-1.46-1.454C281.838,260.821,282.492,260.167,283.298,260.167z"/>
				<path style="fill-rule:evenodd;clip-rule:evenodd;fill:#7B4733;" d="M274.835,257.662c0,0,0.475-0.386,0.544-0.954
					c0.063-0.573-1.941-1.079-2.958-0.606c-1.017,0.477-2.221,1.367-2.635,2.384C269.372,259.502,271.943,256.833,274.835,257.662z"
					/>
				<path style="fill-rule:evenodd;clip-rule:evenodd;fill:#7B4733;" d="M273.438,260.167c-0.805,0-1.46,0.654-1.46,1.464
					c0,0.804,0.655,1.454,1.46,1.454c0.81,0,1.464-0.65,1.464-1.454C274.901,260.821,274.247,260.167,273.438,260.167z"/>
				<path style="fill-rule:evenodd;clip-rule:evenodd;fill:#EC836C;" d="M278.369,262.863c0,0,2.953,3.536,2.953,4.143
					c0,0.607-2.953,2.822-2.953,2.822s-2.952-2.215-2.952-2.822C275.417,266.399,278.369,262.863,278.369,262.863z"/>
				<path style="fill-rule:evenodd;clip-rule:evenodd;fill:#7B4733;" d="M268.313,259.632v-4.571c0-3.882,10.129-4.354,12.634-4.691
					c1.094-0.145,2.023-0.516,2.794-0.963c0,0,0.153,1.859,2.476,2.88c2.321,1.031,2.587,2.003,3.05,3.926v3.42h2.268l0.266-0.419
					c0,0,4.498-14.07-3.858-16.854c0,0-5.636-7.201-15.347-4.35c-9.339,2.746-11.521,12.514-6.482,21.623H268.313z"/>
				<path style="fill-rule:evenodd;clip-rule:evenodd;fill:#976A5C;" d="M268.313,260.73v-4.519h-3.747
					c0.529,1.507,1.261,3.029,2.187,4.519H268.313L268.313,260.73z M289.266,256.212v4.519h1.561l0.973-1.518
					c0,0,0.39-1.215,0.727-3.001H289.266z"/>
				<g>
					<path style="fill-rule:evenodd;clip-rule:evenodd;fill:#7B4733;" d="M278.369,259.772c-0.24,0-0.434-0.192-0.434-0.434
						c0-0.236,0.193-0.434,0.434-0.434h12.48c0.241,0,0.434,0.197,0.434,0.434c0,0.241-0.192,0.434-0.434,0.434H278.369z"/>
					<path style="fill-rule:evenodd;clip-rule:evenodd;fill:#7B4733;" d="M279.434,259.473c-0.072-0.222,0.049-0.468,0.275-0.539
						c0.226-0.077,0.468,0.048,0.544,0.27c0,0.01,0.723,2.49,1.228,3.897c0.077,0.227,0.192,0.39,0.347,0.491
						c0.163,0.111,0.4,0.159,0.713,0.159l2.784,0.009c0.612,0.011,0.944,0.011,1.314-1.435l0.79-3.092
						c0.059-0.231,0.294-0.366,0.521-0.309c0.23,0.058,0.376,0.289,0.314,0.52l-0.79,3.088c-0.54,2.12-1.117,2.109-2.179,2.086
						c-0.914-0.01-1.834,0-2.754,0c-0.486,0-0.876-0.097-1.185-0.304c-0.323-0.212-0.55-0.52-0.689-0.925
						C280.146,261.939,279.439,259.482,279.434,259.473z"/>
					<path style="fill-rule:evenodd;clip-rule:evenodd;fill:#7B4733;" d="M278.369,258.904c0.237,0,0.429,0.197,0.429,0.434
						c0,0.241-0.191,0.434-0.429,0.434h-12.484c-0.241,0-0.434-0.192-0.434-0.434c0-0.236,0.192-0.434,0.434-0.434H278.369z"/>
					<path style="fill-rule:evenodd;clip-rule:evenodd;fill:#7B4733;" d="M276.486,259.203c0.072-0.222,0.317-0.347,0.539-0.27
						c0.227,0.071,0.352,0.317,0.274,0.539c0,0.01-0.713,2.466-1.228,3.916c-0.145,0.405-0.366,0.713-0.69,0.925
						c-0.309,0.207-0.697,0.304-1.185,0.304c-0.92,0-1.84-0.01-2.755,0c-1.061,0.023-1.643,0.034-2.182-2.086l-0.79-3.088
						c-0.059-0.23,0.081-0.462,0.313-0.52c0.231-0.058,0.467,0.077,0.525,0.309l0.785,3.092c0.37,1.445,0.708,1.445,1.314,1.435
						l2.789-0.009c0.313,0,0.55-0.048,0.713-0.159c0.154-0.102,0.265-0.265,0.347-0.486
						C275.759,261.698,276.481,259.213,276.486,259.203z"/>
				</g>
				<path style="fill-rule:evenodd;clip-rule:evenodd;fill:#7B4733;" d="M282.786,271.163c0,2.442-1.98,4.417-4.417,4.417
					c-2.441,0-4.416-1.975-4.416-4.417H282.786z"/>
				<path style="fill-rule:evenodd;clip-rule:evenodd;fill:#EC836C;" d="M280.783,274.097c-0.622,0.664-1.475,1.074-2.414,1.074
					c-0.938,0-1.791-0.41-2.417-1.074c0.626-0.664,1.479-1.075,2.417-1.075C279.309,273.022,280.161,273.433,280.783,274.097z"/>
				<path style="fill-rule:evenodd;clip-rule:evenodd;fill:#FFFFFF;" d="M282.367,271.163c0.015,0.072,0.024,0.149,0.024,0.226l0,0
					c0,0.55-0.453,1.003-1.007,1.003h-6.035c-0.554,0-1.002-0.453-1.002-1.003l0,0c0-0.076,0.01-0.153,0.024-0.226H282.367z"/>
			</g>
		</g>
		<g>
			<path style="fill-rule:evenodd;clip-rule:evenodd;fill:#FFFFFF;" d="M237.986,185.729c16.421,0,29.811-13.391,29.811-29.811
				c0-16.415-13.391-29.806-29.811-29.806c-16.415,0-29.806,13.391-29.806,29.806C208.18,172.338,221.57,185.729,237.986,185.729z"
				/>
			<g>
				<path style="fill-rule:evenodd;clip-rule:evenodd;fill:#F08C00;" d="M234.494,176.528h6.989c4.393,0,8.275,2.269,10.554,5.684
					c-4.186,2.24-8.969,3.517-14.046,3.517c-5.081,0-9.864-1.276-14.05-3.517C226.214,178.792,230.101,176.528,234.494,176.528z"/>
				<path style="fill-rule:evenodd;clip-rule:evenodd;fill:#F4AC4E;" d="M223.94,182.212c1.123-1.686,2.63-3.083,4.403-4.075h6.714
					c4.72,0,8.858,2.62,11.035,6.474c-2.577,0.722-5.294,1.118-8.102,1.118C232.91,185.729,228.126,184.452,223.94,182.212z"/>
				<path style="fill-rule:evenodd;clip-rule:evenodd;fill:#FFFFFF;" d="M234.494,176.528h6.989c0.217,0,0.429,0.01,0.641,0.02
					c-0.086,2.201-1.912,3.979-4.133,3.979l0,0c-2.225,0-4.05-1.783-4.138-3.979C234.065,176.538,234.277,176.528,234.494,176.528z"
					/>
				<path style="fill-rule:evenodd;clip-rule:evenodd;fill:#EC836C;" d="M237.991,168.725L237.991,168.725
					c1.518,0,2.755,1.238,2.755,2.755v4.922c0,1.522-1.238,2.765-2.755,2.765l0,0c-1.517,0-2.76-1.243-2.76-2.765v-4.922
					C235.231,169.963,236.474,168.725,237.991,168.725z"/>
				<g>
					<path style="fill-rule:evenodd;clip-rule:evenodd;fill:#F6C3B8;" d="M227.775,153.928c-9.205-6.965-6.748,7.938-0.8,6.633
						C231.662,159.53,227.775,153.928,227.775,153.928z"/>
					<path style="fill-rule:evenodd;clip-rule:evenodd;fill:#EC836C;" d="M227.442,154.872c-5.973-4.528-4.378,5.154-0.52,4.306
						C229.966,158.504,227.442,154.872,227.442,154.872z"/>
					<path style="fill-rule:evenodd;clip-rule:evenodd;fill:#F6C3B8;" d="M248.203,153.928c9.205-6.965,6.749,7.938,0.799,6.633
						C244.315,159.53,248.203,153.928,248.203,153.928z"/>
					<path style="fill-rule:evenodd;clip-rule:evenodd;fill:#EC836C;" d="M248.535,154.872c5.973-4.528,4.378,5.154,0.52,4.306
						C246.011,158.504,248.535,154.872,248.535,154.872z"/>
					<path style="fill-rule:evenodd;clip-rule:evenodd;fill:#F6C3B8;" d="M237.986,132.508L237.986,132.508
						c6.252,0,11.363,5.11,11.363,11.357v19.898c0,6.243-5.111,11.358-11.363,11.358l0,0c-6.242,0-11.357-5.116-11.357-11.358
						v-19.898C226.628,137.619,231.744,132.508,237.986,132.508z"/>
					<path style="fill-rule:evenodd;clip-rule:evenodd;fill:#EC836C;" d="M247.784,138.134c0.992,1.686,1.565,3.646,1.565,5.736
						v19.893c0,6.243-5.115,11.358-11.363,11.358l0,0c-3.333,0-6.343-1.46-8.424-3.767c9.455,6.156,16.521-1.835,17.287-5.265
						c0.761-3.429,0.415-20.996-0.317-22.933c-0.732-1.936-3.396-1.406-3.396-1.406l-1.845-2.818
						C243.79,138.394,245.934,138.148,247.784,138.134z"/>
					<path style="fill-rule:evenodd;clip-rule:evenodd;fill:#7B4733;" d="M241.521,150.624c0,0-0.477-0.385-0.54-0.954
						c-0.063-0.568,1.937-1.079,2.953-0.602c1.017,0.477,2.221,1.363,2.635,2.384C246.983,152.464,244.412,149.795,241.521,150.624z
						"/>
					<path style="fill-rule:evenodd;clip-rule:evenodd;fill:#7B4733;" d="M242.918,153.128c0.804,0,1.459,0.655,1.459,1.464
						c0,0.809-0.655,1.464-1.459,1.464c-0.809,0-1.464-0.655-1.464-1.464C241.454,153.784,242.109,153.128,242.918,153.128z"/>
					<path style="fill-rule:evenodd;clip-rule:evenodd;fill:#7B4733;" d="M234.455,150.624c0,0,0.477-0.385,0.54-0.954
						c0.067-0.568-1.936-1.079-2.953-0.602c-1.016,0.477-2.22,1.363-2.635,2.384C228.993,152.464,231.565,149.795,234.455,150.624z"
						/>
					<path style="fill-rule:evenodd;clip-rule:evenodd;fill:#7B4733;" d="M233.059,153.128c-0.805,0-1.46,0.655-1.46,1.464
						c0,0.809,0.655,1.464,1.46,1.464s1.464-0.655,1.464-1.464C234.523,153.784,233.863,153.128,233.059,153.128z"/>
					<path style="fill-rule:evenodd;clip-rule:evenodd;fill:#EC836C;" d="M237.986,154.13c0,0,2.953,3.54,2.953,4.143
						c0,0.607-2.953,2.832-2.953,2.832s-2.952-2.225-2.952-2.832C235.034,157.671,237.986,154.13,237.986,154.13z"/>
					<g>
						<path style="fill-rule:evenodd;clip-rule:evenodd;fill:#976A5C;" d="M226.368,153.697c0,0,0,0.81,0,11.608
							c0,10.799,12.042,11.208,12.042,11.208s12.038-0.409,12.038-11.208c0-10.799,0-11.608,0-11.608l-1.561,0.27
							c0,1.426,0,3.598,0,3.598s-0.409,4.417-2.177,5.332c0,0-1.729-3.468-4.586-3.468c-2.851,0-3.714,0-3.714,0s-0.867,0-3.718,0
							c-2.851,0-4.585,3.468-4.585,3.468c-1.768-0.915-2.172-5.332-2.172-5.332s0-2.172,0-3.598L226.368,153.697L226.368,153.697z
							 M238.41,166.403c-0.852-0.043-1.57-0.164-2.172-0.332c-4.263-1.204-3.704-5.448-1.074-5.448h3.246h3.242
							c2.63,0,3.189,4.244-1.074,5.448C239.975,166.24,239.258,166.36,238.41,166.403z"/>
						<path style="fill-rule:evenodd;clip-rule:evenodd;fill:#976A5C;" d="M226.368,154.781l1.565-0.814c0,0,0-4.99,0-5.944
							c0-3.882,10.13-4.345,12.629-4.687c3.771-0.506,5.573-3.636,5.573-3.636c1.729,0.443,2.751,3.939,2.751,6.931
							c0,2.991,0,7.336,0,7.336l0.882,2.138l0.679-2.413l0.972-1.512c0,0,4.495-14.07-3.857-16.858c0,0-5.636-7.201-15.346-4.345
							c-9.715,2.852-11.69,13.309-5.848,22.716V154.781z"/>
					</g>
					<g>
						<path style="fill-rule:evenodd;clip-rule:evenodd;fill:#7B4733;" d="M233.849,175.565c2.452,0.877,4.561,0.949,4.561,0.949
							s12.038-0.409,12.038-11.208c0-10.799,0-11.608,0-11.608l-1.561,0.27c0,1.426,0,3.598,0,3.598s-0.409,4.417-2.177,5.332
							c0,0-1.012-2.028-2.765-2.977C244.431,160.951,250.023,173.571,233.849,175.565z"/>
						<path style="fill-rule:evenodd;clip-rule:evenodd;fill:#7B4733;" d="M227.957,147.714c0.521-3.598,10.173-4.051,12.606-4.378
							c3.771-0.506,5.573-3.636,5.573-3.636c1.729,0.443,2.751,3.939,2.751,6.931c0,2.986,0,7.336,0,7.336l0.882,2.138l0.679-2.408
							l0.972-1.517c0,0,4.495-14.07-3.857-16.858c0,0-1.113-1.421-3.199-2.751c0.159,0.121,3.174,2.389,0.645,5.742
							c-2.601,3.439-17.234,3.343-17.157,9.364L227.957,147.714z"/>
					</g>
					<path style="fill-rule:evenodd;clip-rule:evenodd;fill:#976A5C;" d="M227.934,153.692v-4.513h-3.752
						c0.535,1.503,1.262,3.025,2.187,4.513H227.934L227.934,153.692z M248.886,149.179v4.513h1.561l0.972-1.512
						c0,0,0.387-1.219,0.724-3.001H248.886z"/>
					<g>
						<path style="fill-rule:evenodd;clip-rule:evenodd;fill:#7B4733;" d="M237.986,152.738c-0.236,0-0.428-0.197-0.428-0.434
							c0-0.236,0.192-0.433,0.428-0.433h12.485c0.241,0,0.434,0.197,0.434,0.433c0,0.236-0.193,0.434-0.434,0.434H237.986z"/>
						<path style="fill-rule:evenodd;clip-rule:evenodd;fill:#7B4733;" d="M239.055,152.439c-0.072-0.226,0.048-0.467,0.275-0.544
							c0.226-0.077,0.467,0.048,0.54,0.274c0.005,0.005,0.727,2.49,1.228,3.892c0.082,0.227,0.192,0.395,0.347,0.496
							c0.169,0.106,0.4,0.159,0.718,0.159l2.784,0.004c0.607,0.015,0.944,0.01,1.315-1.435l0.79-3.088
							c0.058-0.231,0.293-0.371,0.52-0.313c0.231,0.058,0.371,0.294,0.313,0.525l-0.79,3.087c-0.54,2.12-1.118,2.11-2.177,2.086
							c-0.92-0.015-1.84-0.005-2.755-0.005c-0.486,0-0.876-0.096-1.189-0.299c-0.323-0.212-0.544-0.52-0.689-0.924
							C239.769,154.901,239.055,152.445,239.055,152.439z"/>
						<path style="fill-rule:evenodd;clip-rule:evenodd;fill:#7B4733;" d="M237.986,151.872c0.241,0,0.434,0.197,0.434,0.433
							c0,0.236-0.193,0.434-0.434,0.434h-12.48c-0.241,0-0.433-0.197-0.433-0.434c0-0.236,0.192-0.433,0.433-0.433H237.986z"/>
						<path style="fill-rule:evenodd;clip-rule:evenodd;fill:#7B4733;" d="M236.103,152.17c0.077-0.227,0.317-0.352,0.544-0.274
							c0.226,0.077,0.347,0.318,0.275,0.544c0,0.005-0.713,2.461-1.229,3.912c-0.145,0.41-0.371,0.718-0.688,0.929
							c-0.314,0.203-0.704,0.299-1.19,0.299c-0.915,0-1.835-0.01-2.755,0.005c-1.06,0.024-1.637,0.034-2.182-2.086l-0.785-3.087
							c-0.058-0.231,0.082-0.468,0.313-0.525c0.226-0.058,0.462,0.082,0.52,0.313l0.79,3.088c0.371,1.445,0.708,1.45,1.315,1.435
							l2.784-0.004c0.318,0,0.549-0.053,0.718-0.159c0.154-0.101,0.265-0.27,0.347-0.491
							C235.375,154.66,236.103,152.175,236.103,152.17z"/>
					</g>
				</g>
			</g>
		</g>
		<path style="fill-rule:evenodd;clip-rule:evenodd;fill:#F08C00;" d="M288.114,128.756h134.771c3.969,0,7.215,3.246,7.215,7.22
			V188.3c0,3.969-3.246,7.215-7.215,7.215H288.114c-3.97,0-7.217-3.246-7.217-7.215v-1.512c-7.837,0.105-12.937-6.339-12.937-6.339
			c5.313,0.578,9.87-4.653,12.937-9.605v-34.868C280.897,132.002,284.145,128.756,288.114,128.756z"/>
		<path style="fill-rule:evenodd;clip-rule:evenodd;fill:#7B4733;" d="M293.383,142.729c-0.77,0-1.396-0.626-1.396-1.396
			c0-0.776,0.626-1.402,1.396-1.402h33.603c0.775,0,1.401,0.626,1.401,1.402c0,0.77-0.626,1.396-1.401,1.396H293.383
			L293.383,142.729z M293.383,184.341c-0.77,0-1.396-0.626-1.396-1.397c0-0.77,0.626-1.396,1.396-1.396h55.956
			c0.771,0,1.397,0.626,1.397,1.396c0,0.771-0.627,1.397-1.397,1.397H293.383L293.383,184.341z M293.383,170.469
			c-0.77,0-1.396-0.626-1.396-1.397c0-0.77,0.626-1.396,1.396-1.396h24.089c0.772,0,1.397,0.626,1.397,1.396
			c0,0.771-0.626,1.397-1.397,1.397H293.383L293.383,170.469z M325.751,170.469c-0.771,0-1.397-0.626-1.397-1.397
			c0-0.77,0.626-1.396,1.397-1.396h91.864c0.771,0,1.397,0.626,1.397,1.396c0,0.771-0.626,1.397-1.397,1.397H325.751
			L325.751,170.469z M293.383,156.602c-0.77,0-1.396-0.631-1.396-1.401c0-0.771,0.626-1.397,1.396-1.397h79.924
			c0.772,0,1.398,0.626,1.398,1.397c0,0.77-0.626,1.401-1.398,1.401H293.383L293.383,156.602z M384.559,156.602
			c-0.775,0-1.401-0.631-1.401-1.401c0-0.771,0.626-1.397,1.401-1.397h33.057c0.771,0,1.397,0.626,1.397,1.397
			c0,0.77-0.626,1.401-1.397,1.401H384.559L384.559,156.602z M333.381,142.729c-0.77,0-1.396-0.626-1.396-1.396
			c0-0.776,0.626-1.402,1.396-1.402h84.234c0.771,0,1.397,0.626,1.397,1.402c0,0.77-0.626,1.396-1.397,1.396H333.381z"/>
		<path style="fill-rule:evenodd;clip-rule:evenodd;fill:#FFFFFF;" d="M95.753,229.575h134.772c3.969,0,7.215,3.247,7.215,7.22
			v31.448c2.626,5.573,8.02,14.722,14.928,14.138c0,0-6.085,7.321-14.928,5.839v0.896c0,3.97-3.246,7.216-7.215,7.216H95.753
			c-3.969,0-7.215-3.246-7.215-7.216v-52.32C88.538,232.822,91.784,229.575,95.753,229.575z"/>
		<path style="fill-rule:evenodd;clip-rule:evenodd;fill:#7B4733;" d="M101.022,243.548c-0.775,0-1.402-0.626-1.402-1.401
			c0-0.771,0.627-1.397,1.402-1.397h33.601c0.775,0,1.402,0.626,1.402,1.397c0,0.775-0.626,1.401-1.402,1.401H101.022
			L101.022,243.548z M101.022,285.155c-0.775,0-1.402-0.626-1.402-1.397c0-0.77,0.627-1.396,1.402-1.396h55.956
			c0.77,0,1.396,0.626,1.396,1.396c0,0.771-0.626,1.397-1.396,1.397H101.022L101.022,285.155z M101.022,271.288
			c-0.775,0-1.402-0.626-1.402-1.401c0-0.77,0.627-1.397,1.402-1.397h24.089c0.77,0,1.396,0.627,1.396,1.397
			c0,0.775-0.627,1.401-1.396,1.401H101.022L101.022,271.288z M133.391,271.288c-0.775,0-1.402-0.626-1.402-1.401
			c0-0.77,0.626-1.397,1.402-1.397h91.864c0.771,0,1.397,0.627,1.397,1.397c0,0.775-0.626,1.401-1.397,1.401H133.391
			L133.391,271.288z M101.022,257.416c-0.775,0-1.402-0.626-1.402-1.396c0-0.775,0.627-1.401,1.402-1.401h79.924
			c0.771,0,1.397,0.626,1.397,1.401c0,0.771-0.626,1.396-1.397,1.396H101.022L101.022,257.416z M192.194,257.416
			c-0.771,0-1.397-0.626-1.397-1.396c0-0.775,0.626-1.401,1.397-1.401h33.062c0.771,0,1.397,0.626,1.397,1.401
			c0,0.771-0.626,1.396-1.397,1.396H192.194L192.194,257.416z M141.02,243.548c-0.77,0-1.396-0.626-1.396-1.401
			c0-0.771,0.626-1.397,1.396-1.397h84.235c0.771,0,1.397,0.626,1.397,1.397c0,0.775-0.626,1.401-1.397,1.401H141.02z"/>
		<path style="fill-rule:evenodd;clip-rule:evenodd;fill:#F6C3B8;" d="M228.603,371.457v4.446v10.202h22.812v-14.648
			c0-1.695-1.387-3.077-3.083-3.077H225.52C227.216,368.38,228.603,369.762,228.603,371.457z"/>
		<path style="fill-rule:evenodd;clip-rule:evenodd;fill:#522823;" d="M251.415,386.105h-22.812h-6.994
			c3.338,0,6.069,2.727,6.069,6.068v0.868v35.547c0,3.333-2.731,6.069-6.069,6.069h29.902c3.338,0,6.068-2.736,6.068-6.069v-36.415
			c0-3.342-2.731-6.068-6.068-6.068H251.415z"/>
		<g>
			<path style="fill-rule:evenodd;clip-rule:evenodd;fill:#2EA3A4;" d="M389.337,444.031c32.749,0,59.453-26.704,59.453-59.448
				c0-32.745-26.704-59.448-59.453-59.448c-32.738,0-59.447,26.703-59.447,59.448C329.89,417.327,356.599,444.031,389.337,444.031z"
				/>
			<g>
				<path style="fill-rule:evenodd;clip-rule:evenodd;fill:#7B4733;" d="M383.234,424.716h13.939
					c8.916,0,16.787,4.683,21.285,11.704c-8.602,4.847-18.534,7.611-29.122,7.611c-10.052,0-19.521-2.5-27.826-6.907
					C365.924,429.711,374.02,424.716,383.234,424.716z"/>
				<path style="fill-rule:evenodd;clip-rule:evenodd;fill:#895949;" d="M361.511,437.124c1.648-2.77,3.811-5.202,6.358-7.162
					c2.014-0.521,4.118-0.795,6.286-0.795h13.939c8.815,0,16.603,4.571,21.126,11.454c-6.214,2.206-12.909,3.41-19.884,3.41
					C379.285,444.031,369.815,441.531,361.511,437.124z"/>
				<path style="fill-rule:evenodd;clip-rule:evenodd;fill:#FFFFFF;" d="M381.805,424.716h13.943c0.429,0,0.853,0.01,1.276,0.029
					c-0.169,4.393-3.81,7.934-8.245,7.934l0,0c-4.433,0-8.078-3.541-8.247-7.934C380.956,424.726,381.38,424.716,381.805,424.716z"
					/>
				<path style="fill-rule:evenodd;clip-rule:evenodd;fill:#EC836C;" d="M388.779,407.718L388.779,407.718
					c3.028,0,5.505,2.472,5.505,5.506v11.242c0,3.029-2.477,5.501-5.505,5.501l0,0c-3.026,0-5.501-2.472-5.501-5.501v-11.242
					C383.278,410.19,385.753,407.718,388.779,407.718z"/>
				<path style="fill-rule:evenodd;clip-rule:evenodd;fill:#F6C3B8;" d="M368.408,380.614
					c-18.361-13.896-13.458,15.828-1.595,13.227C376.164,391.789,368.408,380.614,368.408,380.614z"/>
				<path style="fill-rule:evenodd;clip-rule:evenodd;fill:#EC836C;" d="M367.748,382.492c-11.916-9.017-8.736,10.279-1.035,8.584
					C372.781,389.746,367.748,382.492,367.748,382.492z"/>
				<path style="fill-rule:evenodd;clip-rule:evenodd;fill:#F6C3B8;" d="M409.148,380.614c18.361-13.896,13.458,15.828,1.599,13.227
					C401.398,391.789,409.148,380.614,409.148,380.614z"/>
				<path style="fill-rule:evenodd;clip-rule:evenodd;fill:#EC836C;" d="M409.813,382.492c11.916-9.017,8.732,10.279,1.035,8.584
					C404.779,389.746,409.813,382.492,409.813,382.492z"/>
				<path style="fill-rule:evenodd;clip-rule:evenodd;fill:#F6C3B8;" d="M388.779,337.89L388.779,337.89
					c12.46,0,22.652,10.192,22.652,22.658v39.681c0,12.455-10.192,22.652-22.652,22.652l0,0c-12.457,0-22.654-10.197-22.654-22.652
					v-39.681C366.125,348.082,376.322,337.89,388.779,337.89z"/>
				<path style="fill-rule:evenodd;clip-rule:evenodd;fill:#EC836C;" d="M408.314,349.117c1.98,3.357,3.121,7.268,3.121,11.431
					v39.681c0,12.455-10.196,22.649-22.656,22.649l0,0c-6.648,0-12.654-2.9-16.807-7.505c18.862,12.282,32.957-3.661,34.474-10.501
					c1.522-6.84,0.828-41.877-0.627-45.74c-1.459-3.863-6.776-2.803-6.776-2.803l-3.68-5.621
					C400.352,349.633,404.63,349.136,408.314,349.117z"/>
				<path style="fill-rule:evenodd;clip-rule:evenodd;fill:#7B4733;" d="M395.825,374.024c0,0-0.948-0.761-1.073-1.902
					c-0.131-1.141,3.861-2.153,5.891-1.199c2.022,0.944,4.431,2.721,5.254,4.749C406.72,377.7,401.591,372.377,395.825,374.024z"/>
				<path style="fill-rule:evenodd;clip-rule:evenodd;fill:#7B4733;" d="M398.613,379.024c1.605,0,2.91,1.306,2.91,2.915
					c0,1.608-1.305,2.913-2.91,2.913c-1.613,0-2.918-1.305-2.918-2.913C395.695,380.33,397,379.024,398.613,379.024z"/>
				<path style="fill-rule:evenodd;clip-rule:evenodd;fill:#7B4733;" d="M381.736,374.024c0,0,0.949-0.761,1.079-1.902
					c0.125-1.141-3.868-2.153-5.896-1.199c-2.028,0.944-4.432,2.721-5.255,4.749C370.841,377.7,375.971,372.377,381.736,374.024z"/>
				<path style="fill-rule:evenodd;clip-rule:evenodd;fill:#7B4733;" d="M378.947,379.024c-1.608,0-2.914,1.306-2.914,2.915
					c0,1.608,1.306,2.913,2.914,2.913s2.914-1.305,2.914-2.913C381.861,380.33,380.556,379.024,378.947,379.024z"/>
				<path style="fill-rule:evenodd;clip-rule:evenodd;fill:#EC836C;" d="M388.779,384.399c0,0,5.89,7.061,5.89,8.267
					c0,1.203-5.89,5.635-5.89,5.635s-5.887-4.432-5.887-5.635C382.893,391.461,388.779,384.399,388.779,384.399z"/>
				<path style="fill-rule:evenodd;clip-rule:evenodd;fill:#7B4733;" d="M368.727,377.955v-9.123c0-7.735,20.201-8.67,25.191-9.345
					c2.186-0.294,4.041-1.03,5.573-1.927c0,0,0.317,3.705,4.941,5.752c4.629,2.047,5.154,3.992,6.079,7.827v6.816h4.522l0.535-0.828
					c0,0,8.964-28.067-7.697-33.621c0,0-11.242-14.358-30.61-8.67c-18.621,5.472-22.977,24.956-12.933,43.119H368.727z"/>
				<path style="fill-rule:evenodd;clip-rule:evenodd;fill:#976A5C;" d="M368.727,380.142v-9.002h-7.48
					c1.06,3.011,2.52,6.035,4.364,9.002H368.727L368.727,380.142z M410.512,371.14v9.002h3.111l1.946-3.015
					c0,0,0.771-2.429,1.444-5.987H410.512z"/>
				<g>
					<path style="fill-rule:evenodd;clip-rule:evenodd;fill:#7B4733;" d="M388.779,378.234c-0.474,0-0.857-0.385-0.857-0.857
						c0-0.477,0.384-0.866,0.857-0.866h24.901c0.472,0,0.857,0.39,0.857,0.866c0,0.473-0.386,0.857-0.857,0.857H388.779z"/>
					<path style="fill-rule:evenodd;clip-rule:evenodd;fill:#7B4733;" d="M390.907,377.647c-0.149-0.453,0.097-0.935,0.544-1.088
						c0.453-0.145,0.939,0.102,1.084,0.548c0.005,0.011,1.445,4.962,2.447,7.767c0.164,0.457,0.385,0.789,0.689,0.983
						c0.332,0.212,0.799,0.322,1.43,0.322l5.554,0.01c1.214,0.024,1.884,0.019,2.62-2.866l1.575-6.156
						c0.115-0.462,0.588-0.741,1.045-0.626c0.458,0.121,0.742,0.588,0.627,1.05l-1.575,6.156c-1.084,4.225-2.235,4.2-4.35,4.162
						c-1.83-0.024-3.666-0.011-5.496-0.011c-0.973,0-1.748-0.192-2.364-0.597c-0.647-0.424-1.09-1.04-1.378-1.85
						C392.328,382.555,390.912,377.656,390.907,377.647z"/>
					<path style="fill-rule:evenodd;clip-rule:evenodd;fill:#7B4733;" d="M388.779,376.511c0.476,0,0.861,0.39,0.861,0.866
						c0,0.473-0.386,0.857-0.861,0.857h-24.898c-0.477,0-0.862-0.385-0.862-0.857c0-0.477,0.386-0.866,0.862-0.866H388.779z"/>
					<path style="fill-rule:evenodd;clip-rule:evenodd;fill:#7B4733;" d="M385.021,377.106c0.154-0.446,0.636-0.692,1.084-0.548
						c0.453,0.153,0.693,0.635,0.549,1.088c-0.005,0.01-1.426,4.908-2.456,7.804c-0.29,0.81-0.732,1.426-1.373,1.845
						c-0.616,0.409-1.397,0.602-2.365,0.602c-1.831,0-3.665-0.014-5.496,0.011c-2.114,0.038-3.271,0.063-4.349-4.162l-1.576-6.156
						c-0.115-0.462,0.164-0.929,0.627-1.05c0.457-0.115,0.925,0.164,1.04,0.626l1.575,6.156c0.736,2.885,1.411,2.891,2.625,2.866
						l5.554-0.01c0.626,0,1.093-0.11,1.421-0.322c0.313-0.203,0.535-0.525,0.693-0.978
						C383.576,382.073,385.021,377.117,385.021,377.106z"/>
				</g>
				<path style="fill-rule:evenodd;clip-rule:evenodd;fill:#7B4733;" d="M397.588,400.955c0,4.865-3.94,8.809-8.809,8.809
					c-4.865,0-8.811-3.944-8.811-8.809H397.588z"/>
				<path style="fill-rule:evenodd;clip-rule:evenodd;fill:#EC836C;" d="M393.596,406.807c-1.243,1.33-2.944,2.145-4.816,2.145
					c-1.875,0-3.574-0.815-4.817-2.145c1.243-1.323,2.942-2.147,4.817-2.147C390.651,404.659,392.352,405.483,393.596,406.807z"/>
				<path style="fill-rule:evenodd;clip-rule:evenodd;fill:#FFFFFF;" d="M396.75,400.955c0.034,0.145,0.054,0.294,0.054,0.447l0,0
					c0,1.099-0.9,2.005-2.004,2.005h-12.037c-1.104,0-2.004-0.906-2.004-2.005l0,0c0-0.153,0.02-0.303,0.053-0.447H396.75z"/>
			</g>
		</g>
		<g>
			<path style="fill-rule:evenodd;clip-rule:evenodd;fill:#6FB6E5;" d="M110.637,161.823c32.176,0,58.418-26.237,58.418-58.413
				c0-32.176-26.242-58.415-58.418-58.415c-32.171,0-58.413,26.239-58.413,58.415C52.224,135.586,78.466,161.823,110.637,161.823z"
				/>
			<g>
				<path style="fill-rule:evenodd;clip-rule:evenodd;fill:#F08C00;" d="M103.787,143.803h13.699
					c8.607,0,16.223,4.441,20.678,11.136c-8.203,4.393-17.572,6.883-27.528,6.883c-9.952,0-19.325-2.49-27.528-6.883
					C87.57,148.244,95.185,143.803,103.787,143.803z"/>
				<path style="fill-rule:evenodd;clip-rule:evenodd;fill:#F4AC4E;" d="M83.109,154.939c2.197-3.299,5.154-6.05,8.622-7.986h13.164
					c9.253,0,17.359,5.124,21.627,12.682c-5.047,1.421-10.375,2.187-15.885,2.187C100.685,161.823,91.312,159.333,83.109,154.939z"
					/>
				<path style="fill-rule:evenodd;clip-rule:evenodd;fill:#FFFFFF;" d="M103.787,143.803h13.699c0.423,0,0.838,0.01,1.252,0.029
					c-0.164,4.315-3.742,7.794-8.102,7.794l0,0c-4.354,0-7.933-3.478-8.097-7.794C102.954,143.813,103.368,143.803,103.787,143.803z
					"/>
				<path style="fill-rule:evenodd;clip-rule:evenodd;fill:#EC836C;" d="M110.637,128.505L110.637,128.505
					c2.977,0,5.409,2.427,5.409,5.404v9.648c0,2.977-2.433,5.41-5.409,5.41l0,0c-2.972,0-5.404-2.433-5.404-5.41v-9.648
					C105.232,130.933,107.665,128.505,110.637,128.505z"/>
				<g>
					<path style="fill-rule:evenodd;clip-rule:evenodd;fill:#F6C3B8;" d="M90.623,99.508c-18.043-13.655-13.222,15.553-1.57,12.996
						C98.238,110.491,90.623,99.508,90.623,99.508z"/>
					<path style="fill-rule:evenodd;clip-rule:evenodd;fill:#EC836C;" d="M89.973,101.358c-11.71-8.863-8.583,10.096-1.016,8.434
						C94.92,108.487,89.973,101.358,89.973,101.358z"/>
					<path style="fill-rule:evenodd;clip-rule:evenodd;fill:#F6C3B8;" d="M130.655,99.508c18.039-13.655,13.222,15.553,1.57,12.996
						C123.035,110.491,130.655,99.508,130.655,99.508z"/>
					<path style="fill-rule:evenodd;clip-rule:evenodd;fill:#EC836C;" d="M131.301,101.358c11.714-8.863,8.583,10.096,1.021,8.434
						C126.359,108.487,131.301,101.358,131.301,101.358z"/>
					<path style="fill-rule:evenodd;clip-rule:evenodd;fill:#F6C3B8;" d="M110.637,57.53L110.637,57.53
						c12.244,0,22.258,10.014,22.258,22.258v38.992c0,12.244-10.014,22.258-22.258,22.258l0,0
						c-12.239,0-22.258-10.014-22.258-22.258V79.789C88.378,67.544,98.397,57.53,110.637,57.53z"/>
					<path style="fill-rule:evenodd;clip-rule:evenodd;fill:#EC836C;" d="M129.831,68.561c1.946,3.3,3.064,7.144,3.064,11.233
						v38.987c0,12.244-10.014,22.258-22.258,22.258l0,0c-6.532,0-12.432-2.852-16.512-7.375
						c18.53,12.066,32.378-3.598,33.876-10.322c1.493-6.724,0.809-41.144-0.622-44.94c-1.436-3.796-6.662-2.751-6.662-2.751
						l-3.612-5.525C122.009,69.071,126.209,68.58,129.831,68.561z"/>
					<path style="fill-rule:evenodd;clip-rule:evenodd;fill:#7B4733;" d="M117.559,93.035c0,0-0.935-0.751-1.055-1.869
						c-0.125-1.118,3.795-2.115,5.79-1.185c1.989,0.934,4.354,2.678,5.164,4.672C128.266,96.647,123.223,91.416,117.559,93.035z"/>
					<path style="fill-rule:evenodd;clip-rule:evenodd;fill:#7B4733;" d="M120.299,97.948c1.58,0,2.861,1.281,2.861,2.861
						c0,1.585-1.281,2.866-2.861,2.866c-1.58,0-2.866-1.281-2.866-2.866C117.433,99.229,118.719,97.948,120.299,97.948z"/>
					<path style="fill-rule:evenodd;clip-rule:evenodd;fill:#7B4733;" d="M103.715,93.035c0,0,0.934-0.751,1.059-1.869
						c0.125-1.118-3.795-2.115-5.789-1.185c-1.994,0.934-4.354,2.678-5.164,4.672C93.012,96.647,98.05,91.416,103.715,93.035z"/>
					<path style="fill-rule:evenodd;clip-rule:evenodd;fill:#7B4733;" d="M100.979,97.948c-1.584,0-2.866,1.281-2.866,2.861
						c0,1.585,1.281,2.866,2.866,2.866c1.58,0,2.861-1.281,2.861-2.866C103.84,99.229,102.559,97.948,100.979,97.948z"/>
					<path style="fill-rule:evenodd;clip-rule:evenodd;fill:#EC836C;" d="M110.637,99.908c0,0,5.785,6.941,5.785,8.121
						c0,1.18-5.785,5.54-5.785,5.54s-5.785-4.359-5.785-5.54C104.852,106.849,110.637,99.908,110.637,99.908z"/>
					<g>
						<path style="fill-rule:evenodd;clip-rule:evenodd;fill:#976A5C;" d="M87.868,99.051c0,0,0,1.595,0,22.759
							c0,21.165,23.593,21.959,23.593,21.959s23.592-0.794,23.592-21.959c0-21.165,0-22.759,0-22.759l-3.063,0.53
							c0,2.799,0,7.057,0,7.057s-0.8,8.651-4.258,10.443c0,0-3.396-6.782-8.988-6.782c-5.588,0-7.283,0-7.283,0s-1.695,0-7.283,0
							c-5.592,0-8.988,6.782-8.988,6.782c-3.458-1.792-4.258-10.443-4.258-10.443s0-4.258,0-7.057L87.868,99.051L87.868,99.051z
							 M111.46,123.963c-1.666-0.091-3.073-0.322-4.253-0.655c-8.352-2.365-7.259-10.679-2.104-10.679h6.358h6.353
							c5.159,0,6.252,8.314-2.1,10.679C114.533,123.641,113.127,123.872,111.46,123.963z"/>
						<path style="fill-rule:evenodd;clip-rule:evenodd;fill:#976A5C;" d="M87.868,101.18l3.064-1.6c0,0,0-9.783,0-11.642
							c0-7.601,19.85-8.526,24.758-9.19c7.384-0.993,10.91-7.119,10.91-7.119c3.396,0.867,5.39,7.726,5.39,13.578
							c0,5.857,0,14.373,0,14.373l1.729,4.195l1.334-4.73l1.907-2.967c0,0,8.81-27.571-7.562-33.033c0,0-11.045-14.106-30.076-8.516
							c-19.036,5.59-22.904,26.087-11.455,44.516V101.18z"/>
					</g>
					<g>
						<path style="fill-rule:evenodd;clip-rule:evenodd;fill:#7B4733;" d="M102.525,141.915c4.802,1.715,8.935,1.855,8.935,1.855
							s23.592-0.794,23.592-21.959c0-21.165,0-22.759,0-22.759l-3.063,0.535c0,2.794,0,7.052,0,7.052s-0.8,8.651-4.258,10.443
							c0,0-1.99-3.969-5.419-5.833C123.266,113.275,134.219,137.994,102.525,141.915z"/>
						<path style="fill-rule:evenodd;clip-rule:evenodd;fill:#7B4733;" d="M90.979,87.332c1.026-7.047,19.937-7.934,24.71-8.584
							c7.384-0.993,10.91-7.119,10.91-7.119c3.396,0.867,5.39,7.721,5.39,13.578c0,5.857,0,14.378,0,14.378l1.729,4.19l1.334-4.725
							l1.907-2.972c0,0,8.81-27.571-7.562-33.033c0,0-2.182-2.782-6.271-5.385c0.323,0.233,6.223,4.677,1.272,11.242
							c-5.096,6.744-33.78,6.551-33.626,18.352L90.979,87.332z"/>
					</g>
					<path style="fill-rule:evenodd;clip-rule:evenodd;fill:#976A5C;" d="M90.932,99.046v-8.843h-7.351
						c1.045,2.953,2.476,5.925,4.287,8.843H90.932L90.932,99.046z M131.989,90.203v8.843h3.063l1.907-2.967
						c0,0,0.756-2.379,1.416-5.877H131.989z"/>
					<g>
						<path style="fill-rule:evenodd;clip-rule:evenodd;fill:#7B4733;" d="M110.637,97.177c-0.467,0-0.843-0.38-0.843-0.848
							c0-0.472,0.375-0.848,0.843-0.848h24.464c0.467,0,0.848,0.375,0.848,0.848c0,0.467-0.38,0.848-0.848,0.848H110.637z"/>
						<path style="fill-rule:evenodd;clip-rule:evenodd;fill:#7B4733;" d="M112.727,96.589c-0.144-0.443,0.097-0.915,0.539-1.059
							c0.438-0.15,0.915,0.096,1.06,0.529c0.009,0.02,1.425,4.879,2.403,7.635c0.164,0.448,0.385,0.775,0.684,0.968
							c0.323,0.207,0.786,0.313,1.402,0.313l5.452,0.009c1.2,0.024,1.854,0.02,2.582-2.818l1.546-6.05
							c0.111-0.448,0.573-0.722,1.026-0.611c0.453,0.12,0.728,0.578,0.612,1.026l-1.546,6.05c-1.064,4.152-2.196,4.133-4.272,4.094
							c-1.797-0.029-3.603-0.009-5.399-0.009c-0.959,0-1.72-0.193-2.327-0.588c-0.636-0.414-1.069-1.021-1.349-1.816
							C114.124,101.416,112.732,96.604,112.727,96.589z"/>
						<path style="fill-rule:evenodd;clip-rule:evenodd;fill:#7B4733;" d="M110.637,95.482c0.467,0,0.848,0.375,0.848,0.848
							c0,0.467-0.381,0.848-0.848,0.848H86.172c-0.467,0-0.848-0.38-0.848-0.848c0-0.472,0.381-0.848,0.848-0.848H110.637z"/>
						<path style="fill-rule:evenodd;clip-rule:evenodd;fill:#7B4733;" d="M106.947,96.06c0.145-0.434,0.621-0.679,1.064-0.529
							c0.443,0.144,0.68,0.616,0.535,1.059c0,0.015-1.396,4.827-2.408,7.668c-0.284,0.799-0.718,1.407-1.348,1.815
							c-0.612,0.4-1.373,0.593-2.327,0.593c-1.797,0-3.603-0.019-5.399,0.009c-2.076,0.039-3.213,0.058-4.277-4.094l-1.542-6.05
							c-0.116-0.448,0.159-0.906,0.612-1.026c0.448-0.111,0.91,0.164,1.026,0.611l1.546,6.05c0.722,2.837,1.382,2.842,2.577,2.818
							l5.457-0.009c0.616,0,1.074-0.106,1.396-0.313c0.304-0.203,0.525-0.521,0.685-0.963
							C105.521,100.944,106.942,96.079,106.947,96.06z"/>
					</g>
				</g>
			</g>
		</g>
		<path style="fill-rule:evenodd;clip-rule:evenodd;fill:#7FCBD6;" d="M168.273,58.325c0-0.587,0.478-1.064,1.064-1.064
			c0.588,0,1.065,0.477,1.065,1.064v2.457h2.457c0.587,0,1.064,0.476,1.064,1.062c0,0.588-0.477,1.065-1.064,1.065h-2.457v2.454
			c0,0.593-0.477,1.065-1.065,1.065c-0.587,0-1.064-0.472-1.064-1.065v-2.454h-2.451c-0.588,0-1.065-0.477-1.065-1.065
			c0-0.585,0.477-1.062,1.065-1.062h2.451V58.325z"/>
		<path style="fill-rule:evenodd;clip-rule:evenodd;fill:#B6D45D;" d="M210.502,59.477c-0.588,0-1.064-0.477-1.064-1.067
			c0-0.587,0.477-1.064,1.064-1.064h5.631c0.587,0,1.064,0.477,1.064,1.064c0,0.59-0.477,1.067-1.064,1.067H210.502L210.502,59.477z
			 M200.729,57.345c0.587,0,1.064,0.477,1.064,1.064c0,0.59-0.477,1.067-1.064,1.067h-0.978c-0.587,0-1.065-0.477-1.065-1.067
			c0-0.587,0.477-1.064,1.065-1.064H200.729L200.729,57.345z M206.774,57.345c0.588,0,1.064,0.477,1.064,1.064
			c0,0.59-0.476,1.067-1.064,1.067h-2.192c-0.588,0-1.064-0.477-1.064-1.067c0-0.587,0.477-1.064,1.064-1.064H206.774z"/>
		<path style="fill-rule:evenodd;clip-rule:evenodd;fill:#DB4414;" d="M302.68,66.596c-0.588,0-1.064-0.477-1.064-1.064
			c0-0.588,0.477-1.065,1.064-1.065h3.285c0.588,0,1.065,0.477,1.065,1.065c0,0.588-0.477,1.064-1.065,1.064H302.68L302.68,66.596z
			 M292.906,64.467c0.588,0,1.064,0.477,1.064,1.065c0,0.588-0.477,1.064-1.064,1.064h-0.973c-0.592,0-1.069-0.477-1.069-1.064
			c0-0.588,0.478-1.065,1.069-1.065H292.906L292.906,64.467z M298.951,64.467c0.588,0,1.065,0.477,1.065,1.065
			c0,0.588-0.478,1.064-1.065,1.064h-2.191c-0.588,0-1.065-0.477-1.065-1.064c0-0.588,0.477-1.065,1.065-1.065H298.951z"/>
		<path style="fill-rule:evenodd;clip-rule:evenodd;fill:#DB4414;" d="M243.212,53.66c0-0.59,0.477-1.067,1.065-1.067
			c0.587,0,1.069,0.477,1.069,1.067v2.455h2.452c0.588,0,1.064,0.477,1.064,1.064c0,0.587-0.477,1.062-1.064,1.062h-2.452v2.457
			c0,0.587-0.482,1.064-1.069,1.064c-0.588,0-1.065-0.477-1.065-1.064v-2.457h-2.452c-0.587,0-1.064-0.475-1.064-1.062
			c0-0.588,0.477-1.064,1.064-1.064h2.452V53.66z"/>
		<path style="fill-rule:evenodd;clip-rule:evenodd;fill:#F08C00;" d="M337.201,63.821c1.94,0,3.521-1.58,3.521-3.519
			c0-1.941-1.581-3.523-3.521-3.523c-1.937,0-3.521,1.582-3.521,3.523C333.681,62.241,335.265,63.821,337.201,63.821z"/>
		<path style="fill-rule:evenodd;clip-rule:evenodd;fill:#2EA3A4;" d="M366.887,67.978c-0.588,0-1.064-0.481-1.064-1.069
			c0-0.583,0.477-1.06,1.064-1.06h5.631c0.588,0,1.064,0.477,1.064,1.06c0,0.588-0.476,1.069-1.064,1.069H366.887L366.887,67.978z
			 M357.113,65.849c0.587,0,1.064,0.477,1.064,1.06c0,0.588-0.478,1.069-1.064,1.069h-0.973c-0.588,0-1.069-0.481-1.069-1.069
			c0-0.583,0.481-1.06,1.069-1.06H357.113L357.113,65.849z M363.159,65.849c0.587,0,1.064,0.477,1.064,1.06
			c0,0.588-0.477,1.069-1.064,1.069h-2.193c-0.587,0-1.064-0.481-1.064-1.069c0-0.583,0.477-1.06,1.064-1.06H363.159z"/>
		<path style="fill-rule:evenodd;clip-rule:evenodd;fill:#00A9D9;" d="M398.946,119.768c-0.587,0-1.065-0.477-1.065-1.064
			c0-0.587,0.478-1.064,1.065-1.064h5.631c0.588,0,1.065,0.477,1.065,1.064c0,0.588-0.478,1.064-1.065,1.064H398.946
			L398.946,119.768z M389.179,117.639c0.583,0,1.059,0.477,1.059,1.064c0,0.588-0.476,1.064-1.059,1.064h-0.977
			c-0.588,0-1.066-0.477-1.066-1.064c0-0.587,0.478-1.064,1.066-1.064H389.179L389.179,117.639z M395.219,117.639
			c0.587,0,1.064,0.477,1.064,1.064c0,0.588-0.478,1.064-1.064,1.064h-2.191c-0.588,0-1.064-0.477-1.064-1.064
			c0-0.587,0.477-1.064,1.064-1.064H395.219z"/>
		<path style="fill-rule:evenodd;clip-rule:evenodd;fill:#2EA3A4;" d="M445.558,159.294c0-0.587,0.478-1.069,1.061-1.069
			c0.587,0,1.063,0.482,1.063,1.069v2.457h2.457c0.588,0,1.064,0.472,1.064,1.06c0,0.588-0.477,1.069-1.064,1.069h-2.457v2.452
			c0,0.588-0.477,1.064-1.063,1.064c-0.583,0-1.061-0.477-1.061-1.064v-2.452h-2.456c-0.588,0-1.065-0.481-1.065-1.069
			c0-0.587,0.477-1.06,1.065-1.06h2.456V159.294z"/>
		<path style="fill-rule:evenodd;clip-rule:evenodd;fill:#DB4414;" d="M410.733,89.624c0-0.588,0.481-1.064,1.064-1.064
			c0.588,0,1.069,0.477,1.069,1.064v2.457h2.451c0.588,0,1.064,0.477,1.064,1.064s-0.477,1.065-1.064,1.065h-2.451v2.456
			c0,0.587-0.482,1.06-1.069,1.06c-0.583,0-1.064-0.472-1.064-1.06V94.21h-2.452c-0.587,0-1.063-0.478-1.063-1.065
			s0.476-1.064,1.063-1.064h2.452V89.624z"/>
		<path style="fill-rule:evenodd;clip-rule:evenodd;fill:#F08C00;" d="M94.101,188.363c1.941,0,3.526-1.585,3.526-3.521
			c0-1.941-1.585-3.521-3.526-3.521c-1.936,0-3.516,1.58-3.516,3.521C90.585,186.778,92.165,188.363,94.101,188.363z"/>
		<path style="fill-rule:evenodd;clip-rule:evenodd;fill:#F08C00;" d="M110.131,377.021c1.941,0,3.526-1.579,3.526-3.517
			c0-1.94-1.585-3.525-3.526-3.525c-1.936,0-3.521,1.585-3.521,3.525C106.61,375.441,108.195,377.021,110.131,377.021z"/>
		<path style="fill-rule:evenodd;clip-rule:evenodd;fill:#96C624;" d="M101.49,318.024c0-0.588,0.477-1.064,1.064-1.064
			c0.587,0,1.064,0.476,1.064,1.064v2.457h2.456c0.588,0,1.064,0.477,1.064,1.064c0,0.583-0.477,1.065-1.064,1.065h-2.456v2.456
			c0,0.587-0.477,1.06-1.064,1.06c-0.587,0-1.064-0.473-1.064-1.06v-2.456h-2.456c-0.583,0-1.06-0.482-1.06-1.065
			c0-0.588,0.477-1.064,1.06-1.064h2.456V318.024z"/>
		<path style="fill-rule:evenodd;clip-rule:evenodd;fill:#F08C00;" d="M71.905,239.69c1.941,0,3.526-1.584,3.526-3.52
			c0-1.937-1.584-3.526-3.526-3.526c-1.936,0-3.516,1.589-3.516,3.526C68.39,238.105,69.969,239.69,71.905,239.69z"/>
		<path style="fill-rule:evenodd;clip-rule:evenodd;fill:#DB4414;" d="M79.92,312.158c-0.583,0-1.06-0.477-1.06-1.064
			c0-0.588,0.477-1.065,1.06-1.065h3.285c0.587,0,1.064,0.477,1.064,1.065c0,0.588-0.477,1.064-1.064,1.064H79.92L79.92,312.158z
			 M70.152,310.029c0.587,0,1.064,0.477,1.064,1.065c0,0.588-0.477,1.064-1.064,1.064h-0.978c-0.587,0-1.064-0.477-1.064-1.064
			c0-0.588,0.477-1.065,1.064-1.065H70.152L70.152,310.029z M76.192,310.029c0.588,0,1.064,0.477,1.064,1.065
			c0,0.588-0.477,1.064-1.064,1.064h-2.192c-0.587,0-1.064-0.477-1.064-1.064c0-0.588,0.477-1.065,1.064-1.065H76.192z"/>
		<path style="fill-rule:evenodd;clip-rule:evenodd;fill:#003536;" d="M66.718,162.983c0.588,0,1.065,0.477,1.065,1.064
			c0,0.588-0.477,1.065-1.065,1.065H65.74c-0.588,0-1.064-0.477-1.064-1.065c0-0.587,0.477-1.064,1.064-1.064H66.718L66.718,162.983
			z M76.486,165.113c-0.588,0-1.064-0.477-1.064-1.065c0-0.587,0.477-1.064,1.064-1.064h5.631c0.587,0,1.064,0.477,1.064,1.064
			c0,0.588-0.477,1.065-1.064,1.065H76.486L76.486,165.113z M72.758,162.983c0.587,0,1.064,0.477,1.064,1.064
			c0,0.588-0.477,1.065-1.064,1.065h-2.192c-0.588,0-1.064-0.477-1.064-1.065c0-0.587,0.477-1.064,1.064-1.064H72.758z"/>
		<path style="fill-rule:evenodd;clip-rule:evenodd;fill:#003536;" d="M288.056,399.736c0.588,0,1.065,0.478,1.065,1.065
			c0,0.588-0.478,1.064-1.065,1.064h-0.978c-0.588,0-1.064-0.477-1.064-1.064c0-0.587,0.477-1.065,1.064-1.065H288.056
			L288.056,399.736z M297.829,401.865c-0.588,0-1.065-0.477-1.065-1.064c0-0.587,0.477-1.065,1.065-1.065h5.63
			c0.584,0,1.06,0.478,1.06,1.065c0,0.588-0.477,1.064-1.06,1.064H297.829L297.829,401.865z M294.096,399.736
			c0.588,0,1.065,0.478,1.065,1.065c0,0.588-0.478,1.064-1.065,1.064h-2.191c-0.587,0-1.064-0.477-1.064-1.064
			c0-0.587,0.477-1.065,1.064-1.065H294.096z"/>
		<path style="fill-rule:evenodd;clip-rule:evenodd;fill:#96C624;" d="M373.726,280.107c0-0.588,0.478-1.069,1.065-1.069
			s1.064,0.481,1.064,1.069v2.457h2.457c0.587,0,1.065,0.472,1.065,1.058c0,0.588-0.478,1.07-1.065,1.07h-2.457v2.451
			c0,0.588-0.476,1.065-1.064,1.065s-1.065-0.478-1.065-1.065v-2.451h-2.451c-0.587,0-1.064-0.482-1.064-1.07
			c0-0.587,0.478-1.058,1.064-1.058h2.451V280.107z"/>
		<path style="fill-rule:evenodd;clip-rule:evenodd;fill:#360808;" d="M441.993,239.585c0-0.588,0.478-1.064,1.065-1.064
			s1.064,0.477,1.064,1.064v2.452h2.456c0.588,0,1.064,0.482,1.064,1.069c0,0.588-0.477,1.065-1.064,1.065h-2.456v2.451
			c0,0.588-0.477,1.065-1.064,1.065s-1.065-0.477-1.065-1.065v-2.451h-2.451c-0.587,0-1.065-0.477-1.065-1.065
			c0-0.587,0.478-1.069,1.065-1.069h2.451V239.585z"/>
		<path style="fill-rule:evenodd;clip-rule:evenodd;fill:#F08C00;" d="M440.77,198.377c1.941,0,3.521-1.58,3.521-3.521
			c0-1.941-1.579-3.521-3.521-3.521c-1.936,0-3.521,1.58-3.521,3.521C437.249,196.797,438.834,198.377,440.77,198.377z"/>
		<path style="fill-rule:evenodd;clip-rule:evenodd;fill:#00A9D9;" d="M409.727,285.339c-0.588,0-1.065-0.482-1.065-1.069
			s0.477-1.06,1.065-1.06h5.631c0.587,0,1.064,0.472,1.064,1.06s-0.477,1.069-1.064,1.069H409.727L409.727,285.339z M399.958,283.21
			c0.582,0,1.06,0.472,1.06,1.06s-0.478,1.069-1.06,1.069h-0.978c-0.588,0-1.065-0.482-1.065-1.069s0.477-1.06,1.065-1.06H399.958
			L399.958,283.21z M405.998,283.21c0.588,0,1.065,0.472,1.065,1.06s-0.477,1.069-1.065,1.069h-2.191
			c-0.588,0-1.064-0.482-1.064-1.069s0.477-1.06,1.064-1.06H405.998z"/>
		<path style="fill-rule:evenodd;clip-rule:evenodd;fill:#DB4414;" d="M315.435,415.776c0-0.588,0.477-1.069,1.064-1.069
			s1.065,0.482,1.065,1.069v2.457h2.456c0.588,0,1.065,0.472,1.065,1.06s-0.477,1.064-1.065,1.064h-2.456v2.457
			c0,0.586-0.477,1.063-1.065,1.063s-1.064-0.478-1.064-1.063v-2.457h-2.451c-0.594,0-1.069-0.477-1.069-1.064
			s0.475-1.06,1.069-1.06h2.451V415.776z"/>
		<path style="fill-rule:evenodd;clip-rule:evenodd;fill:#DB4414;" d="M108.276,433.039c0-0.588,0.477-1.069,1.065-1.069
			c0.587,0,1.064,0.482,1.064,1.069v2.457h2.456c0.583,0,1.065,0.473,1.065,1.06c0,0.588-0.482,1.064-1.065,1.064h-2.456v2.457
			c0,0.588-0.477,1.065-1.064,1.065c-0.588,0-1.065-0.477-1.065-1.065v-2.457h-2.457c-0.587,0-1.064-0.477-1.064-1.064
			c0-0.587,0.477-1.06,1.064-1.06h2.457V433.039z"/>
		<path style="fill-rule:evenodd;clip-rule:evenodd;fill:#DB4414;" d="M70.802,435.468c-0.587,0-1.064-0.478-1.064-1.065
			c0-0.582,0.477-1.064,1.064-1.064h3.281c0.587,0,1.064,0.482,1.064,1.064c0,0.588-0.478,1.065-1.064,1.065H70.802L70.802,435.468z
			 M61.029,433.338c0.588,0,1.064,0.482,1.064,1.064c0,0.588-0.477,1.065-1.064,1.065h-0.978c-0.588,0-1.064-0.478-1.064-1.065
			c0-0.582,0.477-1.064,1.064-1.064H61.029L61.029,433.338z M67.074,433.338c0.587,0,1.065,0.482,1.065,1.064
			c0,0.588-0.478,1.065-1.065,1.065h-2.191c-0.587,0-1.065-0.478-1.065-1.065c0-0.582,0.478-1.064,1.065-1.064H67.074z"/>
		<path style="fill-rule:evenodd;clip-rule:evenodd;fill:#6FB6E5;" d="M60.938,381.211c-0.587,0-1.064-0.477-1.064-1.064
			c0-0.588,0.477-1.065,1.064-1.065h3.28c0.588,0,1.065,0.477,1.065,1.065c0,0.588-0.477,1.064-1.065,1.064H60.938L60.938,381.211z
			 M51.165,379.082c0.588,0,1.064,0.477,1.064,1.065c0,0.588-0.477,1.064-1.064,1.064h-0.978c-0.588,0-1.065-0.477-1.065-1.064
			c0-0.588,0.477-1.065,1.065-1.065H51.165L51.165,379.082z M57.209,379.082c0.583,0,1.06,0.477,1.06,1.065
			c0,0.588-0.477,1.064-1.06,1.064h-2.196c-0.583,0-1.064-0.477-1.064-1.064c0-0.588,0.482-1.065,1.064-1.065H57.209z"/>
	</g>
</g>
</svg>
