<svg width="16" height="16" viewBox="0 0 16 16" fill="none" xmlns="http://www.w3.org/2000/svg">
<path id="Vector" d="M7.57812 0.890869C3.45312 0.890869 0.078125 4.26587 0.078125 8.39087C0.078125 12.5159 3.45312 15.8909 7.57812 15.8909C11.7031 15.8909 15.0781 12.5159 15.0781 8.39087C15.0781 4.26587 11.7031 0.890869 7.57812 0.890869ZM7.57812 14.3909C4.27063 14.3909 1.57812 11.6984 1.57812 8.39087C1.57812 5.08337 4.27063 2.39087 7.57812 2.39087C10.8856 2.39087 13.5781 5.08337 13.5781 8.39087C13.5781 11.6984 10.8856 14.3909 7.57812 14.3909ZM11.0206 5.07587L6.07812 10.0184L4.13562 8.08337L3.07812 9.14087L6.07812 12.1409L12.0781 6.14087L11.0206 5.07587Z" fill="white"/>
</svg>
