<svg xmlns="http://www.w3.org/2000/svg" width="21" height="21" viewBox="0 0 21 21" fill="none">
  <path d="M10.9336 0.609711C5.43359 0.609711 0.933594 5.10971 0.933594 10.6097C0.933594 16.1097 5.43359 20.6097 10.9336 20.6097C16.4336 20.6097 20.9336 16.1097 20.9336 10.6097C20.9336 5.10971 16.4336 0.609711 10.9336 0.609711ZM10.9336 18.6097C6.52359 18.6097 2.93359 15.0197 2.93359 10.6097C2.93359 6.19971 6.52359 2.60971 10.9336 2.60971C15.3436 2.60971 18.9336 6.19971 18.9336 10.6097C18.9336 15.0197 15.3436 18.6097 10.9336 18.6097ZM15.5236 6.18971L8.93359 12.7797L6.34359 10.1997L4.93359 11.6097L8.93359 15.6097L16.9336 7.60971L15.5236 6.18971Z" fill="white"/>
</svg>