<svg width="21" height="21" viewBox="0 0 21 21" fill="none" xmlns="http://www.w3.org/2000/svg">
<g id="account-remove-outline">
<path id="Vector" d="M1.94531 7.44502L3.12865 6.26169L4.89531 8.03669L6.66198 6.26169L7.84531 7.44502L6.07031 9.21169L7.84531 10.9784L6.66198 12.1617L4.89531 10.3867L3.12865 12.1617L1.94531 10.9784L3.72031 9.21169L1.94531 7.44502ZM13.2286 3.37836C14.1127 3.37836 14.9605 3.72955 15.5857 4.35467C16.2108 4.97979 16.562 5.82764 16.562 6.71169C16.562 7.59575 16.2108 8.44359 15.5857 9.06871C14.9605 9.69383 14.1127 10.045 13.2286 10.045C12.3446 10.045 11.4967 9.69383 10.8716 9.06871C10.2465 8.44359 9.89531 7.59575 9.89531 6.71169C9.89531 5.82764 10.2465 4.97979 10.8716 4.35467C11.4967 3.72955 12.3446 3.37836 13.2286 3.37836ZM13.2286 4.96169C12.7645 4.96169 12.3194 5.14606 11.9912 5.47425C11.663 5.80244 11.4786 6.24756 11.4786 6.71169C11.4786 7.17582 11.663 7.62094 11.9912 7.94913C12.3194 8.27732 12.7645 8.46169 13.2286 8.46169C14.1953 8.46169 14.9786 7.67836 14.9786 6.71169C14.9786 5.74502 14.1953 4.96169 13.2286 4.96169ZM13.2286 10.8784C15.4536 10.8784 19.8953 11.9867 19.8953 14.2117V16.7117H6.56198V14.2117C6.56198 11.9867 11.0036 10.8784 13.2286 10.8784ZM13.2286 12.4617C10.7286 12.4617 8.14531 13.6784 8.14531 14.2117V15.1284H18.312V14.2117C18.312 13.6784 15.7036 12.4617 13.2286 12.4617Z" fill="black" fill-opacity="0.5"/>
</g>
</svg>
