<svg width="21" height="21" viewBox="0 0 21 21" fill="none" xmlns="http://www.w3.org/2000/svg">
<g id="account-multiple-plus-outline" clip-path="url(#clip0_3705_35351)">
<path id="Vector" d="M11.4095 9.49005C11.904 9.49005 12.3873 9.34343 12.7984 9.06873C13.2096 8.79402 13.53 8.40358 13.7192 7.94676C13.9084 7.48995 13.9579 6.98728 13.8615 6.50233C13.765 6.01737 13.5269 5.57192 13.1773 5.22229C12.8276 4.87265 12.3822 4.63455 11.8972 4.53809C11.4123 4.44163 10.9096 4.49113 10.4528 4.68035C9.99598 4.86957 9.60553 5.19 9.33083 5.60113C9.05613 6.01225 8.9095 6.4956 8.9095 6.99005C8.9095 7.65309 9.1729 8.28898 9.64174 8.75782C10.1106 9.22666 10.7465 9.49005 11.4095 9.49005ZM11.4095 6.15672C11.5743 6.15672 11.7354 6.20559 11.8725 6.29716C12.0095 6.38873 12.1163 6.51888 12.1794 6.67115C12.2425 6.82342 12.259 6.99098 12.2268 7.15263C12.1947 7.31428 12.1153 7.46276 11.9988 7.57931C11.8822 7.69585 11.7337 7.77522 11.5721 7.80737C11.4104 7.83953 11.2429 7.82302 11.0906 7.75995C10.9383 7.69688 10.8082 7.59007 10.7166 7.45303C10.625 7.31599 10.5762 7.15487 10.5762 6.99005C10.5762 6.76904 10.664 6.55708 10.8202 6.4008C10.9765 6.24452 11.1885 6.15672 11.4095 6.15672ZM14.8345 9.37338C15.322 8.67424 15.5834 7.8424 15.5834 6.99005C15.5834 6.1377 15.322 5.30586 14.8345 4.60672C15.0742 4.52956 15.3244 4.4902 15.5762 4.49005C16.2392 4.49005 16.8751 4.75344 17.3439 5.22229C17.8128 5.69113 18.0762 6.32701 18.0762 6.99005C18.0762 7.65309 17.8128 8.28898 17.3439 8.75782C16.8751 9.22666 16.2392 9.49005 15.5762 9.49005C15.3244 9.4899 15.0742 9.45054 14.8345 9.37338ZM11.4095 11.1567C6.4095 11.1567 6.4095 14.4901 6.4095 14.4901V16.1567H16.4095V14.4901C16.4095 14.4901 16.4095 11.1567 11.4095 11.1567ZM8.07617 14.4901C8.07617 14.2484 8.34284 12.8234 11.4095 12.8234C14.3262 12.8234 14.6928 14.1234 14.7428 14.4901H8.07617ZM20.5762 14.4901V16.1567H18.0762V14.4901C18.0567 13.8706 17.914 13.2612 17.6565 12.6975C17.3989 12.1338 17.0317 11.627 16.5762 11.2067C20.5762 11.6151 20.5762 14.4901 20.5762 14.4901ZM7.24284 10.3234H4.74284V12.8234H3.07617V10.3234H0.576172V8.65672H3.07617V6.15672H4.74284V8.65672H7.24284V10.3234Z" fill="white"/>
</g>
<defs>
<clipPath id="clip0_3705_35351">
<rect width="20" height="20" fill="white" transform="translate(0.576172 0.323364)"/>
</clipPath>
</defs>
</svg>
