<svg width="26" height="31" viewBox="0 0 26 31" fill="none" xmlns="http://www.w3.org/2000/svg">
<g id="Group 393">
<path id="Vector" d="M0.960938 3.7605C0.960937 2.76594 1.39992 1.81211 2.18133 1.10885C2.96273 0.405586 4.02254 0.010498 5.1276 0.010498L21.7943 0.010498C22.8993 0.010498 23.9591 0.405586 24.7405 1.10885C25.5219 1.81211 25.9609 2.76594 25.9609 3.7605V26.2605C25.9609 27.2551 25.5219 28.2089 24.7405 28.9121C23.9591 29.6154 22.8993 30.0105 21.7943 30.0105H5.1276C4.02254 30.0105 2.96273 29.6154 2.18133 28.9121C1.39992 28.2089 0.960938 27.2551 0.960938 26.2605V3.7605ZM21.7943 1.8855H5.1276C4.57507 1.8855 4.04517 2.08304 3.65446 2.43467C3.26376 2.7863 3.04427 3.26322 3.04427 3.7605V26.2605C3.04427 26.7578 3.26376 27.2347 3.65446 27.5863C4.04517 27.938 4.57507 28.1355 5.1276 28.1355H21.7943C22.3468 28.1355 22.8767 27.938 23.2674 27.5863C23.6581 27.2347 23.8776 26.7578 23.8776 26.2605V3.7605C23.8776 3.26322 23.6581 2.7863 23.2674 2.43467C22.8767 2.08304 22.3468 1.8855 21.7943 1.8855Z" fill="#2F353F" fill-opacity="0.4"/>
<path id="Vector_2" d="M8.97724 5.0105C8.76676 5.0105 8.56489 5.15866 8.41605 5.42238C8.26721 5.6861 8.18359 6.04379 8.18359 6.41675C8.18359 6.78971 8.26721 7.14739 8.41605 7.41112C8.56489 7.67484 8.76676 7.823 8.97724 7.823H18.5011C18.7115 7.823 18.9134 7.67484 19.0622 7.41112C19.2111 7.14739 19.2947 6.78971 19.2947 6.41675C19.2947 6.04379 19.2111 5.6861 19.0622 5.42238C18.9134 5.15866 18.7115 5.0105 18.5011 5.0105H8.97724ZM8.18359 12.0417C8.18359 11.6688 8.26721 11.3111 8.41605 11.0474C8.56489 10.7837 8.76676 10.6355 8.97724 10.6355H18.5011C18.7115 10.6355 18.9134 10.7837 19.0622 11.0474C19.2111 11.3111 19.2947 11.6688 19.2947 12.0417C19.2947 12.4147 19.2111 12.7724 19.0622 13.0361C18.9134 13.2998 18.7115 13.448 18.5011 13.448H8.97724C8.76676 13.448 8.56489 13.2998 8.41605 13.0361C8.26721 12.7724 8.18359 12.4147 8.18359 12.0417ZM8.97724 16.2605C8.76676 16.2605 8.56489 16.4087 8.41605 16.6724C8.26721 16.9361 8.18359 17.2938 8.18359 17.6667C8.18359 18.0397 8.26721 18.3974 8.41605 18.6611C8.56489 18.9248 8.76676 19.073 8.97724 19.073H18.5011C18.7115 19.073 18.9134 18.9248 19.0622 18.6611C19.2111 18.3974 19.2947 18.0397 19.2947 17.6667C19.2947 17.2938 19.2111 16.9361 19.0622 16.6724C18.9134 16.4087 18.7115 16.2605 18.5011 16.2605H8.97724ZM8.97724 21.8855C8.76676 21.8855 8.56489 22.0337 8.41605 22.2974C8.26721 22.5611 8.18359 22.9188 8.18359 23.2917C8.18359 23.6647 8.26721 24.0224 8.41605 24.2861C8.56489 24.5498 8.76676 24.698 8.97724 24.698H13.7391C13.9496 24.698 14.1515 24.5498 14.3003 24.2861C14.4492 24.0224 14.5328 23.6647 14.5328 23.2917C14.5328 22.9188 14.4492 22.5611 14.3003 22.2974C14.1515 22.0337 13.9496 21.8855 13.7391 21.8855H8.97724Z" fill="#2F353F" fill-opacity="0.4"/>
</g>
</svg>
