<svg width="29" height="27" viewBox="0 0 29 27" fill="none" xmlns="http://www.w3.org/2000/svg">
<g id="copy-outline">
<path id="Vector" d="M22.8375 6.59061H10.4019C8.6385 6.59061 7.20898 7.89603 7.20898 9.50634V20.8624C7.20898 22.4727 8.6385 23.7781 10.4019 23.7781H22.8375C24.6009 23.7781 26.0304 22.4727 26.0304 20.8624V9.50634C26.0304 7.89603 24.6009 6.59061 22.8375 6.59061Z" stroke="#2F353F" stroke-opacity="0.4" stroke-width="2" stroke-linejoin="round"/>
<path id="Vector_2" d="M21.52 6.59043L21.548 5.36275C21.5456 4.60368 21.2144 3.87632 20.6266 3.33957C20.0388 2.80283 19.2423 2.50033 18.4111 2.49817H6.31159C5.36165 2.50073 4.45141 2.84647 3.7797 3.45988C3.10798 4.07328 2.72937 4.9045 2.72656 5.77198V16.8211C2.72893 17.5802 3.06018 18.3075 3.64795 18.8443C4.23572 19.381 5.03223 19.6835 5.86346 19.6857H7.20785" stroke="#2F353F" stroke-opacity="0.4" stroke-width="2" stroke-linecap="round" stroke-linejoin="round"/>
</g>
</svg>
