<svg width="31" height="31" viewBox="0 0 31 31" fill="none" xmlns="http://www.w3.org/2000/svg">
<g clip-path="url(#clip0_3574_35304)">
<path d="M16.9902 13.7627C17.7319 13.7627 18.4569 13.5428 19.0736 13.1307C19.6903 12.7187 20.171 12.133 20.4548 11.4478C20.7386 10.7625 20.8129 10.0085 20.6682 9.28111C20.5235 8.55368 20.1663 7.88549 19.6419 7.36105C19.1174 6.8366 18.4493 6.47945 17.7218 6.33475C16.9944 6.19006 16.2404 6.26432 15.5552 6.54815C14.8699 6.83198 14.2843 7.31262 13.8722 7.92931C13.4602 8.54599 13.2402 9.27102 13.2402 10.0127C13.2402 11.0073 13.6353 11.9611 14.3386 12.6643C15.0418 13.3676 15.9957 13.7627 16.9902 13.7627ZM16.9902 8.7627C17.2375 8.7627 17.4791 8.83601 17.6847 8.97336C17.8903 9.11071 18.0505 9.30593 18.1451 9.53434C18.2397 9.76275 18.2644 10.0141 18.2162 10.2566C18.168 10.499 18.0489 10.7218 17.8741 10.8966C17.6993 11.0714 17.4766 11.1904 17.2341 11.2387C16.9916 11.2869 16.7403 11.2622 16.5119 11.1675C16.2835 11.0729 16.0882 10.9127 15.9509 10.7072C15.8135 10.5016 15.7402 10.2599 15.7402 10.0127C15.7402 9.68118 15.8719 9.36323 16.1064 9.12881C16.3408 8.89439 16.6587 8.7627 16.9902 8.7627ZM22.1277 13.5877C22.859 12.539 23.2511 11.2912 23.2511 10.0127C23.2511 8.73418 22.859 7.48641 22.1277 6.4377C22.4872 6.32196 22.8626 6.26292 23.2402 6.2627C24.2348 6.2627 25.1886 6.65778 25.8919 7.36105C26.5951 8.06431 26.9902 9.01813 26.9902 10.0127C26.9902 11.0073 26.5951 11.9611 25.8919 12.6643C25.1886 13.3676 24.2348 13.7627 23.2402 13.7627C22.8626 13.7625 22.4872 13.7034 22.1277 13.5877ZM16.9902 16.2627C9.49023 16.2627 9.49023 21.2627 9.49023 21.2627V23.7627H24.4902V21.2627C24.4902 21.2627 24.4902 16.2627 16.9902 16.2627ZM11.9902 21.2627C11.9902 20.9002 12.3902 18.7627 16.9902 18.7627C21.3652 18.7627 21.9152 20.7127 21.9902 21.2627H11.9902ZM30.7402 21.2627V23.7627H26.9902V21.2627C26.961 20.3335 26.747 19.4194 26.3607 18.5738C25.9744 17.7282 25.4235 16.9681 24.7402 16.3377C30.7402 16.9502 30.7402 21.2627 30.7402 21.2627ZM10.7402 15.0127H6.99023V18.7627H4.49023V15.0127H0.740234V12.5127H4.49023V8.7627H6.99023V12.5127H10.7402V15.0127Z" fill="black"/>
</g>
<defs>
<clipPath id="clip0_3574_35304">
<rect width="30" height="30" fill="white" transform="translate(0.740234 0.0126953)"/>
</clipPath>
</defs>
</svg>
