<svg width="31" height="31" viewBox="0 0 31 31" fill="none" xmlns="http://www.w3.org/2000/svg">
<g clip-path="url(#clip0_3957_36726)">
<path d="M16.4258 14.3496C17.1675 14.3496 17.8925 14.1297 18.5092 13.7176C19.1259 13.3056 19.6065 12.7199 19.8903 12.0347C20.1742 11.3495 20.2484 10.5955 20.1037 9.86802C19.959 9.14059 19.6019 8.47241 19.0774 7.94796C18.553 7.42351 17.8848 7.06636 17.1574 6.92167C16.4299 6.77697 15.6759 6.85123 14.9907 7.13506C14.3055 7.41889 13.7198 7.89954 13.3078 8.51622C12.8957 9.13291 12.6758 9.85793 12.6758 10.5996C12.6758 11.5942 13.0709 12.548 13.7741 13.2513C14.4774 13.9545 15.4312 14.3496 16.4258 14.3496ZM16.4258 9.34961C16.673 9.34961 16.9147 9.42292 17.1202 9.56027C17.3258 9.69763 17.486 9.89285 17.5806 10.1213C17.6752 10.3497 17.7 10.601 17.6518 10.8435C17.6035 11.0859 17.4845 11.3087 17.3097 11.4835C17.1348 11.6583 16.9121 11.7774 16.6696 11.8256C16.4272 11.8738 16.1758 11.8491 15.9474 11.7545C15.719 11.6599 15.5238 11.4996 15.3864 11.2941C15.2491 11.0885 15.1758 10.8468 15.1758 10.5996C15.1758 10.2681 15.3075 9.95015 15.5419 9.71573C15.7763 9.48131 16.0943 9.34961 16.4258 9.34961ZM21.5633 14.1746C22.2946 13.1259 22.6867 11.8781 22.6867 10.5996C22.6867 9.32109 22.2946 8.07332 21.5633 7.02461C21.9228 6.90888 22.2981 6.84984 22.6758 6.84961C23.6703 6.84961 24.6242 7.2447 25.3274 7.94796C26.0307 8.65122 26.4258 9.60505 26.4258 10.5996C26.4258 11.5942 26.0307 12.548 25.3274 13.2513C24.6242 13.9545 23.6703 14.3496 22.6758 14.3496C22.2981 14.3494 21.9228 14.2903 21.5633 14.1746ZM16.4258 16.8496C8.92578 16.8496 8.92578 21.8496 8.92578 21.8496V24.3496H23.9258V21.8496C23.9258 21.8496 23.9258 16.8496 16.4258 16.8496ZM11.4258 21.8496C11.4258 21.4871 11.8258 19.3496 16.4258 19.3496C20.8008 19.3496 21.3508 21.2996 21.4258 21.8496H11.4258ZM30.1758 21.8496V24.3496H26.4258V21.8496C26.3966 20.9204 26.1826 20.0063 25.7963 19.1607C25.4099 18.3152 24.8591 17.555 24.1758 16.9246C30.1758 17.5371 30.1758 21.8496 30.1758 21.8496ZM10.1758 15.5996H6.42578V19.3496H3.92578V15.5996H0.175781V13.0996H3.92578V9.34961H6.42578V13.0996H10.1758V15.5996Z" fill="white"/>
</g>
<defs>
<clipPath id="clip0_3957_36726">
<rect width="30" height="30" fill="white" transform="translate(0.175781 0.599609)"/>
</clipPath>
</defs>
</svg>
