<svg xmlns="http://www.w3.org/2000/svg" width="25" height="25" viewBox="0 0 25 25" fill="none">
  <path d="M12.2422 20.8608C7.83219 20.8608 4.24219 17.2708 4.24219 12.8608C4.24219 8.45084 7.83219 4.86084 12.2422 4.86084C16.6522 4.86084 20.2422 8.45084 20.2422 12.8608C20.2422 17.2708 16.6522 20.8608 12.2422 20.8608ZM12.2422 2.86084C6.71219 2.86084 2.24219 7.33084 2.24219 12.8608C2.24219 18.3908 6.71219 22.8608 12.2422 22.8608C17.7722 22.8608 22.2422 18.3908 22.2422 12.8608C22.2422 7.33084 17.7722 2.86084 12.2422 2.86084ZM14.8322 8.86084L12.2422 11.4508L9.65219 8.86084L8.24219 10.2708L10.8322 12.8608L8.24219 15.4508L9.65219 16.8608L12.2422 14.2708L14.8322 16.8608L16.2422 15.4508L13.6522 12.8608L16.2422 10.2708L14.8322 8.86084Z" fill="white"/>
</svg>