<svg width="33" height="34" viewBox="0 0 33 34" fill="none" xmlns="http://www.w3.org/2000/svg">
<path d="M22.0521 21.793C24.3454 21.793 27.0521 22.893 27.3854 23.553V24.543H16.7187V23.553C17.0521 22.893 19.7587 21.793 22.0521 21.793ZM22.0521 19.7305C19.6121 19.7305 14.7187 20.9955 14.7187 23.5118V26.6055H29.3854V23.5118C29.3854 20.9955 24.4921 19.7305 22.0521 19.7305ZM12.0521 18.3555C8.94542 18.3555 2.71875 19.9643 2.71875 23.168V26.6055H12.0521V24.543H4.71875V23.168C4.71875 22.3018 8.43875 20.198 13.1454 20.418C13.7186 19.7112 14.4208 19.1272 15.2121 18.6993C14.172 18.4793 13.1137 18.3642 12.0521 18.3555ZM12.0521 9.41803C12.4476 9.41803 12.8343 9.53899 13.1632 9.76562C13.4921 9.99225 13.7485 10.3144 13.8998 10.6912C14.0512 11.0681 14.0908 11.4828 14.0137 11.8829C13.9365 12.283 13.746 12.6505 13.4663 12.9389C13.1866 13.2274 12.8302 13.4238 12.4423 13.5034C12.0543 13.583 11.6522 13.5421 11.2867 13.386C10.9213 13.2299 10.6089 12.9656 10.3891 12.6264C10.1694 12.2872 10.0521 11.8885 10.0521 11.4805C10.0521 10.9335 10.2628 10.4089 10.6379 10.0221C11.0129 9.63533 11.5216 9.41803 12.0521 9.41803ZM12.0521 7.35553C11.261 7.35553 10.4876 7.59746 9.8298 8.05072C9.17201 8.50398 8.65932 9.14822 8.35656 9.90196C8.05381 10.6557 7.9746 11.4851 8.12894 12.2853C8.28328 13.0854 8.66425 13.8205 9.22366 14.3973C9.78307 14.9742 10.4958 15.3671 11.2717 15.5263C12.0476 15.6854 12.8519 15.6037 13.5828 15.2915C14.3137 14.9793 14.9384 14.4506 15.378 13.7723C15.8175 13.0939 16.0521 12.2964 16.0521 11.4805C16.0521 10.3865 15.6307 9.3373 14.8805 8.56371C14.1304 7.79013 13.1129 7.35553 12.0521 7.35553ZM22.0521 12.168C22.3158 12.168 22.5736 12.2487 22.7928 12.3998C23.0121 12.5508 23.183 12.7656 23.2839 13.0168C23.3848 13.2681 23.4112 13.5446 23.3598 13.8113C23.3083 14.078 23.1814 14.323 22.9949 14.5153C22.8084 14.7076 22.5708 14.8386 22.3122 14.8916C22.0536 14.9447 21.7855 14.9174 21.5418 14.8134C21.2982 14.7093 21.09 14.5331 20.9435 14.3069C20.7969 14.0808 20.7187 13.815 20.7187 13.543C20.7187 13.1784 20.8592 12.8286 21.1093 12.5708C21.3593 12.3129 21.6985 12.168 22.0521 12.168ZM22.0521 10.1055C21.3928 10.1055 20.7483 10.3071 20.2002 10.6849C19.652 11.0626 19.2248 11.5994 18.9725 12.2276C18.7202 12.8557 18.6542 13.5468 18.7828 14.2137C18.9114 14.8805 19.2289 15.493 19.6951 15.9737C20.1612 16.4545 20.7552 16.7818 21.4018 16.9145C22.0484 17.0471 22.7186 16.979 23.3277 16.7189C23.9368 16.4587 24.4574 16.0181 24.8236 15.4528C25.1899 14.8875 25.3854 14.2229 25.3854 13.543C25.3854 12.6313 25.0342 11.757 24.4091 11.1124C23.784 10.4677 22.9361 10.1055 22.0521 10.1055Z" fill="black"/>
</svg>
