<svg width="17" height="18" viewBox="0 0 17 18" fill="none" xmlns="http://www.w3.org/2000/svg">
<path d="M7.80859 6.26278H9.47526V4.59611H7.80859V6.26278ZM8.64193 15.4294C4.96693 15.4294 1.97526 12.4378 1.97526 8.76278C1.97526 5.08778 4.96693 2.09611 8.64193 2.09611C12.3169 2.09611 15.3086 5.08778 15.3086 8.76278C15.3086 12.4378 12.3169 15.4294 8.64193 15.4294ZM8.64193 0.429443C7.54758 0.429443 6.46394 0.644991 5.4529 1.06378C4.44185 1.48257 3.52319 2.0964 2.74937 2.87022C1.18657 4.43302 0.308594 6.55264 0.308594 8.76278C0.308594 10.9729 1.18657 13.0925 2.74937 14.6553C3.52319 15.4292 4.44185 16.043 5.4529 16.4618C6.46394 16.8806 7.54758 17.0961 8.64193 17.0961C10.8521 17.0961 12.9717 16.2181 14.5345 14.6553C16.0973 13.0925 16.9753 10.9729 16.9753 8.76278C16.9753 7.66843 16.7597 6.58479 16.3409 5.57375C15.9221 4.5627 15.3083 3.64404 14.5345 2.87022C13.7607 2.0964 12.842 1.48257 11.831 1.06378C10.8199 0.644991 9.73628 0.429443 8.64193 0.429443ZM7.80859 12.9294H9.47526V7.92944H7.80859V12.9294Z" fill="black" fill-opacity="0.5"/>
</svg>
