<svg width="18" height="17" viewBox="0 0 18 17" fill="none" xmlns="http://www.w3.org/2000/svg">
<g id="close-circle-outline">
<path id="Vector" d="M9.43099 14.2292C6.30724 14.2292 3.76432 11.6863 3.76432 8.56258C3.76432 5.43883 6.30724 2.89591 9.43099 2.89591C12.5547 2.89591 15.0977 5.43883 15.0977 8.56258C15.0977 11.6863 12.5547 14.2292 9.43099 14.2292ZM9.43099 1.47925C5.51391 1.47925 2.34766 4.6455 2.34766 8.56258C2.34766 12.4797 5.51391 15.6459 9.43099 15.6459C13.3481 15.6459 16.5143 12.4797 16.5143 8.56258C16.5143 4.6455 13.3481 1.47925 9.43099 1.47925ZM11.2656 5.72925L9.43099 7.56383L7.59641 5.72925L6.59766 6.728L8.43224 8.56258L6.59766 10.3972L7.59641 11.3959L9.43099 9.56133L11.2656 11.3959L12.2643 10.3972L10.4297 8.56258L12.2643 6.728L11.2656 5.72925Z" fill="white"/>
</g>
</svg>
