<svg width="25" height="25" viewBox="0 0 25 25" fill="none" xmlns="http://www.w3.org/2000/svg">
<g id="people-search-one">
<path id="Vector" d="M12.4297 9.87958C14.3627 9.87958 15.9297 8.31257 15.9297 6.37958C15.9297 4.44658 14.3627 2.87958 12.4297 2.87958C10.4967 2.87958 8.92969 4.44658 8.92969 6.37958C8.92969 8.31257 10.4967 9.87958 12.4297 9.87958Z" stroke="white" stroke-width="2" stroke-linecap="round" stroke-linejoin="round"/>
<path id="Vector_2" d="M2.42969 21.3796C2.42969 16.9613 6.45914 13.3796 11.4297 13.3796" stroke="white" stroke-width="2" stroke-linecap="round" stroke-linejoin="round"/>
<path id="Vector_3" d="M17.9297 20.8796C19.5865 20.8796 20.9297 19.5364 20.9297 17.8796C20.9297 16.2227 19.5865 14.8796 17.9297 14.8796C16.2728 14.8796 14.9297 16.2227 14.9297 17.8796C14.9297 19.5364 16.2728 20.8796 17.9297 20.8796Z" stroke="white" stroke-width="2"/>
<path id="Vector_4" d="M20.4297 19.8796L22.4297 21.3796" stroke="white" stroke-width="2" stroke-linecap="round" stroke-linejoin="round"/>
</g>
</svg>
