<svg width="23" height="25" viewBox="0 0 23 25" fill="none" xmlns="http://www.w3.org/2000/svg">
<g id="bx-send">
<path id="Vector" d="M19.7349 11.6153L4.15159 3.61526C3.99469 3.53428 3.81992 3.50361 3.64765 3.52683C3.47539 3.55005 3.31272 3.6262 3.1786 3.74641C3.04449 3.86662 2.94445 4.02594 2.89015 4.20579C2.83586 4.38565 2.82954 4.57864 2.87193 4.76226L4.64934 12.5203L2.87193 20.2783C2.82914 20.462 2.83519 20.6551 2.88936 20.8352C2.94353 21.0153 3.04358 21.1748 3.17782 21.2951C3.31205 21.4155 3.47492 21.4916 3.64737 21.5146C3.81981 21.5377 3.99471 21.5067 4.15159 21.4253L19.7349 13.4253C19.8924 13.3445 20.0256 13.2165 20.1188 13.0563C20.2121 12.896 20.2616 12.7101 20.2616 12.5203C20.2616 12.3304 20.2121 12.1445 20.1188 11.9843C20.0256 11.824 19.8924 11.696 19.7349 11.6153ZM5.11868 18.7173L5.88776 15.3603L11.0944 12.5203L5.88776 9.68026L5.11868 6.32326L17.1912 12.5203L5.11868 18.7173Z" fill="white"/>
</g>
</svg>
